SpartanTT-ExtraLight.ufo
<glyph name="exclam" format="2">
  <advance width="715"/>
  <unicode hex="0021"/>
  <outline>
    <component base="period" xOffset="-13"/>
    <contour>
      <point x="390" y="349" type="line"/>
      <point x="393" y="1720" type="line"/>
      <point x="322" y="1720" type="line"/>
      <point x="325" y="349" type="line"/>
    </contour>
  </outline>
</glyph>
<glyph name="numbersign" format="2">
  <advance width="1388"/>
  <unicode hex="0023"/>
  <outline>
    <contour>
      <point x="387" y="0" type="line"/>
      <point x="445" y="415" type="line"/>
      <point x="866" y="415" type="line"/>
      <point x="808" y="0" type="line"/>
      <point x="859" y="0" type="line"/>
      <point x="916" y="415" type="line"/>
      <point x="1173" y="415" type="line"/>
      <point x="1173" y="466" type="line"/>
      <point x="922" y="466" type="line"/>
      <point x="986" y="918" type="line"/>
      <point x="1173" y="918" type="line"/>
      <point x="1173" y="969" type="line"/>
      <point x="994" y="969" type="line"/>
      <point x="1051" y="1386" type="line"/>
      <point x="1001" y="1386" type="line"/>
      <point x="943" y="969" type="line"/>
      <point x="522" y="969" type="line"/>
      <point x="580" y="1386" type="line"/>
      <point x="529" y="1386" type="line"/>
      <point x="471" y="969" type="line"/>
      <point x="215" y="969" type="line"/>
      <point x="215" y="918" type="line"/>
      <point x="466" y="918" type="line"/>
      <point x="402" y="466" type="line"/>
      <point x="215" y="466" type="line"/>
      <point x="215" y="415" type="line"/>
      <point x="394" y="415" type="line"/>
      <point x="337" y="0" type="line"/>
    </contour>
    <contour>
      <point x="515" y="918" type="line"/>
      <point x="936" y="918" type="line"/>
      <point x="873" y="466" type="line"/>
      <point x="451" y="466" type="line"/>
    </contour>
  </outline>
</glyph>
<glyph name="dollar" format="2">
  <advance width="1506"/>
  <unicode hex="0024"/>
  <outline>
    <component base="S" xOffset="72"/>
    <contour>
      <point x="754" y="1926" type="line"/>
      <point x="754" y="1674" type="line"/>
      <point x="811" y="1674" type="line"/>
      <point x="811" y="1926" type="line"/>
    </contour>
    <contour>
      <point x="754" y="-27" type="line"/>
      <point x="754" y="-276" type="line"/>
      <point x="811" y="-276" type="line"/>
      <point x="811" y="-27" type="line"/>
    </contour>
  </outline>
</glyph>
<glyph name="percent" format="2">
  <advance width="2254"/>
  <unicode hex="0025"/>
  <outline>
    <contour>
      <point x="628" y="892" type="curve" smooth="yes"/>
      <point x="851" y="892"/>
      <point x="1025" y="1054"/>
      <point x="1025" y="1286" type="curve" smooth="yes"/>
      <point x="1025" y="1518"/>
      <point x="851" y="1680"/>
      <point x="628" y="1680" type="curve" smooth="yes"/>
      <point x="402" y="1680"/>
      <point x="228" y="1518"/>
      <point x="228" y="1286" type="curve" smooth="yes"/>
      <point x="228" y="1054"/>
      <point x="402" y="892"/>
    </contour>
    <contour>
      <point x="628" y="955" type="curve" smooth="yes"/>
      <point x="437" y="955"/>
      <point x="300" y="1092"/>
      <point x="300" y="1286" type="curve" smooth="yes"/>
      <point x="300" y="1480"/>
      <point x="437" y="1617"/>
      <point x="628" y="1617" type="curve" smooth="yes"/>
      <point x="816" y="1617"/>
      <point x="955" y="1481"/>
      <point x="955" y="1286" type="curve" smooth="yes"/>
      <point x="955" y="1092"/>
      <point x="816" y="955"/>
    </contour>
    <contour>
      <point x="1627" y="-32" type="curve" smooth="yes"/>
      <point x="1852" y="-32"/>
      <point x="2026" y="130"/>
      <point x="2026" y="362" type="curve" smooth="yes"/>
      <point x="2026" y="594"/>
      <point x="1852" y="756"/>
      <point x="1627" y="756" type="curve" smooth="yes"/>
      <point x="1403" y="756"/>
      <point x="1227" y="594"/>
      <point x="1227" y="362" type="curve" smooth="yes"/>
      <point x="1227" y="130"/>
      <point x="1403" y="-32"/>
    </contour>
    <contour>
      <point x="1627" y="31" type="curve" smooth="yes"/>
      <point x="1438" y="31"/>
      <point x="1299" y="168"/>
      <point x="1299" y="362" type="curve" smooth="yes"/>
      <point x="1299" y="556"/>
      <point x="1438" y="693"/>
      <point x="1627" y="693" type="curve" smooth="yes"/>
      <point x="1817" y="693"/>
      <point x="1954" y="556"/>
      <point x="1954" y="362" type="curve" smooth="yes"/>
      <point x="1954" y="168"/>
      <point x="1817" y="31"/>
    </contour>
    <contour>
      <point x="677" y="0" type="line"/>
      <point x="1637" y="1650" type="line"/>
      <point x="1568" y="1650" type="line"/>
      <point x="608" y="0" type="line"/>
    </contour>
  </outline>
</glyph>
<glyph name="ampersand" format="2">
  <advance width="1781"/>
  <unicode hex="0026"/>
  <outline>
    <contour>
      <point x="699" y="-32" type="curve" smooth="yes"/>
      <point x="897" y="-32"/>
      <point x="1090" y="70"/>
      <point x="1255" y="260" type="curve"/>
      <point x="1489" y="0" type="line" name=".hr01"/>
      <point x="1580" y="0" type="line"/>
      <point x="1303" y="308" type="line"/>
      <point x="1370" y="392"/>
      <point x="1449" y="515"/>
      <point x="1492" y="600" type="curve"/>
      <point x="1442" y="629" type="line"/>
      <point x="1425" y="595"/>
      <point x="1308" y="419"/>
      <point x="1256" y="359" type="curve"/>
      <point x="738" y="925" type="line"/>
      <point x="970" y="1036"/>
      <point x="1092" y="1139"/>
      <point x="1092" y="1328" type="curve" smooth="yes"/>
      <point x="1092" y="1537"/>
      <point x="942" y="1681"/>
      <point x="740" y="1681" type="curve" smooth="yes"/>
      <point x="538" y="1681"/>
      <point x="384" y="1537"/>
      <point x="384" y="1338" type="curve" smooth="yes"/>
      <point x="384" y="1211"/>
      <point x="446" y="1109"/>
      <point x="627" y="940" type="curve"/>
      <point x="370" y="814"/>
      <point x="234" y="638"/>
      <point x="234" y="411" type="curve" smooth="yes"/>
      <point x="234" y="123"/>
      <point x="452" y="-32" name=".hr02"/>
    </contour>
    <contour>
      <point x="700" y="35" type="curve" smooth="yes"/>
      <point x="491" y="35"/>
      <point x="306" y="170"/>
      <point x="306" y="413" type="curve" smooth="yes"/>
      <point x="306" y="613"/>
      <point x="431" y="778"/>
      <point x="672" y="894" type="curve"/>
      <point x="1210" y="311" type="line"/>
      <point x="1053" y="131"/>
      <point x="878" y="35"/>
    </contour>
    <contour>
      <point x="691" y="971" type="curve"/>
      <point x="503" y="1149"/>
      <point x="453" y="1228"/>
      <point x="453" y="1337" type="curve" smooth="yes"/>
      <point x="453" y="1500"/>
      <point x="576" y="1617"/>
      <point x="740" y="1617" type="curve" smooth="yes"/>
      <point x="899" y="1617"/>
      <point x="1026" y="1506"/>
      <point x="1026" y="1330" type="curve" smooth="yes"/>
      <point x="1026" y="1156"/>
      <point x="902" y="1072"/>
    </contour>
  </outline>
</glyph>
<glyph name="quotesingle" format="2">
  <advance width="630"/>
  <unicode hex="0027"/>
  <outline>
    <contour>
      <point x="345" y="1410" type="line"/>
      <point x="360" y="1720" type="line"/>
      <point x="270" y="1720" type="line"/>
      <point x="285" y="1410" type="line"/>
    </contour>
  </outline>
</glyph>
<glyph name="parenleft" format="2">
  <advance width="758"/>
  <unicode hex="0028"/>
  <outline>
    <contour>
      <point x="616" y="-499" type="line"/>
      <point x="460" y="-267"/>
      <point x="272" y="121"/>
      <point x="272" y="614" type="curve" smooth="yes"/>
      <point x="272" y="1095"/>
      <point x="451" y="1483"/>
      <point x="616" y="1729" type="curve"/>
      <point x="566" y="1750" type="line"/>
      <point x="399" y="1541"/>
      <point x="190" y="1132"/>
      <point x="190" y="614" type="curve" smooth="yes"/>
      <point x="190" y="96"/>
      <point x="399" y="-311"/>
      <point x="566" y="-520" type="curve"/>
    </contour>
  </outline>
</glyph>
<glyph name="asterisk" format="2">
  <advance width="887"/>
  <unicode hex="002A"/>
  <outline>
    <contour>
      <point x="442" y="1502" type="line"/>
      <point x="538" y="1371" type="line"/>
      <point x="565" y="1392" type="line"/>
      <point x="471" y="1524" type="line"/>
      <point x="626" y="1574" type="line"/>
      <point x="615" y="1607" type="line"/>
      <point x="460" y="1557" type="line"/>
      <point x="460" y="1720" type="line"/>
      <point x="425" y="1720" type="line"/>
      <point x="425" y="1557" type="line"/>
      <point x="270" y="1607" type="line"/>
      <point x="259" y="1574" type="line"/>
      <point x="414" y="1524" type="line"/>
      <point x="320" y="1392" type="line"/>
      <point x="347" y="1371" type="line"/>
    </contour>
  </outline>
</glyph>
<glyph name="plus" format="2">
  <advance width="1471"/>
  <unicode hex="002B"/>
  <outline>
    <contour>
      <point x="768" y="316" type="line"/>
      <point x="768" y="796" type="line"/>
      <point x="1248" y="796" type="line"/>
      <point x="1248" y="860" type="line"/>
      <point x="768" y="860" type="line"/>
      <point x="768" y="1340" type="line"/>
      <point x="704" y="1340" type="line"/>
      <point x="704" y="860" type="line"/>
      <point x="224" y="860" type="line"/>
      <point x="224" y="796" type="line"/>
      <point x="704" y="796" type="line"/>
      <point x="704" y="316" type="line"/>
    </contour>
  </outline>
</glyph>
<glyph name="comma" format="2">
  <advance width="713"/>
  <unicode hex="002C"/>
  <outline>
    <contour>
      <point x="322" y="-198" type="line"/>
      <point x="371" y="-161"/>
      <point x="422" y="-66"/>
      <point x="422" y="5" type="curve" smooth="yes"/>
      <point x="422" y="60"/>
      <point x="390" y="87"/>
      <point x="355" y="87" type="curve" smooth="yes"/>
      <point x="321" y="87"/>
      <point x="294" y="60"/>
      <point x="294" y="28" type="curve" smooth="yes"/>
      <point x="294" y="-3"/>
      <point x="319" y="-29"/>
      <point x="350" y="-31" type="curve"/>
      <point x="349" y="-94"/>
      <point x="334" y="-145"/>
      <point x="307" y="-183" type="curve"/>
    </contour>
  </outline>
</glyph>
<glyph name="hyphen" format="2">
  <advance width="1106"/>
  <unicode hex="002D"/>
  <outline>
    <contour>
      <point x="875" y="548" type="line"/>
      <point x="875" y="612" type="line"/>
      <point x="231" y="612" type="line"/>
      <point x="231" y="548" type="line"/>
    </contour>
  </outline>
</glyph>
<glyph name="period" format="2">
  <advance width="750"/>
  <unicode hex="002E"/>
  <outline>
    <contour>
      <point x="375" y="-32" type="curve" smooth="yes"/>
      <point x="408" y="-32"/>
      <point x="435" y="-5"/>
      <point x="435" y="28" type="curve" smooth="yes"/>
      <point x="435" y="61"/>
      <point x="408" y="88"/>
      <point x="375" y="88" type="curve" smooth="yes"/>
      <point x="342" y="88"/>
      <point x="315" y="61"/>
      <point x="315" y="28" type="curve" smooth="yes"/>
      <point x="315" y="-5"/>
      <point x="342" y="-32"/>
    </contour>
  </outline>
</glyph>
<glyph name="slash" format="2">
  <advance width="1053"/>
  <unicode hex="002F"/>
  <outline>
    <contour>
      <point x="143" y="-240" type="line"/>
      <point x="967" y="1720" type="line"/>
      <point x="910" y="1720" type="line"/>
      <point x="86" y="-240" type="line"/>
    </contour>
  </outline>
</glyph>
<glyph name="zero" format="2">
  <advance width="1500"/>
  <unicode hex="0030"/>
  <outline>
    <contour>
      <point x="750" y="-32" type="curve" smooth="yes"/>
      <point x="1152" y="-32"/>
      <point x="1420" y="311"/>
      <point x="1420" y="824" type="curve" smooth="yes"/>
      <point x="1420" y="1337"/>
      <point x="1152" y="1680"/>
      <point x="750" y="1680" type="curve" smooth="yes"/>
      <point x="348" y="1680"/>
      <point x="79" y="1337"/>
      <point x="79" y="824" type="curve" smooth="yes"/>
      <point x="79" y="311"/>
      <point x="348" y="-32"/>
    </contour>
    <contour>
      <point x="750" y="39" type="curve" smooth="yes"/>
      <point x="396" y="39"/>
      <point x="160" y="353"/>
      <point x="160" y="824" type="curve" smooth="yes"/>
      <point x="160" y="1295"/>
      <point x="396" y="1609"/>
      <point x="750" y="1609" type="curve" smooth="yes"/>
      <point x="1103" y="1609"/>
      <point x="1339" y="1295"/>
      <point x="1339" y="824" type="curve" smooth="yes"/>
      <point x="1339" y="353"/>
      <point x="1103" y="39"/>
    </contour>
  </outline>
</glyph>
<glyph name="two" format="2">
  <advance width="1500"/>
  <unicode hex="0032"/>
  <outline>
    <contour>
      <point x="1305" y="0" type="line"/>
      <point x="1305" y="79" type="line"/>
      <point x="361" y="79" type="line"/>
      <point x="1095" y="664"/>
      <point x="1275" y="875"/>
      <point x="1275" y="1141" type="curve" smooth="yes"/>
      <point x="1275" y="1447"/>
      <point x="1034" y="1680"/>
      <point x="740" y="1680" type="curve" smooth="yes"/>
      <point x="449" y="1680"/>
      <point x="215" y="1448"/>
      <point x="205" y="1161" type="curve"/>
      <point x="283" y="1148" type="line"/>
      <point x="286" y="1399"/>
      <point x="490" y="1601"/>
      <point x="739" y="1601" type="curve" smooth="yes"/>
      <point x="988" y="1601"/>
      <point x="1192" y="1399"/>
      <point x="1192" y="1143" type="curve" smooth="yes"/>
      <point x="1192" y="893"/>
      <point x="995" y="677"/>
      <point x="175" y="29" type="curve"/>
      <point x="175" y="0" type="line"/>
    </contour>
  </outline>
</glyph>
<glyph name="three" format="2">
  <advance width="1500"/>
  <unicode hex="0033"/>
  <outline>
    <contour>
      <point x="735" y="-32" type="curve" smooth="yes"/>
      <point x="1038" y="-32"/>
      <point x="1212" y="157"/>
      <point x="1212" y="409" type="curve" smooth="yes"/>
      <point x="1212" y="635"/>
      <point x="1071" y="798"/>
      <point x="903" y="839" type="curve"/>
      <point x="1076" y="896"/>
      <point x="1197" y="1063"/>
      <point x="1197" y="1250" type="curve" smooth="yes"/>
      <point x="1197" y="1488"/>
      <point x="1004" y="1680"/>
      <point x="762" y="1680" type="curve" smooth="yes"/>
      <point x="534" y="1680"/>
      <point x="345" y="1510"/>
      <point x="332" y="1276" type="curve"/>
      <point x="401" y="1263" type="line"/>
      <point x="408" y="1455"/>
      <point x="567" y="1609"/>
      <point x="761" y="1609" type="curve" smooth="yes"/>
      <point x="955" y="1609"/>
      <point x="1119" y="1453"/>
      <point x="1119" y="1249" type="curve" smooth="yes"/>
      <point x="1119" y="1044"/>
      <point x="951" y="872"/>
      <point x="730" y="872" type="curve" smooth="yes"/>
      <point x="684" y="872" type="line"/>
      <point x="684" y="802" type="line"/>
      <point x="700" y="806"/>
      <point x="720" y="808"/>
      <point x="743" y="808" type="curve" smooth="yes"/>
      <point x="954" y="808"/>
      <point x="1129" y="628"/>
      <point x="1129" y="404" type="curve" smooth="yes"/>
      <point x="1129" y="192"/>
      <point x="975" y="46"/>
      <point x="734" y="46" type="curve" smooth="yes"/>
      <point x="494" y="46"/>
      <point x="317" y="191"/>
      <point x="314" y="406" type="curve"/>
      <point x="239" y="394" type="line"/>
      <point x="247" y="140"/>
      <point x="447" y="-32"/>
    </contour>
  </outline>
</glyph>
<glyph name="four" format="2">
  <advance width="1500"/>
  <unicode hex="0034"/>
  <outline>
    <contour>
      <point x="1076" y="0" type="line"/>
      <point x="1076" y="324" type="line"/>
      <point x="1268" y="324" type="line"/>
      <point x="1268" y="392" type="line"/>
      <point x="1076" y="392" type="line"/>
      <point x="1076" y="1650" type="line"/>
      <point x="1000" y="1650" type="line"/>
      <point x="172" y="378" type="line"/>
      <point x="172" y="324" type="line"/>
      <point x="1002" y="324" type="line"/>
      <point x="1002" y="0" type="line"/>
    </contour>
    <contour>
      <point x="1002" y="1538" type="line"/>
      <point x="1002" y="392" type="line"/>
      <point x="263" y="392" type="line"/>
    </contour>
  </outline>
</glyph>
<glyph name="five" format="2">
  <advance width="1500"/>
  <unicode hex="0035"/>
  <outline>
    <contour>
      <point x="369" y="1650" type="line"/>
      <point x="236" y="795" type="line"/>
      <point x="372" y="948"/>
      <point x="536" y="1030"/>
      <point x="721" y="1030" type="curve" smooth="yes"/>
      <point x="1015" y="1030"/>
      <point x="1246" y="830"/>
      <point x="1246" y="513" type="curve" smooth="yes"/>
      <point x="1246" y="215"/>
      <point x="1043" y="33"/>
      <point x="744" y="33" type="curve" smooth="yes"/>
      <point x="499" y="33"/>
      <point x="300" y="156"/>
      <point x="223" y="358" type="curve"/>
      <point x="162" y="326" type="line"/>
      <point x="244" y="106"/>
      <point x="470" y="-32"/>
      <point x="738" y="-32" type="curve" smooth="yes"/>
      <point x="1045" y="-32"/>
      <point x="1317" y="142"/>
      <point x="1317" y="511" type="curve" smooth="yes"/>
      <point x="1317" y="861"/>
      <point x="1071" y="1092"/>
      <point x="730" y="1092" type="curve" smooth="yes"/>
      <point x="566" y="1092"/>
      <point x="427" y="1038"/>
      <point x="316" y="930" type="curve"/>
      <point x="327" y="928" type="line"/>
      <point x="429" y="1583" type="line"/>
      <point x="1211" y="1583" type="line"/>
      <point x="1211" y="1650" type="line"/>
    </contour>
  </outline>
</glyph>
<glyph name="six" format="2">
  <advance width="1500"/>
  <unicode hex="0036"/>
  <outline>
    <contour>
      <point x="746" y="-32" type="curve" smooth="yes"/>
      <point x="1076" y="-32"/>
      <point x="1316" y="203"/>
      <point x="1316" y="528" type="curve" smooth="yes"/>
      <point x="1316" y="861"/>
      <point x="1063" y="1097"/>
      <point x="770" y="1097" type="curve" smooth="yes"/>
      <point x="679" y="1097"/>
      <point x="595" y="1073"/>
      <point x="513" y="1028" type="curve"/>
      <point x="1034" y="1650" type="line"/>
      <point x="940" y="1650" type="line"/>
      <point x="335" y="929" type="line" smooth="yes"/>
      <point x="247" y="825"/>
      <point x="185" y="664"/>
      <point x="185" y="514" type="curve" smooth="yes"/>
      <point x="185" y="240"/>
      <point x="392" y="-32"/>
    </contour>
    <contour>
      <point x="746" y="36" type="curve" smooth="yes"/>
      <point x="448" y="36"/>
      <point x="258" y="260"/>
      <point x="258" y="521" type="curve" smooth="yes"/>
      <point x="258" y="804"/>
      <point x="484" y="1028"/>
      <point x="759" y="1028" type="curve" smooth="yes"/>
      <point x="1027" y="1028"/>
      <point x="1244" y="817"/>
      <point x="1244" y="528" type="curve" smooth="yes"/>
      <point x="1244" y="243"/>
      <point x="1033" y="36"/>
    </contour>
  </outline>
</glyph>
<glyph name="seven" format="2">
  <advance width="1500"/>
  <unicode hex="0037"/>
  <outline>
    <contour>
      <point x="364" y="0" type="line"/>
      <point x="1236" y="1619" type="line"/>
      <point x="1236" y="1650" type="line"/>
      <point x="277" y="1650" type="line"/>
      <point x="277" y="1583" type="line"/>
      <point x="1126" y="1583" type="line"/>
      <point x="274" y="0" type="line"/>
    </contour>
  </outline>
</glyph>
<glyph name="eight" format="2">
  <advance width="1500"/>
  <unicode hex="0038"/>
  <outline>
    <contour>
      <point x="750" y="-32" type="curve" smooth="yes"/>
      <point x="1037" y="-32"/>
      <point x="1242" y="171"/>
      <point x="1242" y="433" type="curve" smooth="yes"/>
      <point x="1242" y="635"/>
      <point x="1119" y="804"/>
      <point x="924" y="873" type="curve"/>
      <point x="1082" y="940"/>
      <point x="1182" y="1089" name=".hr01"/>
      <point x="1182" y="1262" type="curve" smooth="yes"/>
      <point x="1182" y="1498"/>
      <point x="997" y="1680"/>
      <point x="750" y="1680" type="curve" smooth="yes"/>
      <point x="501" y="1680"/>
      <point x="318" y="1496"/>
      <point x="318" y="1262" type="curve" smooth="yes"/>
      <point x="318" y="1089"/>
      <point x="418" y="940"/>
      <point x="576" y="873" type="curve"/>
      <point x="381" y="804"/>
      <point x="258" y="635" name=".hr02"/>
      <point x="258" y="433" type="curve" smooth="yes"/>
      <point x="258" y="171"/>
      <point x="463" y="-32"/>
    </contour>
    <contour>
      <point x="750" y="37" type="curve" smooth="yes"/>
      <point x="509" y="37"/>
      <point x="338" y="209"/>
      <point x="338" y="435" type="curve" smooth="yes"/>
      <point x="338" y="667"/>
      <point x="517" y="834"/>
      <point x="750" y="834" type="curve" smooth="yes"/>
      <point x="986" y="834"/>
      <point x="1162" y="664"/>
      <point x="1162" y="435" type="curve" smooth="yes"/>
      <point x="1162" y="209"/>
      <point x="991" y="37"/>
    </contour>
    <contour>
      <point x="750" y="907" type="curve" smooth="yes"/>
      <point x="545" y="907"/>
      <point x="393" y="1057"/>
      <point x="393" y="1261" type="curve" smooth="yes"/>
      <point x="393" y="1463" name=".hr03"/>
      <point x="546" y="1616"/>
      <point x="750" y="1616" type="curve" smooth="yes"/>
      <point x="954" y="1616"/>
      <point x="1108" y="1463"/>
      <point x="1108" y="1261" type="curve" smooth="yes"/>
      <point x="1108" y="1057"/>
      <point x="955" y="907"/>
    </contour>
  </outline>
</glyph>
<glyph name="nine" format="2">
  <advance width="1500"/>
  <unicode hex="0039"/>
  <outline>
    <contour>
      <point x="561" y="0" type="line"/>
      <point x="1166" y="721" type="line" smooth="yes"/>
      <point x="1261" y="835"/>
      <point x="1315" y="980"/>
      <point x="1315" y="1121" type="curve" smooth="yes"/>
      <point x="1315" y="1444"/>
      <point x="1080" y="1680"/>
      <point x="752" y="1680" type="curve" smooth="yes"/>
      <point x="423" y="1680"/>
      <point x="184" y="1443"/>
      <point x="184" y="1122" type="curve" smooth="yes"/>
      <point x="184" y="798"/>
      <point x="429" y="553"/>
      <point x="747" y="553" type="curve" smooth="yes"/>
      <point x="839" y="553"/>
      <point x="929" y="583"/>
      <point x="1002" y="637" type="curve"/>
      <point x="466" y="0" type="line"/>
    </contour>
    <contour>
      <point x="753" y="627" type="curve" smooth="yes"/>
      <point x="473" y="627"/>
      <point x="261" y="841"/>
      <point x="261" y="1123" type="curve" smooth="yes"/>
      <point x="261" y="1402"/>
      <point x="470" y="1607"/>
      <point x="753" y="1607" type="curve" smooth="yes"/>
      <point x="1034" y="1607"/>
      <point x="1238" y="1404"/>
      <point x="1238" y="1123" type="curve" smooth="yes"/>
      <point x="1238" y="852"/>
      <point x="1018" y="627"/>
    </contour>
  </outline>
</glyph>
<glyph name="less" format="2">
  <advance width="1543"/>
  <unicode hex="003C"/>
  <outline>
    <contour>
      <point x="1312" y="338" type="line"/>
      <point x="298" y="832" type="line"/>
      <point x="1312" y="1326" type="line"/>
      <point x="1312" y="1394" type="line"/>
      <point x="218" y="856" type="line"/>
      <point x="218" y="808" type="line"/>
      <point x="1312" y="270" type="line"/>
    </contour>
  </outline>
</glyph>
<glyph name="equal" format="2">
  <advance width="1716"/>
  <unicode hex="003D"/>
  <outline>
    <contour>
      <point x="1370" y="984" type="line"/>
      <point x="1370" y="1048" type="line"/>
      <point x="346" y="1048" type="line"/>
      <point x="346" y="984" type="line"/>
    </contour>
    <contour>
      <point x="1370" y="610" type="line"/>
      <point x="1370" y="674" type="line"/>
      <point x="346" y="674" type="line"/>
      <point x="346" y="610" type="line"/>
    </contour>
  </outline>
</glyph>
<glyph name="greater" format="2">
  <advance width="1543"/>
  <unicode hex="003E"/>
  <outline>
    <contour>
      <point x="1325" y="808" type="line"/>
      <point x="1325" y="856" type="line"/>
      <point x="232" y="1394" type="line"/>
      <point x="232" y="1326" type="line"/>
      <point x="1246" y="832" type="line"/>
      <point x="232" y="338" type="line"/>
      <point x="232" y="270" type="line"/>
    </contour>
  </outline>
</glyph>
<glyph name="question" format="2">
  <advance width="1385"/>
  <unicode hex="003F"/>
  <outline>
    <component base="period" xOffset="265"/>
    <contour>
      <point x="670" y="381" type="line"/>
      <point x="670" y="691" type="line"/>
      <point x="979" y="694"/>
      <point x="1174" y="905"/>
      <point x="1174" y="1191" type="curve" smooth="yes"/>
      <point x="1174" y="1480"/>
      <point x="976" y="1680"/>
      <point x="682" y="1680" type="curve" smooth="yes"/>
      <point x="405" y="1680"/>
      <point x="214" y="1502"/>
      <point x="197" y="1224" type="curve"/>
      <point x="267" y="1215" type="line"/>
      <point x="280" y="1456"/>
      <point x="439" y="1608"/>
      <point x="682" y="1608" type="curve" smooth="yes"/>
      <point x="926" y="1608"/>
      <point x="1101" y="1453"/>
      <point x="1101" y="1189" type="curve" smooth="yes"/>
      <point x="1101" y="915"/>
      <point x="912" y="756"/>
      <point x="661" y="756" type="curve" smooth="yes"/>
      <point x="638" y="756"/>
      <point x="626" y="757"/>
      <point x="602" y="761" type="curve"/>
      <point x="602" y="381" type="line"/>
    </contour>
  </outline>
</glyph>
<glyph name="at" format="2">
  <advance width="2169"/>
  <unicode hex="0040"/>
  <outline>
    <contour>
      <point x="1085" y="-339" type="curve" smooth="yes"/>
      <point x="1366" y="-339"/>
      <point x="1596" y="-212"/>
      <point x="1734" y="-19" type="curve"/>
      <point x="1671" y="15" type="line"/>
      <point x="1555" y="-144"/>
      <point x="1354" y="-270"/>
      <point x="1086" y="-270" type="curve" smooth="yes"/>
      <point x="633" y="-270"/>
      <point x="326" y="86"/>
      <point x="326" y="516" type="curve" smooth="yes"/>
      <point x="326" y="972"/>
      <point x="672" y="1307"/>
      <point x="1105" y="1307" type="curve" smooth="yes"/>
      <point x="1485" y="1307"/>
      <point x="1860" y="1051"/>
      <point x="1860" y="530" type="curve" smooth="yes"/>
      <point x="1860" y="315"/>
      <point x="1796" y="169"/>
      <point x="1691" y="169" type="curve" smooth="yes"/>
      <point x="1620" y="169"/>
      <point x="1558" y="232"/>
      <point x="1558" y="356" type="curve" smooth="yes"/>
      <point x="1558" y="1004" type="line"/>
      <point x="1492" y="1004" type="line"/>
      <point x="1492" y="754" type="line"/>
      <point x="1412" y="926"/>
      <point x="1247" y="1036"/>
      <point x="1048" y="1036" type="curve" smooth="yes"/>
      <point x="763" y="1036"/>
      <point x="544" y="813"/>
      <point x="544" y="500" type="curve" smooth="yes"/>
      <point x="544" y="186"/>
      <point x="763" y="-34"/>
      <point x="1048" y="-34" type="curve" smooth="yes"/>
      <point x="1248" y="-34"/>
      <point x="1413" y="76"/>
      <point x="1493" y="250" type="curve"/>
      <point x="1519" y="176"/>
      <point x="1594" y="109"/>
      <point x="1688" y="109" type="curve" smooth="yes"/>
      <point x="1865" y="109"/>
      <point x="1921" y="350"/>
      <point x="1921" y="544" type="curve" smooth="yes"/>
      <point x="1921" y="1100"/>
      <point x="1502" y="1373"/>
      <point x="1095" y="1373" type="curve" smooth="yes"/>
      <point x="620" y="1373"/>
      <point x="251" y="998"/>
      <point x="251" y="511" type="curve" smooth="yes"/>
      <point x="251" y="39"/>
      <point x="598" y="-339"/>
    </contour>
    <contour>
      <point x="1054" y="28" type="curve" smooth="yes"/>
      <point x="798" y="28"/>
      <point x="610" y="224"/>
      <point x="610" y="500" type="curve" smooth="yes"/>
      <point x="610" y="778"/>
      <point x="799" y="974"/>
      <point x="1054" y="974" type="curve" smooth="yes"/>
      <point x="1311" y="974"/>
      <point x="1498" y="778"/>
      <point x="1498" y="500" type="curve" smooth="yes"/>
      <point x="1498" y="224"/>
      <point x="1311" y="28"/>
    </contour>
  </outline>
</glyph>
<glyph name="A" format="2">
  <advance width="1653"/>
  <unicode hex="0041"/>
  <anchor x="827" y="0" name="bottom"/>
  <anchor x="1505" y="0" name="ogonek"/>
  <anchor x="827" y="1650" name="top"/>
  <outline>
    <contour>
      <point x="229" y="0" type="line"/>
      <point x="459" y="592" type="line"/>
      <point x="1195" y="592" type="line"/>
      <point x="1425" y="0" type="line"/>
      <point x="1505" y="0" type="line"/>
      <point x="862" y="1650" type="line"/>
      <point x="792" y="1650" type="line"/>
      <point x="149" y="0" type="line"/>
    </contour>
    <contour>
      <point x="827" y="1554" type="line"/>
      <point x="1169" y="660" type="line"/>
      <point x="485" y="660" type="line"/>
    </contour>
  </outline>
</glyph>
<glyph name="B" format="2">
  <advance width="1285"/>
  <unicode hex="0042"/>
  <anchor x="642" y="0" name="bottom"/>
  <anchor x="642" y="1650" name="top"/>
  <outline>
    <contour>
      <point x="664" y="0" type="line" smooth="yes"/>
      <point x="984" y="0"/>
      <point x="1173" y="160"/>
      <point x="1173" y="433" type="curve" smooth="yes"/>
      <point x="1173" y="670"/>
      <point x="1029" y="823"/>
      <point x="778" y="856" type="curve"/>
      <point x="941" y="919"/>
      <point x="1027" y="1050"/>
      <point x="1027" y="1232" type="curve" smooth="yes"/>
      <point x="1027" y="1499"/>
      <point x="842" y="1650"/>
      <point x="519" y="1650" type="curve" smooth="yes"/>
      <point x="225" y="1650" type="line"/>
      <point x="225" y="0" type="line"/>
    </contour>
    <contour>
      <point x="301" y="1586" type="line"/>
      <point x="514" y="1586" type="line" smooth="yes"/>
      <point x="797" y="1586"/>
      <point x="956" y="1458" name=".hr01"/>
      <point x="956" y="1229" type="curve" smooth="yes"/>
      <point x="956" y="1003"/>
      <point x="798" y="876"/>
      <point x="514" y="876" type="curve" smooth="yes"/>
      <point x="301" y="876" type="line"/>
    </contour>
    <contour>
      <point x="301" y="806" type="line"/>
      <point x="655" y="806" type="line" smooth="yes"/>
      <point x="935" y="806"/>
      <point x="1100" y="668"/>
      <point x="1100" y="433" type="curve" smooth="yes"/>
      <point x="1100" y="201"/>
      <point x="937" y="67"/>
      <point x="655" y="67" type="curve" smooth="yes"/>
      <point x="301" y="67" type="line"/>
    </contour>
  </outline>
</glyph>
<glyph name="C" format="2">
  <advance width="1643"/>
  <unicode hex="0043"/>
  <anchor x="953" y="0" name="bottom"/>
  <anchor x="953" y="1650" name="top"/>
  <outline>
    <contour>
      <point x="143" y="824" type="curve" smooth="yes"/>
      <point x="143" y="338"/>
      <point x="503" y="-32"/>
      <point x="999" y="-32" type="curve" smooth="yes"/>
      <point x="1207" y="-32"/>
      <point x="1390" y="31"/>
      <point x="1533" y="144" type="curve"/>
      <point x="1490" y="205" type="line"/>
      <point x="1361" y="100"/>
      <point x="1190" y="44"/>
      <point x="1004" y="44" type="curve" smooth="yes"/>
      <point x="544" y="44"/>
      <point x="227" y="387"/>
      <point x="227" y="824" type="curve" smooth="yes"/>
      <point x="227" y="1261"/>
      <point x="544" y="1604"/>
      <point x="1004" y="1604" type="curve" smooth="yes"/>
      <point x="1190" y="1604"/>
      <point x="1361" y="1548"/>
      <point x="1490" y="1443" type="curve"/>
      <point x="1533" y="1504" type="line"/>
      <point x="1390" y="1617"/>
      <point x="1207" y="1680"/>
      <point x="999" y="1680" type="curve" smooth="yes"/>
      <point x="503" y="1680"/>
      <point x="143" y="1310"/>
    </contour>
  </outline>
</glyph>
<glyph name="D" format="2">
  <advance width="1650"/>
  <unicode hex="0044"/>
  <anchor x="825" y="0" name="bottom"/>
  <anchor x="825" y="825" name="center"/>
  <anchor x="825" y="1650" name="top"/>
  <outline>
    <contour>
      <point x="623" y="0" type="line" smooth="yes"/>
      <point x="1093" y="0"/>
      <point x="1455" y="359"/>
      <point x="1455" y="825" type="curve" smooth="yes"/>
      <point x="1455" y="1291"/>
      <point x="1093" y="1650"/>
      <point x="623" y="1650" type="curve" smooth="yes"/>
      <point x="288" y="1650" type="line"/>
      <point x="288" y="0" type="line"/>
    </contour>
    <contour>
      <point x="364" y="1582" type="line"/>
      <point x="621" y="1582" type="line" smooth="yes"/>
      <point x="1046" y="1582"/>
      <point x="1379" y="1251"/>
      <point x="1379" y="825" type="curve" smooth="yes"/>
      <point x="1379" y="399"/>
      <point x="1046" y="68"/>
      <point x="621" y="68" type="curve" smooth="yes"/>
      <point x="364" y="68" type="line"/>
    </contour>
  </outline>
</glyph>
<glyph name="E" format="2">
  <advance width="1258"/>
  <unicode hex="0045"/>
  <anchor x="704" y="0" name="bottom"/>
  <anchor x="1082" y="0" name="ogonek"/>
  <anchor x="704" y="1650" name="top"/>
  <outline>
    <contour>
      <point x="1082" y="0" type="line"/>
      <point x="1082" y="68" type="line"/>
      <point x="364" y="68" type="line"/>
      <point x="364" y="793" type="line"/>
      <point x="1058" y="793" type="line"/>
      <point x="1058" y="861" type="line"/>
      <point x="364" y="861" type="line"/>
      <point x="364" y="1582" type="line"/>
      <point x="1082" y="1582" type="line"/>
      <point x="1082" y="1650" type="line"/>
      <point x="288" y="1650" type="line"/>
      <point x="288" y="0" type="line"/>
    </contour>
  </outline>
</glyph>
<glyph name="F" format="2">
  <advance width="1240"/>
  <unicode hex="0046"/>
  <anchor x="620" y="0" name="bottom"/>
  <anchor x="620" y="1650" name="top"/>
  <outline>
    <contour>
      <point x="288" y="1650" type="line"/>
      <point x="288" y="0" type="line"/>
      <point x="364" y="0" type="line"/>
      <point x="364" y="793" type="line"/>
      <point x="1037" y="793" type="line"/>
      <point x="1037" y="861" type="line"/>
      <point x="364" y="861" type="line"/>
      <point x="364" y="1582" type="line"/>
      <point x="1083" y="1582" type="line"/>
      <point x="1083" y="1650" type="line"/>
    </contour>
  </outline>
</glyph>
<glyph name="G" format="2">
  <advance width="1944"/>
  <unicode hex="0047"/>
  <anchor x="993" y="0" name="bottom"/>
  <anchor x="993" y="1650" name="top"/>
  <outline>
    <contour>
      <point x="1013" y="-32" type="curve" smooth="yes"/>
      <point x="1360" y="-32"/>
      <point x="1765" y="184"/>
      <point x="1765" y="684" type="curve" smooth="yes"/>
      <point x="1765" y="783" type="line"/>
      <point x="1002" y="783" type="line"/>
      <point x="1002" y="716" type="line"/>
      <point x="1687" y="716" type="line"/>
      <point x="1687" y="644" type="line" smooth="yes"/>
      <point x="1687" y="269"/>
      <point x="1343" y="37"/>
      <point x="1009" y="37" type="curve" smooth="yes"/>
      <point x="598" y="37"/>
      <point x="278" y="389"/>
      <point x="278" y="824" type="curve" smooth="yes"/>
      <point x="278" y="1227"/>
      <point x="552" y="1612"/>
      <point x="1015" y="1612" type="curve" smooth="yes"/>
      <point x="1252" y="1612"/>
      <point x="1453" y="1511"/>
      <point x="1581" y="1358" type="curve"/>
      <point x="1639" y="1399" type="line"/>
      <point x="1504" y="1563"/>
      <point x="1294" y="1680"/>
      <point x="1018" y="1680" type="curve" smooth="yes"/>
      <point x="492" y="1680"/>
      <point x="198" y="1254"/>
      <point x="198" y="823" type="curve" smooth="yes"/>
      <point x="198" y="350"/>
      <point x="552" y="-32"/>
    </contour>
  </outline>
</glyph>
<glyph name="H" format="2">
  <advance width="1754"/>
  <unicode hex="0048"/>
  <anchor x="877" y="0" name="bottom"/>
  <anchor x="877" y="825" name="center"/>
  <anchor x="877" y="1650" name="top"/>
  <outline>
    <contour>
      <point x="364" y="0" type="line"/>
      <point x="364" y="793" type="line"/>
      <point x="1390" y="793" type="line"/>
      <point x="1390" y="0" type="line"/>
      <point x="1466" y="0" type="line"/>
      <point x="1466" y="1650" type="line"/>
      <point x="1390" y="1650" type="line"/>
      <point x="1390" y="861" type="line"/>
      <point x="364" y="861" type="line"/>
      <point x="364" y="1650" type="line"/>
      <point x="288" y="1650" type="line"/>
      <point x="288" y="0" type="line"/>
    </contour>
  </outline>
</glyph>
<glyph name="I" format="2">
  <advance width="652"/>
  <unicode hex="0049"/>
  <anchor x="326" y="0" name="bottom"/>
  <anchor x="364" y="0" name="ogonek"/>
  <anchor x="326" y="1650" name="top"/>
  <outline>
    <contour>
      <point x="364" y="0" type="line"/>
      <point x="364" y="1650" type="line"/>
      <point x="288" y="1650" type="line"/>
      <point x="288" y="0" type="line"/>
    </contour>
  </outline>
</glyph>
<glyph name="J" format="2">
  <advance width="1322"/>
  <unicode hex="004A"/>
  <anchor x="565" y="-2" name="bottom"/>
  <anchor x="651" y="1650" name="top"/>
  <outline>
    <contour>
      <point x="559" y="-32" type="curve" smooth="yes"/>
      <point x="868" y="-32"/>
      <point x="1051" y="152"/>
      <point x="1051" y="464" type="curve" smooth="yes"/>
      <point x="1051" y="1650" type="line"/>
      <point x="975" y="1650" type="line"/>
      <point x="975" y="492" type="line" smooth="yes"/>
      <point x="975" y="204"/>
      <point x="824" y="39"/>
      <point x="561" y="39" type="curve" smooth="yes"/>
      <point x="427" y="39"/>
      <point x="319" y="86"/>
      <point x="228" y="183" type="curve"/>
      <point x="183" y="124" type="line"/>
      <point x="292" y="16"/>
      <point x="408" y="-32"/>
    </contour>
  </outline>
</glyph>
<glyph name="K" format="2">
  <advance width="1445"/>
  <unicode hex="004B"/>
  <anchor x="738" y="0" name="bottom"/>
  <anchor x="738" y="1650" name="top"/>
  <outline>
    <contour>
      <point x="364" y="0" type="line"/>
      <point x="364" y="772" type="line"/>
      <point x="1233" y="0" type="line"/>
      <point x="1343" y="0" type="line"/>
      <point x="423" y="823" type="line"/>
      <point x="1266" y="1650" type="line"/>
      <point x="1164" y="1650" type="line"/>
      <point x="364" y="864" type="line"/>
      <point x="364" y="1650" type="line"/>
      <point x="288" y="1650" type="line"/>
      <point x="288" y="0" type="line"/>
    </contour>
  </outline>
</glyph>
<glyph name="L" format="2">
  <advance width="1240"/>
  <unicode hex="004C"/>
  <anchor x="628" y="0" name="bottom"/>
  <anchor x="621" y="825" name="center"/>
  <anchor x="551" y="1650" name="top"/>
  <anchor x="1220" y="1650" name="topright"/>
  <outline>
    <contour>
      <point x="1097" y="0" type="line"/>
      <point x="1097" y="68" type="line"/>
      <point x="364" y="68" type="line"/>
      <point x="364" y="1650" type="line"/>
      <point x="288" y="1650" type="line"/>
      <point x="288" y="0" type="line"/>
    </contour>
  </outline>
</glyph>
<glyph name="M" format="2">
  <advance width="1910"/>
  <unicode hex="004D"/>
  <anchor x="955" y="127" name="bottom"/>
  <anchor x="955" y="1650" name="top"/>
  <outline>
    <contour>
      <point x="364" y="0" type="line"/>
      <point x="364" y="1460" type="line"/>
      <point x="920" y="127" type="line"/>
      <point x="990" y="127" type="line"/>
      <point x="1546" y="1460" type="line"/>
      <point x="1546" y="0" type="line"/>
      <point x="1622" y="0" type="line"/>
      <point x="1622" y="1650" type="line"/>
      <point x="1539" y="1650" type="line"/>
      <point x="955" y="244" type="line"/>
      <point x="371" y="1650" type="line"/>
      <point x="288" y="1650" type="line"/>
      <point x="288" y="0" type="line"/>
    </contour>
  </outline>
</glyph>
<glyph name="N" format="2">
  <advance width="1691"/>
  <unicode hex="004E"/>
  <anchor x="846" y="0" name="bottom"/>
  <anchor x="846" y="1650" name="top"/>
  <outline>
    <contour>
      <point x="364" y="0" type="line"/>
      <point x="364" y="1513" type="line"/>
      <point x="1328" y="0" type="line"/>
      <point x="1404" y="0" type="line"/>
      <point x="1404" y="1650" type="line"/>
      <point x="1328" y="1650" type="line"/>
      <point x="1328" y="135" type="line"/>
      <point x="364" y="1650" type="line"/>
      <point x="288" y="1650" type="line"/>
      <point x="288" y="0" type="line"/>
    </contour>
  </outline>
</glyph>
<glyph name="O" format="2">
  <advance width="2055"/>
  <unicode hex="004F"/>
  <anchor x="1028" y="0" name="bottom"/>
  <anchor x="1028" y="825" name="center"/>
  <anchor x="1058" y="0" name="ogonek"/>
  <anchor x="1028" y="1650" name="top"/>
  <anchor x="20" y="1650" name="topleft"/>
  <anchor x="2035" y="1650" name="topright"/>
  <outline>
    <contour>
      <point x="1028" y="-32" type="curve" smooth="yes"/>
      <point x="1490" y="-32"/>
      <point x="1860" y="348"/>
      <point x="1860" y="824" type="curve" smooth="yes"/>
      <point x="1860" y="1300"/>
      <point x="1490" y="1680"/>
      <point x="1028" y="1680" type="curve" smooth="yes"/>
      <point x="566" y="1680"/>
      <point x="196" y="1300"/>
      <point x="196" y="824" type="curve" smooth="yes"/>
      <point x="196" y="348"/>
      <point x="566" y="-32"/>
    </contour>
    <contour>
      <point x="1028" y="41" type="curve" smooth="yes"/>
      <point x="611" y="41"/>
      <point x="277" y="390"/>
      <point x="277" y="824" type="curve" smooth="yes"/>
      <point x="277" y="1258"/>
      <point x="611" y="1607"/>
      <point x="1028" y="1607" type="curve" smooth="yes"/>
      <point x="1445" y="1607"/>
      <point x="1778" y="1258"/>
      <point x="1778" y="824" type="curve" smooth="yes"/>
      <point x="1778" y="390"/>
      <point x="1445" y="41"/>
    </contour>
  </outline>
</glyph>
<glyph name="P" format="2">
  <advance width="1348"/>
  <unicode hex="0050"/>
  <outline>
    <contour>
      <point x="364" y="0" type="line"/>
      <point x="364" y="728" type="line"/>
      <point x="657" y="728" type="line" smooth="yes"/>
      <point x="981" y="728"/>
      <point x="1170" y="915"/>
      <point x="1170" y="1189" type="curve" smooth="yes"/>
      <point x="1170" y="1463"/>
      <point x="981" y="1650"/>
      <point x="657" y="1650" type="curve" smooth="yes"/>
      <point x="288" y="1650" type="line"/>
      <point x="288" y="0" type="line"/>
    </contour>
    <contour>
      <point x="364" y="1585" type="line"/>
      <point x="650" y="1585" type="line" smooth="yes"/>
      <point x="931" y="1585"/>
      <point x="1097" y="1424"/>
      <point x="1097" y="1189" type="curve" smooth="yes"/>
      <point x="1097" y="954"/>
      <point x="931" y="793"/>
      <point x="650" y="793" type="curve" smooth="yes"/>
      <point x="364" y="793" type="line"/>
    </contour>
  </outline>
</glyph>
<glyph name="Q" format="2">
  <advance width="2010"/>
  <unicode hex="0051"/>
  <outline>
    <component base="O" xOffset="-39" yOffset="-1"/>
    <contour>
      <point x="1087" y="459" type="line"/>
      <point x="1283" y="247"/>
      <point x="1552" y="53"/>
      <point x="1820" y="-54" type="curve"/>
      <point x="1849" y="17" type="line"/>
      <point x="1590" y="110"/>
      <point x="1320" y="300"/>
      <point x="1127" y="493" type="curve"/>
    </contour>
  </outline>
</glyph>
<glyph name="R" format="2">
  <advance width="1349"/>
  <unicode hex="0052"/>
  <anchor x="674" y="0" name="bottom"/>
  <anchor x="674" y="1650" name="top"/>
  <outline>
    <contour>
      <point x="364" y="1585" type="line"/>
      <point x="650" y="1585" type="line" smooth="yes"/>
      <point x="933" y="1585"/>
      <point x="1097" y="1426"/>
      <point x="1097" y="1196" type="curve" smooth="yes"/>
      <point x="1097" y="966"/>
      <point x="933" y="807"/>
      <point x="650" y="807" type="curve" smooth="yes"/>
      <point x="364" y="807" type="line"/>
    </contour>
    <contour>
      <point x="364" y="0" type="line"/>
      <point x="364" y="740" type="line"/>
      <point x="592" y="740" type="line"/>
      <point x="1149" y="0" type="line"/>
      <point x="1246" y="0" type="line"/>
      <point x="684" y="743" type="line"/>
      <point x="957" y="748"/>
      <point x="1171" y="908"/>
      <point x="1171" y="1196" type="curve" smooth="yes"/>
      <point x="1171" y="1465"/>
      <point x="982" y="1650"/>
      <point x="657" y="1650" type="curve" smooth="yes"/>
      <point x="288" y="1650" type="line"/>
      <point x="288" y="0" type="line"/>
    </contour>
  </outline>
</glyph>
<glyph name="S" format="2">
  <advance width="1369"/>
  <unicode hex="0053"/>
  <anchor x="695" y="0" name="bottom"/>
  <anchor x="694" y="1661" name="top"/>
  <anchor x="727" y="0" name="cedilla"/>
  <outline>
    <contour>
      <point x="705" y="-32" type="curve" smooth="yes"/>
      <point x="958" y="-32"/>
      <point x="1188" y="128"/>
      <point x="1188" y="416" type="curve" smooth="yes"/>
      <point x="1188" y="648"/>
      <point x="1047" y="782"/>
      <point x="695" y="904" type="curve" smooth="yes"/>
      <point x="447" y="990"/>
      <point x="328" y="1109"/>
      <point x="328" y="1272" type="curve" smooth="yes"/>
      <point x="328" y="1447"/>
      <point x="456" y="1610"/>
      <point x="684" y="1610" type="curve" smooth="yes"/>
      <point x="866" y="1610"/>
      <point x="990" y="1507"/>
      <point x="1034" y="1409" type="curve"/>
      <point x="1091" y="1443" type="line"/>
      <point x="1039" y="1554"/>
      <point x="898" y="1680"/>
      <point x="687" y="1680" type="curve" smooth="yes"/>
      <point x="438" y="1680"/>
      <point x="258" y="1510"/>
      <point x="258" y="1274" type="curve" smooth="yes"/>
      <point x="258" y="1080"/>
      <point x="393" y="933"/>
      <point x="659" y="842" type="curve" smooth="yes"/>
      <point x="993" y="727"/>
      <point x="1114" y="613"/>
      <point x="1114" y="412" type="curve" smooth="yes"/>
      <point x="1114" y="167"/>
      <point x="909" y="37"/>
      <point x="700" y="37" type="curve" smooth="yes"/>
      <point x="484" y="37"/>
      <point x="292" y="172"/>
      <point x="219" y="349" type="curve"/>
      <point x="160" y="319" type="line"/>
      <point x="232" y="127"/>
      <point x="447" y="-32"/>
    </contour>
  </outline>
</glyph>
<glyph name="T" format="2">
  <advance width="1447"/>
  <unicode hex="0054"/>
  <anchor x="723" y="0" name="bottom"/>
  <anchor x="723" y="1650" name="top"/>
  <outline>
    <contour>
      <point x="761" y="0" type="line"/>
      <point x="761" y="1577" type="line"/>
      <point x="1303" y="1577" type="line"/>
      <point x="1303" y="1650" type="line"/>
      <point x="143" y="1650" type="line"/>
      <point x="143" y="1577" type="line"/>
      <point x="685" y="1577" type="line"/>
      <point x="685" y="0" type="line"/>
    </contour>
  </outline>
</glyph>
<glyph name="U" format="2">
  <advance width="1624"/>
  <unicode hex="0055"/>
  <anchor x="812" y="0" name="bottom"/>
  <anchor x="856" y="0" name="ogonek"/>
  <anchor x="812" y="1650" name="top"/>
  <outline>
    <contour>
      <point x="812" y="-32" type="curve" smooth="yes"/>
      <point x="1166" y="-32"/>
      <point x="1359" y="190"/>
      <point x="1359" y="594" type="curve" smooth="yes"/>
      <point x="1359" y="1650" type="line"/>
      <point x="1283" y="1650" type="line"/>
      <point x="1283" y="601" type="line" smooth="yes"/>
      <point x="1283" y="235"/>
      <point x="1122" y="44"/>
      <point x="812" y="44" type="curve" smooth="yes"/>
      <point x="502" y="44"/>
      <point x="341" y="235"/>
      <point x="341" y="601" type="curve" smooth="yes"/>
      <point x="341" y="1650" type="line"/>
      <point x="265" y="1650" type="line"/>
      <point x="265" y="594" type="line" smooth="yes"/>
      <point x="265" y="190"/>
      <point x="458" y="-32"/>
    </contour>
  </outline>
</glyph>
<glyph name="V" format="2">
  <advance width="1738"/>
  <unicode hex="0056"/>
  <anchor x="869" y="0" name="bottom"/>
  <anchor x="869" y="1650" name="top"/>
  <outline>
    <contour>
      <point x="899" y="0" type="line"/>
      <point x="1591" y="1650" type="line"/>
      <point x="1505" y="1650" type="line"/>
      <point x="869" y="114" type="line"/>
      <point x="233" y="1650" type="line"/>
      <point x="147" y="1650" type="line"/>
      <point x="839" y="0" type="line"/>
    </contour>
  </outline>
</glyph>
<glyph name="W" format="2">
  <advance width="2539"/>
  <unicode hex="0057"/>
  <anchor x="1269" y="0" name="bottom"/>
  <anchor x="1269" y="1650" name="top"/>
  <outline>
    <contour>
      <point x="739" y="0" type="line"/>
      <point x="1269" y="1510" type="line"/>
      <point x="1799" y="0" type="line"/>
      <point x="1887" y="0" type="line"/>
      <point x="2384" y="1650" type="line"/>
      <point x="2300" y="1650" type="line"/>
      <point x="1842" y="101" type="line"/>
      <point x="1301" y="1650" type="line"/>
      <point x="1237" y="1650" type="line"/>
      <point x="696" y="101" type="line"/>
      <point x="238" y="1650" type="line"/>
      <point x="154" y="1650" type="line"/>
      <point x="651" y="0" type="line"/>
    </contour>
  </outline>
</glyph>
<glyph name="X" format="2">
  <advance width="1644"/>
  <unicode hex="0058"/>
  <outline>
    <contour>
      <point x="237" y="0" type="line"/>
      <point x="822" y="825" type="line"/>
      <point x="1407" y="0" type="line"/>
      <point x="1504" y="0" type="line"/>
      <point x="870" y="892" type="line"/>
      <point x="1407" y="1650" type="line"/>
      <point x="1313" y="1650" type="line"/>
      <point x="822" y="958" type="line"/>
      <point x="331" y="1650" type="line"/>
      <point x="237" y="1650" type="line"/>
      <point x="774" y="892" type="line"/>
      <point x="140" y="0" type="line"/>
    </contour>
  </outline>
</glyph>
<glyph name="Y" format="2">
  <advance width="1464"/>
  <unicode hex="0059"/>
  <anchor x="732" y="0" name="bottom"/>
  <anchor x="732" y="1650" name="top"/>
  <outline>
    <contour>
      <point x="770" y="0" type="line"/>
      <point x="770" y="706" type="line"/>
      <point x="1324" y="1650" type="line"/>
      <point x="1232" y="1650" type="line"/>
      <point x="732" y="794" type="line"/>
      <point x="232" y="1650" type="line"/>
      <point x="140" y="1650" type="line"/>
      <point x="694" y="706" type="line"/>
      <point x="694" y="0" type="line"/>
    </contour>
  </outline>
</glyph>
<glyph name="Z" format="2">
  <advance width="1604"/>
  <unicode hex="005A"/>
  <anchor x="802" y="0" name="bottom"/>
  <anchor x="802" y="825" name="center"/>
  <anchor x="802" y="1650" name="top"/>
  <outline>
    <contour>
      <point x="1400" y="0" type="line"/>
      <point x="1400" y="73" type="line"/>
      <point x="289" y="73" type="line"/>
      <point x="1455" y="1650" type="line"/>
      <point x="255" y="1650" type="line"/>
      <point x="255" y="1577" type="line"/>
      <point x="1309" y="1577" type="line"/>
      <point x="143" y="0" type="line"/>
    </contour>
  </outline>
</glyph>
<glyph name="bracketleft" format="2">
  <advance width="759"/>
  <unicode hex="005B"/>
  <outline>
    <contour>
      <point x="621" y="-520" type="line"/>
      <point x="621" y="-453" type="line"/>
      <point x="349" y="-453" type="line"/>
      <point x="349" y="1653" type="line"/>
      <point x="621" y="1653" type="line"/>
      <point x="621" y="1720" type="line"/>
      <point x="277" y="1720" type="line"/>
      <point x="277" y="-520" type="line"/>
    </contour>
  </outline>
</glyph>
<glyph name="backslash" format="2">
  <advance width="1053"/>
  <unicode hex="005C"/>
  <outline>
    <contour>
      <point x="967" y="0" type="line"/>
      <point x="143" y="1720" type="line"/>
      <point x="86" y="1720" type="line"/>
      <point x="910" y="0" type="line"/>
    </contour>
  </outline>
</glyph>
<glyph name="asciicircum" format="2">
  <advance width="1301"/>
  <unicode hex="005E"/>
  <outline>
    <contour>
      <point x="282" y="1210" type="line"/>
      <point x="650" y="1632" type="line"/>
      <point x="1018" y="1210" type="line"/>
      <point x="1083" y="1210" type="line"/>
      <point x="669" y="1680" type="line"/>
      <point x="631" y="1680" type="line"/>
      <point x="217" y="1210" type="line"/>
    </contour>
  </outline>
</glyph>
<glyph name="a" format="2">
  <advance width="1180"/>
  <unicode hex="0061"/>
  <anchor x="589" y="0" name="bottom"/>
  <anchor x="1061" y="10" name="ogonek"/>
  <anchor x="589" y="1026" name="top"/>
  <outline>
    <contour>
      <point x="548" y="-32" type="curve" smooth="yes"/>
      <point x="694" y="-32"/>
      <point x="822" y="24"/>
      <point x="895" y="119" type="curve"/>
      <point x="895" y="0" type="line" name=".hr01"/>
      <point x="970" y="0" type="line"/>
      <point x="970" y="637" type="line" smooth="yes"/>
      <point x="970" y="897"/>
      <point x="815" y="1056"/>
      <point x="562" y="1056" type="curve" smooth="yes"/>
      <point x="414" y="1056"/>
      <point x="294" y="1002"/>
      <point x="205" y="896" type="curve"/>
      <point x="252" y="854" type="line"/>
      <point x="342" y="949"/>
      <point x="438" y="992"/>
      <point x="556" y="992" type="curve" smooth="yes"/>
      <point x="768" y="992"/>
      <point x="895" y="853"/>
      <point x="895" y="620" type="curve" smooth="yes"/>
      <point x="895" y="481" type="line"/>
      <point x="822" y="575"/>
      <point x="693" y="632"/>
      <point x="547" y="632" type="curve" smooth="yes"/>
      <point x="313" y="632"/>
      <point x="142" y="491"/>
      <point x="142" y="298" type="curve" smooth="yes"/>
      <point x="142" y="108"/>
      <point x="313" y="-32" name=".hr02"/>
    </contour>
    <contour>
      <point x="557" y="30" type="curve" smooth="yes"/>
      <point x="359" y="30"/>
      <point x="213" y="145"/>
      <point x="213" y="302" type="curve" smooth="yes"/>
      <point x="213" y="458"/>
      <point x="358" y="571"/>
      <point x="557" y="571" type="curve" smooth="yes"/>
      <point x="756" y="571"/>
      <point x="901" y="457"/>
      <point x="901" y="301" type="curve" smooth="yes"/>
      <point x="901" y="145"/>
      <point x="755" y="30"/>
    </contour>
  </outline>
</glyph>
<glyph name="b" format="2">
  <advance width="1430"/>
  <unicode hex="0062"/>
  <anchor x="715" y="0" name="bottom"/>
  <anchor x="715" y="1720" name="top"/>
  <outline>
    <contour>
      <point x="300" y="512" type="curve" smooth="yes"/>
      <point x="300" y="791"/>
      <point x="487" y="988"/>
      <point x="748" y="988" type="curve" smooth="yes"/>
      <point x="1009" y="988"/>
      <point x="1196" y="790"/>
      <point x="1196" y="512" type="curve" smooth="yes"/>
      <point x="1196" y="234"/>
      <point x="1009" y="36"/>
      <point x="748" y="36" type="curve" smooth="yes"/>
      <point x="487" y="36"/>
      <point x="300" y="234"/>
    </contour>
    <contour>
      <point x="231" y="1720" type="line"/>
      <point x="231" y="0" type="line"/>
      <point x="306" y="0" type="line" name=".hr01"/>
      <point x="306" y="253" type="line"/>
      <point x="391" y="75"/>
      <point x="559" y="-32"/>
      <point x="758" y="-32" type="curve" smooth="yes" name=".hr02"/>
      <point x="1051" y="-32"/>
      <point x="1270" y="198"/>
      <point x="1270" y="512" type="curve" smooth="yes"/>
      <point x="1270" y="826"/>
      <point x="1051" y="1056"/>
      <point x="758" y="1056" type="curve" smooth="yes"/>
      <point x="559" y="1056"/>
      <point x="391" y="949"/>
      <point x="306" y="771" type="curve"/>
      <point x="306" y="1720" type="line"/>
    </contour>
  </outline>
</glyph>
<glyph name="c" format="2">
  <advance width="1178"/>
  <unicode hex="0063"/>
  <anchor x="658" y="0" name="bottom"/>
  <anchor x="658" y="1024" name="top"/>
  <anchor x="690" y="0" name="cedilla"/>
  <outline>
    <contour>
      <point x="705" y="-32" type="curve" smooth="yes"/>
      <point x="840" y="-32"/>
      <point x="963" y="12"/>
      <point x="1058" y="87" type="curve"/>
      <point x="1015" y="136" type="line"/>
      <point x="932" y="69"/>
      <point x="826" y="35"/>
      <point x="709" y="35" type="curve" smooth="yes"/>
      <point x="427" y="35"/>
      <point x="229" y="239"/>
      <point x="229" y="512" type="curve" smooth="yes"/>
      <point x="229" y="788"/>
      <point x="429" y="989"/>
      <point x="708" y="989" type="curve" smooth="yes"/>
      <point x="826" y="989"/>
      <point x="932" y="955"/>
      <point x="1016" y="888" type="curve"/>
      <point x="1058" y="937" type="line"/>
      <point x="965" y="1012"/>
      <point x="840" y="1056"/>
      <point x="705" y="1056" type="curve" smooth="yes"/>
      <point x="395" y="1056"/>
      <point x="157" y="830"/>
      <point x="157" y="512" type="curve" smooth="yes"/>
      <point x="157" y="196"/>
      <point x="395" y="-32"/>
    </contour>
  </outline>
</glyph>
<glyph name="d" format="2">
  <advance width="1430"/>
  <unicode hex="0064"/>
  <anchor x="669" y="0" name="bottom"/>
  <anchor x="656" y="1281" name="top"/>
  <outline>
    <contour>
      <point x="234" y="512" type="curve" smooth="yes"/>
      <point x="234" y="790"/>
      <point x="421" y="988"/>
      <point x="682" y="988" type="curve" smooth="yes"/>
      <point x="943" y="988"/>
      <point x="1130" y="791"/>
      <point x="1130" y="512" type="curve" smooth="yes"/>
      <point x="1130" y="234"/>
      <point x="943" y="36"/>
      <point x="682" y="36" type="curve" smooth="yes"/>
      <point x="421" y="36"/>
      <point x="234" y="234"/>
    </contour>
    <contour>
      <point x="160" y="512" type="curve" smooth="yes"/>
      <point x="160" y="198"/>
      <point x="379" y="-32"/>
      <point x="672" y="-32" type="curve" smooth="yes"/>
      <point x="871" y="-32"/>
      <point x="1039" y="75"/>
      <point x="1124" y="253" type="curve"/>
      <point x="1124" y="0" type="line"/>
      <point x="1199" y="0" type="line" name=".hr01"/>
      <point x="1199" y="1720" type="line"/>
      <point x="1124" y="1720" type="line"/>
      <point x="1124" y="771" type="line"/>
      <point x="1039" y="949"/>
      <point x="871" y="1056"/>
      <point x="672" y="1056" type="curve" smooth="yes"/>
      <point x="379" y="1056"/>
      <point x="160" y="826"/>
    </contour>
  </outline>
</glyph>
<glyph name="e" format="2">
  <advance width="1353"/>
  <unicode hex="0065"/>
  <anchor x="707" y="0" name="bottom"/>
  <anchor x="718" y="0" name="ogonek"/>
  <anchor x="685" y="1026" name="top"/>
  <outline>
    <contour>
      <point x="705" y="-32" type="curve" smooth="yes"/>
      <point x="903" y="-32"/>
      <point x="1074" y="57"/>
      <point x="1171" y="213" type="curve"/>
      <point x="1114" y="248" type="line"/>
      <point x="1029" y="112"/>
      <point x="881" y="34"/>
      <point x="706" y="34" type="curve" smooth="yes"/>
      <point x="428" y="34"/>
      <point x="228" y="233"/>
      <point x="228" y="509" type="curve"/>
      <point x="1211" y="509" type="line"/>
      <point x="1212" y="517"/>
      <point x="1212" y="523"/>
      <point x="1212" y="530" type="curve"/>
      <point x="1209" y="801"/>
      <point x="991" y="1056"/>
      <point x="685" y="1056" type="curve" smooth="yes"/>
      <point x="397" y="1056"/>
      <point x="155" y="818"/>
      <point x="155" y="505" type="curve" smooth="yes"/>
      <point x="155" y="203"/>
      <point x="383" y="-32"/>
    </contour>
    <contour>
      <point x="231" y="567" type="line"/>
      <point x="253" y="809"/>
      <point x="449" y="992"/>
      <point x="685" y="992" type="curve" smooth="yes"/>
      <point x="920" y="992"/>
      <point x="1115" y="810"/>
      <point x="1138" y="567" type="curve"/>
    </contour>
  </outline>
</glyph>
<glyph name="f" format="2">
  <advance width="681"/>
  <unicode hex="0066"/>
  <anchor x="278" y="0" name="bottom"/>
  <anchor x="484" y="1720" name="top"/>
  <outline>
    <contour>
      <point x="316" y="0" type="line"/>
      <point x="316" y="968" type="line"/>
      <point x="586" y="968" type="line"/>
      <point x="586" y="1024" type="line"/>
      <point x="316" y="1024" type="line"/>
      <point x="316" y="1451" type="line" smooth="yes"/>
      <point x="316" y="1605"/>
      <point x="384" y="1685"/>
      <point x="486" y="1685" type="curve" smooth="yes"/>
      <point x="533" y="1685"/>
      <point x="586" y="1668"/>
      <point x="622" y="1617" type="curve"/>
      <point x="667" y="1656" type="line"/>
      <point x="614" y="1726"/>
      <point x="546" y="1750"/>
      <point x="477" y="1750" type="curve" smooth="yes"/>
      <point x="334" y="1750"/>
      <point x="241" y="1647"/>
      <point x="241" y="1441" type="curve" smooth="yes"/>
      <point x="241" y="1024" type="line"/>
      <point x="153" y="1024" type="line"/>
      <point x="153" y="968" type="line"/>
      <point x="241" y="968" type="line"/>
      <point x="241" y="0" type="line"/>
    </contour>
  </outline>
</glyph>
<glyph name="g" format="2">
  <advance width="1431"/>
  <unicode hex="0067"/>
  <anchor x="683" y="-520" name="bottom"/>
  <anchor x="683" y="1024" name="top"/>
  <outline>
    <contour>
      <point x="161" y="512" type="curve" smooth="yes"/>
      <point x="161" y="198"/>
      <point x="381" y="-32"/>
      <point x="673" y="-32" type="curve" smooth="yes"/>
      <point x="872" y="-32"/>
      <point x="1040" y="75"/>
      <point x="1125" y="253" type="curve"/>
      <point x="1125" y="-45" type="line" smooth="yes"/>
      <point x="1125" y="-329"/>
      <point x="926" y="-488"/>
      <point x="665" y="-488" type="curve" smooth="yes"/>
      <point x="454" y="-488"/>
      <point x="282" y="-385"/>
      <point x="215" y="-224" type="curve"/>
      <point x="148" y="-252" type="line"/>
      <point x="236" y="-446"/>
      <point x="413" y="-550"/>
      <point x="663" y="-550" type="curve" smooth="yes"/>
      <point x="980" y="-550"/>
      <point x="1200" y="-384"/>
      <point x="1200" y="-28" type="curve" smooth="yes"/>
      <point x="1200" y="1024" type="line"/>
      <point x="1125" y="1024" type="line"/>
      <point x="1125" y="771" type="line"/>
      <point x="1040" y="949"/>
      <point x="872" y="1056" name=".hr01"/>
      <point x="673" y="1056" type="curve" smooth="yes"/>
      <point x="381" y="1056"/>
      <point x="161" y="826"/>
    </contour>
    <contour>
      <point x="235" y="512" type="curve" smooth="yes"/>
      <point x="235" y="790"/>
      <point x="423" y="988"/>
      <point x="683" y="988" type="curve" smooth="yes"/>
      <point x="944" y="988"/>
      <point x="1131" y="791"/>
      <point x="1131" y="512" type="curve" smooth="yes"/>
      <point x="1131" y="234"/>
      <point x="944" y="36"/>
      <point x="683" y="36" type="curve" smooth="yes"/>
      <point x="423" y="36"/>
      <point x="235" y="234"/>
    </contour>
  </outline>
</glyph>
<glyph name="h" format="2">
  <advance width="1240"/>
  <unicode hex="0068"/>
  <anchor x="620" y="0" name="bottom"/>
  <anchor x="620" y="860" name="center"/>
  <anchor x="620" y="1720" name="top"/>
  <outline>
    <contour>
      <point x="306" y="0" type="line"/>
      <point x="306" y="695" type="line" smooth="yes"/>
      <point x="306" y="848"/>
      <point x="428" y="992"/>
      <point x="639" y="992" type="curve" smooth="yes"/>
      <point x="839" y="992"/>
      <point x="953" y="863"/>
      <point x="953" y="624" type="curve" smooth="yes"/>
      <point x="953" y="0" type="line"/>
      <point x="1028" y="0" type="line"/>
      <point x="1028" y="635" type="line" smooth="yes"/>
      <point x="1028" y="909"/>
      <point x="890" y="1056"/>
      <point x="651" y="1056" type="curve" smooth="yes"/>
      <point x="470" y="1056"/>
      <point x="351" y="972"/>
      <point x="306" y="873" type="curve"/>
      <point x="306" y="1720" type="line"/>
      <point x="231" y="1720" type="line"/>
      <point x="231" y="0" type="line"/>
    </contour>
  </outline>
</glyph>
<glyph name="i" format="2">
  <advance width="534"/>
  <unicode hex="0069"/>
  <anchor x="268" y="0" name="bottom"/>
  <anchor x="305" y="0" name="ogonek"/>
  <outline>
    <component base="idotless" xOffset="-1"/>
    <contour>
      <point x="267" y="1225" type="curve" smooth="yes"/>
      <point x="300" y="1225"/>
      <point x="324" y="1251"/>
      <point x="324" y="1283" type="curve" smooth="yes"/>
      <point x="324" y="1316"/>
      <point x="300" y="1340"/>
      <point x="267" y="1340" type="curve" smooth="yes"/>
      <point x="235" y="1340"/>
      <point x="209" y="1316"/>
      <point x="209" y="1283" type="curve" smooth="yes"/>
      <point x="209" y="1251"/>
      <point x="235" y="1225"/>
    </contour>
  </outline>
</glyph>
<glyph name="j" format="2">
  <advance width="538"/>
  <unicode hex="006A"/>
  <outline>
    <contour>
      <point x="71" y="-550" type="curve" smooth="yes"/>
      <point x="215" y="-550"/>
      <point x="307" y="-449"/>
      <point x="307" y="-248" type="curve" smooth="yes"/>
      <point x="307" y="1024" type="line"/>
      <point x="232" y="1024" type="line"/>
      <point x="232" y="-253" type="line" smooth="yes"/>
      <point x="232" y="-405"/>
      <point x="164" y="-485"/>
      <point x="62" y="-485" type="curve" smooth="yes"/>
      <point x="14" y="-485"/>
      <point x="-38" y="-468"/>
      <point x="-74" y="-417" type="curve"/>
      <point x="-119" y="-456" type="line"/>
      <point x="-67" y="-526"/>
      <point x="2" y="-550"/>
    </contour>
    <contour>
      <point x="270" y="1227" type="curve" smooth="yes"/>
      <point x="301" y="1227"/>
      <point x="327" y="1253"/>
      <point x="327" y="1285" type="curve" smooth="yes" name=".hr01"/>
      <point x="327" y="1317"/>
      <point x="301" y="1343"/>
      <point x="270" y="1343" type="curve" smooth="yes"/>
      <point x="238" y="1343"/>
      <point x="211" y="1317"/>
      <point x="211" y="1285" type="curve" smooth="yes"/>
      <point x="211" y="1253"/>
      <point x="238" y="1227"/>
    </contour>
  </outline>
</glyph>
<glyph name="k" format="2">
  <advance width="1017"/>
  <unicode hex="006B"/>
  <anchor x="508" y="0" name="bottom"/>
  <anchor x="508" y="1720" name="top"/>
  <outline>
    <contour>
      <point x="306" y="0" type="line"/>
      <point x="306" y="522" type="line"/>
      <point x="756" y="0" type="line"/>
      <point x="852" y="0" type="line"/>
      <point x="376" y="552" type="line"/>
      <point x="827" y="1024" type="line"/>
      <point x="728" y="1024" type="line"/>
      <point x="306" y="585" type="line"/>
      <point x="306" y="1720" type="line"/>
      <point x="231" y="1720" type="line"/>
      <point x="231" y="0" type="line"/>
    </contour>
  </outline>
</glyph>
<glyph name="m" format="2">
  <advance width="1821"/>
  <unicode hex="006D"/>
  <anchor x="1026" y="0" name="bottom"/>
  <anchor x="1010" y="1026" name="top"/>
  <outline>
    <contour>
      <point x="231" y="1024" type="line"/>
      <point x="231" y="0" type="line"/>
      <point x="306" y="0" type="line"/>
      <point x="306" y="636" type="line" smooth="yes"/>
      <point x="306" y="849"/>
      <point x="442" y="991" name=".hr01"/>
      <point x="614" y="991" type="curve" smooth="yes"/>
      <point x="775" y="991"/>
      <point x="882" y="866"/>
      <point x="882" y="666" type="curve" smooth="yes"/>
      <point x="882" y="0" type="line"/>
      <point x="957" y="0" type="line"/>
      <point x="957" y="636" type="line" smooth="yes"/>
      <point x="957" y="849"/>
      <point x="1093" y="991"/>
      <point x="1265" y="991" type="curve" smooth="yes"/>
      <point x="1427" y="991"/>
      <point x="1534" y="865"/>
      <point x="1534" y="647" type="curve" smooth="yes"/>
      <point x="1534" y="0" type="line"/>
      <point x="1609" y="0" type="line"/>
      <point x="1609" y="670" type="line" smooth="yes"/>
      <point x="1609" y="914"/>
      <point x="1469" y="1056"/>
      <point x="1276" y="1056" type="curve" smooth="yes"/>
      <point x="1110" y="1056"/>
      <point x="980" y="950"/>
      <point x="940" y="796" type="curve"/>
      <point x="904" y="957"/>
      <point x="784" y="1056"/>
      <point x="624" y="1056" type="curve" smooth="yes"/>
      <point x="478" y="1056"/>
      <point x="359" y="973"/>
      <point x="306" y="844" type="curve"/>
      <point x="306" y="1024" type="line" name=".hr02"/>
    </contour>
  </outline>
</glyph>
<glyph name="n" format="2">
  <advance width="1240"/>
  <unicode hex="006E"/>
  <anchor x="639" y="0" name="bottom"/>
  <anchor x="639" y="1015" name="top"/>
  <outline>
    <contour>
      <point x="306" y="0" type="line"/>
      <point x="306" y="616" type="line" smooth="yes"/>
      <point x="306" y="822"/>
      <point x="428" y="990"/>
      <point x="648" y="990" type="curve" smooth="yes"/>
      <point x="843" y="990"/>
      <point x="953" y="858"/>
      <point x="953" y="624" type="curve" smooth="yes"/>
      <point x="953" y="0" type="line"/>
      <point x="1028" y="0" type="line"/>
      <point x="1028" y="635" type="line" smooth="yes"/>
      <point x="1028" y="903"/>
      <point x="895" y="1056"/>
      <point x="664" y="1056" type="curve" smooth="yes"/>
      <point x="470" y="1056"/>
      <point x="351" y="946"/>
      <point x="306" y="828" type="curve"/>
      <point x="306" y="1024" type="line" name=".hr01"/>
      <point x="231" y="1024" type="line"/>
      <point x="231" y="0" type="line"/>
    </contour>
  </outline>
</glyph>
<glyph name="o" format="2">
  <advance width="1419"/>
  <unicode hex="006F"/>
  <anchor x="710" y="0" name="bottom"/>
  <anchor x="710" y="512" name="center"/>
  <anchor x="721" y="0" name="ogonek"/>
  <anchor x="710" y="1024" name="top"/>
  <outline>
    <contour>
      <point x="710" y="-32" type="curve" smooth="yes"/>
      <point x="1022" y="-32"/>
      <point x="1262" y="190"/>
      <point x="1262" y="512" type="curve" smooth="yes"/>
      <point x="1262" y="834"/>
      <point x="1022" y="1056"/>
      <point x="710" y="1056" type="curve" smooth="yes"/>
      <point x="398" y="1056"/>
      <point x="158" y="834"/>
      <point x="158" y="512" type="curve" smooth="yes"/>
      <point x="158" y="190"/>
      <point x="398" y="-32"/>
    </contour>
    <contour>
      <point x="710" y="39" type="curve" smooth="yes"/>
      <point x="434" y="39"/>
      <point x="234" y="237"/>
      <point x="234" y="512" type="curve" smooth="yes"/>
      <point x="234" y="787"/>
      <point x="434" y="985"/>
      <point x="710" y="985" type="curve" smooth="yes"/>
      <point x="986" y="985"/>
      <point x="1186" y="787"/>
      <point x="1186" y="512" type="curve" smooth="yes"/>
      <point x="1186" y="237"/>
      <point x="986" y="39"/>
    </contour>
  </outline>
</glyph>
<glyph name="p" format="2">
  <advance width="1430"/>
  <unicode hex="0070"/>
  <anchor x="748" y="0" name="bottom"/>
  <anchor x="748" y="1024" name="top"/>
  <outline>
    <contour>
      <point x="1196" y="512" type="curve" smooth="yes"/>
      <point x="1196" y="234"/>
      <point x="1009" y="36"/>
      <point x="748" y="36" type="curve" smooth="yes"/>
      <point x="487" y="36"/>
      <point x="300" y="234"/>
      <point x="300" y="512" type="curve" smooth="yes"/>
      <point x="300" y="791"/>
      <point x="487" y="988"/>
      <point x="748" y="988" type="curve" smooth="yes"/>
      <point x="1009" y="988"/>
      <point x="1196" y="790"/>
    </contour>
    <contour>
      <point x="1270" y="512" type="curve" smooth="yes"/>
      <point x="1270" y="826"/>
      <point x="1051" y="1056"/>
      <point x="758" y="1056" type="curve" smooth="yes"/>
      <point x="559" y="1056"/>
      <point x="391" y="949"/>
      <point x="306" y="771" type="curve"/>
      <point x="306" y="1024" type="line"/>
      <point x="231" y="1024" type="line"/>
      <point x="231" y="-520" type="line"/>
      <point x="306" y="-520" type="line"/>
      <point x="306" y="253" type="line"/>
      <point x="391" y="75"/>
      <point x="559" y="-32"/>
      <point x="758" y="-32" type="curve" smooth="yes"/>
      <point x="1051" y="-32"/>
      <point x="1270" y="198"/>
    </contour>
  </outline>
</glyph>
<glyph name="q" format="2">
  <advance width="1391"/>
  <unicode hex="0071"/>
  <anchor x="697" y="0" name="bottom"/>
  <anchor x="664" y="1024" name="top"/>
  <outline>
    <contour>
      <point x="216" y="512" type="curve" smooth="yes"/>
      <point x="216" y="790"/>
      <point x="403" y="988"/>
      <point x="664" y="988" type="curve" smooth="yes"/>
      <point x="925" y="988"/>
      <point x="1112" y="791"/>
      <point x="1112" y="512" type="curve" smooth="yes"/>
      <point x="1112" y="234"/>
      <point x="925" y="36"/>
      <point x="664" y="36" type="curve" smooth="yes"/>
      <point x="403" y="36"/>
      <point x="216" y="234"/>
    </contour>
    <contour>
      <point x="142" y="512" type="curve" smooth="yes"/>
      <point x="142" y="198"/>
      <point x="361" y="-32"/>
      <point x="654" y="-32" type="curve" smooth="yes"/>
      <point x="853" y="-32"/>
      <point x="1021" y="75"/>
      <point x="1106" y="253" type="curve"/>
      <point x="1106" y="-520" type="line"/>
      <point x="1181" y="-520" type="line"/>
      <point x="1181" y="1024" type="line"/>
      <point x="1106" y="1024" type="line" name=".hr01"/>
      <point x="1106" y="771" type="line"/>
      <point x="1021" y="949"/>
      <point x="853" y="1056"/>
      <point x="654" y="1056" type="curve" smooth="yes" name=".hr02"/>
      <point x="361" y="1056"/>
      <point x="142" y="826"/>
    </contour>
  </outline>
</glyph>
<glyph name="r" format="2">
  <advance width="845"/>
  <unicode hex="0072"/>
  <anchor x="424" y="0" name="bottom"/>
  <anchor x="475" y="1024" name="top"/>
  <outline>
    <contour>
      <point x="306" y="0" type="line"/>
      <point x="306" y="708" type="line" smooth="yes"/>
      <point x="306" y="859"/>
      <point x="427" y="990"/>
      <point x="599" y="990" type="curve" smooth="yes"/>
      <point x="644" y="990"/>
      <point x="694" y="981"/>
      <point x="732" y="966" type="curve"/>
      <point x="761" y="1030" type="line"/>
      <point x="719" y="1046"/>
      <point x="662" y="1056"/>
      <point x="605" y="1056" type="curve" smooth="yes"/>
      <point x="464" y="1056"/>
      <point x="363" y="994"/>
      <point x="306" y="866" type="curve"/>
      <point x="306" y="1024" type="line" name=".hr01"/>
      <point x="231" y="1024" type="line"/>
      <point x="231" y="0" type="line"/>
    </contour>
  </outline>
</glyph>
<glyph name="s" format="2">
  <advance width="977"/>
  <unicode hex="0073"/>
  <anchor x="491" y="0" name="bottom"/>
  <anchor x="475" y="1024" name="top"/>
  <outline>
    <contour>
      <point x="491" y="-32" type="curve" smooth="yes"/>
      <point x="692" y="-32"/>
      <point x="831" y="68"/>
      <point x="831" y="254" type="curve" smooth="yes"/>
      <point x="831" y="444"/>
      <point x="680" y="520"/>
      <point x="487" y="594" type="curve" smooth="yes"/>
      <point x="347" y="647"/>
      <point x="247" y="686"/>
      <point x="247" y="804" type="curve" smooth="yes"/>
      <point x="247" y="916"/>
      <point x="337" y="994"/>
      <point x="477" y="994" type="curve" smooth="yes"/>
      <point x="584" y="994"/>
      <point x="662" y="948"/>
      <point x="710" y="860" type="curve"/>
      <point x="761" y="889" type="line"/>
      <point x="708" y="996"/>
      <point x="604" y="1056"/>
      <point x="475" y="1056" type="curve" smooth="yes"/>
      <point x="299" y="1056"/>
      <point x="177" y="948"/>
      <point x="177" y="804" type="curve" smooth="yes"/>
      <point x="177" y="645"/>
      <point x="324" y="583"/>
      <point x="458" y="532" type="curve" smooth="yes"/>
      <point x="631" y="466"/>
      <point x="761" y="406"/>
      <point x="761" y="255" type="curve" smooth="yes"/>
      <point x="761" y="103"/>
      <point x="633" y="31"/>
      <point x="488" y="31" type="curve" smooth="yes"/>
      <point x="355" y="31"/>
      <point x="241" y="86"/>
      <point x="178" y="215" type="curve"/>
      <point x="126" y="187" type="line"/>
      <point x="200" y="28"/>
      <point x="340" y="-32"/>
    </contour>
  </outline>
</glyph>
<glyph name="t" format="2">
  <advance width="695"/>
  <unicode hex="0074"/>
  <anchor x="435" y="0" name="bottom"/>
  <anchor x="348" y="513" name="center"/>
  <anchor x="359" y="1406" name="top"/>
  <anchor x="669" y="1024" name="topright"/>
  <outline>
    <contour>
      <point x="440" y="-32" type="curve" smooth="yes"/>
      <point x="502" y="-32"/>
      <point x="561" y="-10"/>
      <point x="595" y="19" type="curve"/>
      <point x="561" y="66" type="line"/>
      <point x="534" y="45"/>
      <point x="492" y="33"/>
      <point x="454" y="33" type="curve" smooth="yes"/>
      <point x="362" y="33"/>
      <point x="311" y="104"/>
      <point x="311" y="232" type="curve" smooth="yes"/>
      <point x="311" y="968" type="line"/>
      <point x="579" y="968" type="line"/>
      <point x="579" y="1024" type="line"/>
      <point x="311" y="1024" type="line"/>
      <point x="311" y="1406" type="line"/>
      <point x="236" y="1406" type="line"/>
      <point x="236" y="1024" type="line"/>
      <point x="146" y="1024" type="line"/>
      <point x="146" y="968" type="line"/>
      <point x="236" y="968" type="line"/>
      <point x="236" y="231" type="line" smooth="yes"/>
      <point x="236" y="63"/>
      <point x="311" y="-32"/>
    </contour>
  </outline>
</glyph>
<glyph name="u" format="2">
  <advance width="1211"/>
  <unicode hex="0075"/>
  <anchor x="605" y="0" name="bottom"/>
  <anchor x="617" y="0" name="ogonek"/>
  <anchor x="605" y="1024" name="top"/>
  <outline>
    <contour>
      <point x="606" y="-32" type="curve" smooth="yes"/>
      <point x="879" y="-32"/>
      <point x="997" y="106"/>
      <point x="997" y="423" type="curve" smooth="yes"/>
      <point x="997" y="1024" type="line"/>
      <point x="922" y="1024" type="line"/>
      <point x="922" y="429" type="line" smooth="yes"/>
      <point x="922" y="147"/>
      <point x="833" y="35"/>
      <point x="606" y="35" type="curve" smooth="yes"/>
      <point x="378" y="35"/>
      <point x="289" y="147"/>
      <point x="289" y="429" type="curve" smooth="yes"/>
      <point x="289" y="1024" type="line"/>
      <point x="214" y="1024" type="line"/>
      <point x="214" y="423" type="line" smooth="yes"/>
      <point x="214" y="106"/>
      <point x="332" y="-32"/>
    </contour>
  </outline>
</glyph>
<glyph name="v" format="2">
  <advance width="1202"/>
  <unicode hex="0076"/>
  <anchor x="601" y="0" name="bottom"/>
  <anchor x="601" y="1026" name="top"/>
  <outline>
    <contour>
      <point x="626" y="0" type="line"/>
      <point x="1103" y="1024" type="line"/>
      <point x="1017" y="1024" type="line"/>
      <point x="601" y="121" type="line"/>
      <point x="185" y="1024" type="line"/>
      <point x="99" y="1024" type="line"/>
      <point x="577" y="0" type="line"/>
    </contour>
  </outline>
</glyph>
<glyph name="w" format="2">
  <advance width="1948"/>
  <unicode hex="0077"/>
  <anchor x="974" y="0" name="bottom"/>
  <anchor x="974" y="1026" name="top"/>
  <outline>
    <contour>
      <point x="626" y="0" type="line"/>
      <point x="974" y="889" type="line"/>
      <point x="1322" y="0" type="line"/>
      <point x="1371" y="0" type="line"/>
      <point x="1849" y="1024" type="line"/>
      <point x="1763" y="1024" type="line"/>
      <point x="1347" y="121" type="line"/>
      <point x="998" y="1024" type="line"/>
      <point x="950" y="1024" type="line"/>
      <point x="600" y="121" type="line"/>
      <point x="184" y="1024" type="line"/>
      <point x="99" y="1024" type="line"/>
      <point x="577" y="0" type="line"/>
    </contour>
  </outline>
</glyph>
<glyph name="x" format="2">
  <advance width="1154"/>
  <unicode hex="0078"/>
  <anchor x="577" y="0" name="bottom"/>
  <anchor x="577" y="1024" name="top"/>
  <outline>
    <contour>
      <point x="180" y="0" type="line"/>
      <point x="577" y="485" type="line"/>
      <point x="974" y="0" type="line"/>
      <point x="1060" y="0" type="line"/>
      <point x="630" y="525" type="line"/>
      <point x="1003" y="1024" type="line"/>
      <point x="919" y="1024" type="line"/>
      <point x="577" y="572" type="line"/>
      <point x="235" y="1024" type="line"/>
      <point x="151" y="1024" type="line"/>
      <point x="524" y="525" type="line"/>
      <point x="94" y="0" type="line"/>
    </contour>
  </outline>
</glyph>
<glyph name="y" format="2">
  <advance width="1219"/>
  <unicode hex="0079"/>
  <anchor x="611" y="0" name="bottom"/>
  <anchor x="610" y="1024" name="top"/>
  <outline>
    <contour>
      <point x="450" y="-520" type="line"/>
      <point x="1119" y="1024" type="line"/>
      <point x="1036" y="1024" type="line"/>
      <point x="627" y="65" type="line"/>
      <point x="182" y="1024" type="line"/>
      <point x="99" y="1024" type="line"/>
      <point x="586" y="-20" type="line"/>
      <point x="368" y="-520" type="line"/>
    </contour>
  </outline>
</glyph>
<glyph name="z" format="2">
  <advance width="1203"/>
  <unicode hex="007A"/>
  <anchor x="601" y="0" name="bottom"/>
  <anchor x="601" y="1024" name="top"/>
  <outline>
    <contour>
      <point x="1077" y="0" type="line"/>
      <point x="1077" y="69" type="line"/>
      <point x="251" y="69" type="line"/>
      <point x="1095" y="1024" type="line"/>
      <point x="172" y="1024" type="line"/>
      <point x="172" y="955" type="line"/>
      <point x="939" y="955" type="line"/>
      <point x="98" y="0" type="line"/>
    </contour>
  </outline>
</glyph>
<glyph name="braceleft" format="2">
  <advance width="768"/>
  <unicode hex="007B"/>
  <outline>
    <contour>
      <point x="627" y="-520" type="line"/>
      <point x="627" y="-452" type="line"/>
      <point x="593" y="-452" type="line" smooth="yes"/>
      <point x="418" y="-452"/>
      <point x="340" y="-345"/>
      <point x="340" y="-156" type="curve" smooth="yes"/>
      <point x="340" y="516" type="line" smooth="yes"/>
      <point x="340" y="560"/>
      <point x="329" y="587"/>
      <point x="306" y="601" type="curve"/>
      <point x="329" y="614"/>
      <point x="340" y="641"/>
      <point x="340" y="685" type="curve" smooth="yes"/>
      <point x="340" y="1357" type="line" smooth="yes"/>
      <point x="340" y="1545"/>
      <point x="418" y="1652"/>
      <point x="593" y="1652" type="curve" smooth="yes"/>
      <point x="627" y="1652" type="line"/>
      <point x="627" y="1720" type="line"/>
      <point x="586" y="1720" type="line" smooth="yes"/>
      <point x="330" y="1720"/>
      <point x="268" y="1524"/>
      <point x="268" y="1359" type="curve" smooth="yes"/>
      <point x="268" y="718" type="line" smooth="yes"/>
      <point x="268" y="654"/>
      <point x="246" y="629"/>
      <point x="197" y="629" type="curve"/>
      <point x="197" y="572" type="line"/>
      <point x="246" y="572"/>
      <point x="268" y="547"/>
      <point x="268" y="483" type="curve" smooth="yes"/>
      <point x="268" y="-158" type="line" smooth="yes"/>
      <point x="268" y="-324"/>
      <point x="330" y="-520"/>
      <point x="586" y="-520" type="curve" smooth="yes"/>
    </contour>
  </outline>
</glyph>
<glyph name="bar" format="2">
  <advance width="763"/>
  <unicode hex="007C"/>
  <outline>
    <contour>
      <point x="418" y="0" type="line"/>
      <point x="418" y="1720" type="line"/>
      <point x="346" y="1720" type="line"/>
      <point x="346" y="0" type="line"/>
    </contour>
  </outline>
</glyph>
<glyph name="asciitilde" format="2">
  <advance width="1535"/>
  <unicode hex="007E"/>
  <outline>
    <contour>
      <point x="284" y="767" type="curve"/>
      <point x="335" y="734" type="line"/>
      <point x="383" y="814"/>
      <point x="459" y="880"/>
      <point x="566" y="880" type="curve" smooth="yes"/>
      <point x="732" y="880"/>
      <point x="782" y="720"/>
      <point x="966" y="720" type="curve" smooth="yes"/>
      <point x="1079" y="720"/>
      <point x="1179" y="781"/>
      <point x="1248" y="897" type="curve"/>
      <point x="1198" y="930" type="line"/>
      <point x="1142" y="836"/>
      <point x="1059" y="784"/>
      <point x="965" y="784" type="curve" smooth="yes"/>
      <point x="800" y="784"/>
      <point x="750" y="944"/>
      <point x="565" y="944" type="curve" smooth="yes"/>
      <point x="437" y="944"/>
      <point x="343" y="867"/>
    </contour>
  </outline>
</glyph>
<glyph name="cent" format="2">
  <advance width="1416"/>
  <unicode hex="00A2"/>
  <outline>
    <component base="c" xOffset="108"/>
    <contour>
      <point x="736" y="1272" type="line"/>
      <point x="736" y="1022" type="line"/>
      <point x="791" y="1022" type="line"/>
      <point x="791" y="1272" type="line"/>
    </contour>
    <contour>
      <point x="781" y="0" type="line" name=".hr01"/>
      <point x="781" y="-258" type="line"/>
      <point x="838" y="-258" type="line"/>
      <point x="838" y="0" type="line"/>
    </contour>
  </outline>
</glyph>
<glyph name="sterling" format="2">
  <advance width="1770"/>
  <unicode hex="00A3"/>
  <outline>
    <contour>
      <point x="1168" y="-30" type="curve" smooth="yes"/>
      <point x="1365" y="-30"/>
      <point x="1502" y="109"/>
      <point x="1530" y="278" type="curve"/>
      <point x="1464" y="310" type="line"/>
      <point x="1448" y="176"/>
      <point x="1352" y="37"/>
      <point x="1171" y="37" type="curve" smooth="yes"/>
      <point x="972" y="37"/>
      <point x="829" y="211"/>
      <point x="644" y="212" type="curve"/>
      <point x="680" y="295"/>
      <point x="694" y="378"/>
      <point x="694" y="445" type="curve" smooth="yes"/>
      <point x="694" y="526"/>
      <point x="674" y="581"/>
      <point x="640" y="640" type="curve"/>
      <point x="1154" y="640" type="line"/>
      <point x="1154" y="695" type="line"/>
      <point x="613" y="695" type="line"/>
      <point x="542" y="813"/>
      <point x="450" y="933"/>
      <point x="450" y="1139" type="curve" smooth="yes"/>
      <point x="450" y="1424"/>
      <point x="628" y="1619"/>
      <point x="913" y="1619" type="curve" smooth="yes"/>
      <point x="1205" y="1619"/>
      <point x="1351" y="1416"/>
      <point x="1386" y="1236" type="curve"/>
      <point x="1452" y="1255" type="line"/>
      <point x="1392" y="1529"/>
      <point x="1169" y="1680"/>
      <point x="911" y="1680" type="curve" smooth="yes"/>
      <point x="602" y="1680"/>
      <point x="379" y="1465"/>
      <point x="379" y="1140" type="curve" smooth="yes"/>
      <point x="379" y="943"/>
      <point x="461" y="812"/>
      <point x="543" y="695" type="curve"/>
      <point x="241" y="695" type="line"/>
      <point x="241" y="640" type="line"/>
      <point x="576" y="640" type="line"/>
      <point x="607" y="586"/>
      <point x="632" y="530"/>
      <point x="632" y="444" type="curve" smooth="yes"/>
      <point x="632" y="362"/>
      <point x="611" y="274"/>
      <point x="586" y="212" type="curve"/>
      <point x="431" y="201"/>
      <point x="314" y="101"/>
      <point x="303" y="0" type="curve"/>
      <point x="372" y="0" type="line"/>
      <point x="387" y="90"/>
      <point x="505" y="152"/>
      <point x="619" y="152" type="curve" smooth="yes"/>
      <point x="817" y="152"/>
      <point x="941" y="-30"/>
    </contour>
  </outline>
</glyph>
<glyph name="currency" format="2">
  <advance width="1221"/>
  <unicode hex="00A4"/>
  <outline>
    <contour>
      <point x="310" y="323" type="line"/>
      <point x="389" y="251"/>
      <point x="494" y="208"/>
      <point x="611" y="208" type="curve" smooth="yes"/>
      <point x="727" y="208"/>
      <point x="832" y="251"/>
      <point x="911" y="323" type="curve"/>
      <point x="1045" y="189" type="line"/>
      <point x="1081" y="225" type="line"/>
      <point x="947" y="359" type="line"/>
      <point x="1019" y="438"/>
      <point x="1062" y="543"/>
      <point x="1062" y="660" type="curve" smooth="yes"/>
      <point x="1062" y="776"/>
      <point x="1019" y="881"/>
      <point x="947" y="960" type="curve"/>
      <point x="1081" y="1094" type="line"/>
      <point x="1045" y="1130" type="line"/>
      <point x="911" y="996" type="line"/>
      <point x="832" y="1068"/>
      <point x="727" y="1111"/>
      <point x="611" y="1111" type="curve" smooth="yes"/>
      <point x="494" y="1111"/>
      <point x="389" y="1068"/>
      <point x="310" y="996" type="curve"/>
      <point x="176" y="1130" type="line"/>
      <point x="140" y="1094" type="line"/>
      <point x="274" y="960" type="line"/>
      <point x="202" y="881"/>
      <point x="159" y="776"/>
      <point x="159" y="660" type="curve" smooth="yes"/>
      <point x="159" y="543"/>
      <point x="202" y="438"/>
      <point x="274" y="359" type="curve"/>
      <point x="140" y="225" type="line"/>
      <point x="176" y="189" type="line"/>
    </contour>
    <contour>
      <point x="611" y="266" type="curve" smooth="yes"/>
      <point x="392" y="266"/>
      <point x="217" y="441"/>
      <point x="217" y="660" type="curve" smooth="yes"/>
      <point x="217" y="878"/>
      <point x="392" y="1053"/>
      <point x="611" y="1053" type="curve" smooth="yes"/>
      <point x="829" y="1053"/>
      <point x="1004" y="878"/>
      <point x="1004" y="660" type="curve" smooth="yes"/>
      <point x="1004" y="441"/>
      <point x="829" y="266"/>
    </contour>
  </outline>
</glyph>
<glyph name="yen" format="2">
  <advance width="1630"/>
  <unicode hex="00A5"/>
  <outline>
    <component base="Y" xOffset="82"/>
    <contour>
      <point x="391" y="750" type="line"/>
      <point x="391" y="690" type="line"/>
      <point x="1238" y="690" type="line"/>
      <point x="1238" y="750" type="line"/>
    </contour>
    <contour>
      <point x="391" y="411" type="line"/>
      <point x="391" y="351" type="line"/>
      <point x="1238" y="351" type="line"/>
      <point x="1238" y="411" type="line"/>
    </contour>
  </outline>
</glyph>
<glyph name="brokenbar" format="2">
  <advance width="763"/>
  <unicode hex="00A6"/>
  <outline>
    <contour>
      <point x="418" y="1056" type="line"/>
      <point x="418" y="1720" type="line"/>
      <point x="346" y="1720" type="line"/>
      <point x="346" y="1056" type="line"/>
    </contour>
    <contour>
      <point x="418" y="0" type="line"/>
      <point x="418" y="664" type="line"/>
      <point x="346" y="664" type="line"/>
      <point x="346" y="0" type="line"/>
    </contour>
  </outline>
</glyph>
<glyph name="section" format="2">
  <advance width="1489"/>
  <unicode hex="00A7"/>
  <outline>
    <contour>
      <point x="761" y="-550" type="curve" smooth="yes"/>
      <point x="1028" y="-550"/>
      <point x="1238" y="-371"/>
      <point x="1238" y="-105" type="curve" smooth="yes"/>
      <point x="1238" y="39"/>
      <point x="1177" y="151"/>
      <point x="1049" y="241" type="curve"/>
      <point x="1161" y="288"/>
      <point x="1236" y="399"/>
      <point x="1237" y="514" type="curve"/>
      <point x="1237" y="740"/>
      <point x="952" y="838"/>
      <point x="761" y="911" type="curve" smooth="yes"/>
      <point x="582" y="979"/>
      <point x="394" y="1048"/>
      <point x="394" y="1261" type="curve" smooth="yes"/>
      <point x="394" y="1453"/>
      <point x="544" y="1608"/>
      <point x="744" y="1608" type="curve" smooth="yes"/>
      <point x="895" y="1608"/>
      <point x="1034" y="1521"/>
      <point x="1079" y="1403" type="curve"/>
      <point x="1148" y="1429" type="line"/>
      <point x="1091" y="1568"/>
      <point x="938" y="1680"/>
      <point x="744" y="1680" type="curve" smooth="yes"/>
      <point x="502" y="1680"/>
      <point x="316" y="1503"/>
      <point x="316" y="1260" type="curve" smooth="yes"/>
      <point x="316" y="1124"/>
      <point x="375" y="1022"/>
      <point x="496" y="942" type="curve"/>
      <point x="391" y="902"/>
      <point x="315" y="789"/>
      <point x="315" y="670" type="curve"/>
      <point x="314" y="467"/>
      <point x="531" y="377"/>
      <point x="705" y="311" type="curve" smooth="yes"/>
      <point x="971" y="211"/>
      <point x="1158" y="130"/>
      <point x="1158" y="-105" type="curve" smooth="yes"/>
      <point x="1158" y="-334"/>
      <point x="984" y="-478"/>
      <point x="761" y="-478" type="curve" smooth="yes"/>
      <point x="551" y="-478"/>
      <point x="354" y="-350"/>
      <point x="286" y="-165" type="curve"/>
      <point x="219" y="-191" type="line"/>
      <point x="266" y="-352"/>
      <point x="480" y="-550"/>
    </contour>
    <contour>
      <point x="986" y="274" type="curve"/>
      <point x="891" y="325"/>
      <point x="876" y="334"/>
      <point x="739" y="383" type="curve" smooth="yes"/>
      <point x="517" y="463"/>
      <point x="402" y="523"/>
      <point x="402" y="669" type="curve" smooth="yes"/>
      <point x="402" y="788"/>
      <point x="478" y="885"/>
      <point x="559" y="911" type="curve"/>
      <point x="632" y="876"/>
      <point x="658" y="864"/>
      <point x="721" y="842" type="curve" smooth="yes"/>
      <point x="1044" y="729"/>
      <point x="1150" y="644"/>
      <point x="1150" y="510" type="curve" smooth="yes"/>
      <point x="1150" y="403"/>
      <point x="1079" y="307"/>
    </contour>
  </outline>
</glyph>
<glyph name="copyright" format="2">
  <advance width="2170"/>
  <unicode hex="00A9"/>
  <outline>
    <component base="c" xScale="0.984" yScale="0.984" xOffset="414" yOffset="318"/>
    <contour>
      <point x="1084" y="-32" type="curve" smooth="yes"/>
      <point x="1555" y="-32"/>
      <point x="1921" y="340"/>
      <point x="1921" y="820" type="curve" smooth="yes"/>
      <point x="1921" y="1301"/>
      <point x="1552" y="1680"/>
      <point x="1084" y="1680" type="curve" smooth="yes"/>
      <point x="619" y="1680"/>
      <point x="250" y="1299"/>
      <point x="250" y="820" type="curve" smooth="yes"/>
      <point x="250" y="337"/>
      <point x="611" y="-32"/>
    </contour>
    <contour>
      <point x="1084" y="33" type="curve" smooth="yes"/>
      <point x="650" y="33"/>
      <point x="321" y="372"/>
      <point x="321" y="820" type="curve" smooth="yes"/>
      <point x="321" y="1263"/>
      <point x="659" y="1615"/>
      <point x="1084" y="1615" type="curve" smooth="yes"/>
      <point x="1512" y="1615"/>
      <point x="1850" y="1264"/>
      <point x="1850" y="820" type="curve" smooth="yes"/>
      <point x="1850" y="376"/>
      <point x="1517" y="33"/>
    </contour>
  </outline>
</glyph>
<glyph name="ordfeminine" format="2">
  <advance width="1049"/>
  <unicode hex="00AA"/>
  <outline>
    <contour>
      <point x="493" y="1008" type="curve" smooth="yes"/>
      <point x="617" y="1008"/>
      <point x="721" y="1076"/>
      <point x="771" y="1184" type="curve"/>
      <point x="771" y="1028" type="line"/>
      <point x="817" y="1028" type="line"/>
      <point x="817" y="1660" type="line"/>
      <point x="771" y="1660" type="line"/>
      <point x="771" y="1504" type="line"/>
      <point x="721" y="1613"/>
      <point x="617" y="1680"/>
      <point x="494" y="1680" type="curve" smooth="yes"/>
      <point x="313" y="1680"/>
      <point x="176" y="1539"/>
      <point x="176" y="1344" type="curve" smooth="yes"/>
      <point x="176" y="1146"/>
      <point x="314" y="1008"/>
    </contour>
    <contour>
      <point x="498" y="1048" type="curve" smooth="yes"/>
      <point x="338" y="1048"/>
      <point x="222" y="1174"/>
      <point x="222" y="1344" type="curve" smooth="yes"/>
      <point x="222" y="1516"/>
      <point x="339" y="1640"/>
      <point x="498" y="1640" type="curve" smooth="yes"/>
      <point x="656" y="1640"/>
      <point x="771" y="1516"/>
      <point x="771" y="1344" type="curve" smooth="yes"/>
      <point x="771" y="1174"/>
      <point x="657" y="1048"/>
    </contour>
  </outline>
</glyph>
<glyph name="guillemetleft" format="2">
  <advance width="1059"/>
  <unicode hex="00AB"/>
  <outline>
    <contour>
      <point x="596" y="99" type="line"/>
      <point x="239" y="556" type="line"/>
      <point x="596" y="1014" type="line"/>
      <point x="542" y="1056" type="line"/>
      <point x="152" y="556" type="line"/>
      <point x="542" y="56" type="line"/>
    </contour>
    <contour>
      <point x="895" y="99" type="line"/>
      <point x="538" y="556" type="line"/>
      <point x="895" y="1014" type="line"/>
      <point x="841" y="1056" type="line"/>
      <point x="451" y="556" type="line"/>
      <point x="841" y="56" type="line"/>
    </contour>
  </outline>
</glyph>
<glyph name="logicalnot" format="2">
  <advance width="1471"/>
  <unicode hex="00AC"/>
  <outline>
    <contour>
      <point x="1248" y="316" type="line"/>
      <point x="1248" y="860" type="line"/>
      <point x="224" y="860" type="line"/>
      <point x="224" y="796" type="line"/>
      <point x="1184" y="796" type="line"/>
      <point x="1184" y="316" type="line"/>
    </contour>
  </outline>
</glyph>
<glyph name="registered" format="2">
  <advance width="1440"/>
  <unicode hex="00AE"/>
  <outline>
    <component base="R" xScale="0.3659" yScale="0.3659" xOffset="458" yOffset="929"/>
    <contour>
      <point x="720" y="769" type="curve" smooth="yes"/>
      <point x="973" y="769"/>
      <point x="1181" y="979"/>
      <point x="1181" y="1231" type="curve" smooth="yes"/>
      <point x="1181" y="1483"/>
      <point x="973" y="1693"/>
      <point x="720" y="1693" type="curve" smooth="yes"/>
      <point x="467" y="1693"/>
      <point x="259" y="1483"/>
      <point x="259" y="1231" type="curve" smooth="yes"/>
      <point x="259" y="979"/>
      <point x="467" y="769"/>
    </contour>
    <contour>
      <point x="720" y="806" type="curve" smooth="yes"/>
      <point x="486" y="806"/>
      <point x="296" y="998"/>
      <point x="296" y="1231" type="curve" smooth="yes"/>
      <point x="296" y="1464"/>
      <point x="486" y="1656"/>
      <point x="720" y="1656" type="curve" smooth="yes"/>
      <point x="954" y="1656"/>
      <point x="1144" y="1464"/>
      <point x="1144" y="1231" type="curve" smooth="yes"/>
      <point x="1144" y="998"/>
      <point x="954" y="806"/>
    </contour>
  </outline>
</glyph>
<glyph name="degree" format="2">
  <advance width="1027"/>
  <unicode hex="00B0"/>
  <outline>
    <contour>
      <point x="513" y="1338" type="curve" smooth="yes"/>
      <point x="633" y="1338"/>
      <point x="718" y="1424"/>
      <point x="718" y="1544" type="curve" smooth="yes"/>
      <point x="718" y="1666"/>
      <point x="628" y="1750"/>
      <point x="513" y="1750" type="curve" smooth="yes"/>
      <point x="400" y="1750"/>
      <point x="309" y="1666"/>
      <point x="309" y="1543" type="curve" smooth="yes"/>
      <point x="309" y="1426"/>
      <point x="389" y="1338"/>
    </contour>
    <contour>
      <point x="514" y="1390" type="curve" smooth="yes"/>
      <point x="423" y="1390"/>
      <point x="363" y="1452"/>
      <point x="363" y="1542" type="curve" smooth="yes"/>
      <point x="363" y="1635"/>
      <point x="427" y="1698"/>
      <point x="513" y="1698" type="curve" smooth="yes"/>
      <point x="596" y="1698"/>
      <point x="664" y="1637"/>
      <point x="664" y="1543" type="curve" smooth="yes"/>
      <point x="664" y="1453"/>
      <point x="604" y="1390"/>
    </contour>
  </outline>
</glyph>
<glyph name="plusminus" format="2">
  <advance width="1502"/>
  <unicode hex="00B1"/>
  <outline>
    <contour>
      <point x="783" y="322" type="line"/>
      <point x="783" y="799" type="line"/>
      <point x="1263" y="799" type="line"/>
      <point x="1263" y="863" type="line"/>
      <point x="783" y="863" type="line"/>
      <point x="783" y="1340" type="line"/>
      <point x="719" y="1340" type="line"/>
      <point x="719" y="863" type="line"/>
      <point x="239" y="863" type="line"/>
      <point x="239" y="799" type="line"/>
      <point x="719" y="799" type="line"/>
      <point x="719" y="322" type="line"/>
    </contour>
    <contour>
      <point x="1263" y="0" type="line"/>
      <point x="1263" y="64" type="line"/>
      <point x="239" y="64" type="line"/>
      <point x="239" y="0" type="line"/>
    </contour>
  </outline>
</glyph>
<glyph name="twosuperior" format="2">
  <advance width="969"/>
  <unicode hex="00B2"/>
  <outline>
    <contour>
      <point x="708" y="1026" type="line"/>
      <point x="708" y="1071" type="line"/>
      <point x="351" y="1071" type="line"/>
      <point x="621" y="1274"/>
      <point x="696" y="1361"/>
      <point x="696" y="1472" type="curve" smooth="yes"/>
      <point x="696" y="1598"/>
      <point x="599" y="1680"/>
      <point x="484" y="1680" type="curve" smooth="yes"/>
      <point x="367" y="1680"/>
      <point x="274" y="1594"/>
      <point x="267" y="1478" type="curve"/>
      <point x="313" y="1465" type="line"/>
      <point x="318" y="1559"/>
      <point x="391" y="1634"/>
      <point x="485" y="1634" type="curve" smooth="yes"/>
      <point x="573" y="1634"/>
      <point x="641" y="1569"/>
      <point x="641" y="1478" type="curve" smooth="yes"/>
      <point x="641" y="1367"/>
      <point x="539" y="1254"/>
      <point x="259" y="1058" type="curve"/>
      <point x="259" y="1026" type="line"/>
    </contour>
  </outline>
</glyph>
<glyph name="threesuperior" format="2">
  <advance width="912"/>
  <unicode hex="00B3"/>
  <outline>
    <contour>
      <point x="459" y="1026" type="curve" smooth="yes"/>
      <point x="581" y="1026"/>
      <point x="651" y="1101"/>
      <point x="651" y="1201" type="curve" smooth="yes"/>
      <point x="651" y="1276"/>
      <point x="607" y="1341"/>
      <point x="538" y="1362" type="curve"/>
      <point x="599" y="1386"/>
      <point x="641" y="1447"/>
      <point x="641" y="1514" type="curve" smooth="yes"/>
      <point x="641" y="1604"/>
      <point x="567" y="1680"/>
      <point x="466" y="1680" type="curve" smooth="yes"/>
      <point x="371" y="1680"/>
      <point x="299" y="1612"/>
      <point x="294" y="1523" type="curve"/>
      <point x="336" y="1511" type="line"/>
      <point x="339" y="1583"/>
      <point x="396" y="1636"/>
      <point x="467" y="1636" type="curve" smooth="yes"/>
      <point x="535" y="1636"/>
      <point x="592" y="1582"/>
      <point x="592" y="1511" type="curve" smooth="yes"/>
      <point x="592" y="1438"/>
      <point x="532" y="1379"/>
      <point x="456" y="1379" type="curve" smooth="yes"/>
      <point x="436" y="1379" type="line"/>
      <point x="436" y="1340" type="line"/>
      <point x="440" y="1342"/>
      <point x="450" y="1343"/>
      <point x="459" y="1343" type="curve" smooth="yes"/>
      <point x="533" y="1343"/>
      <point x="598" y="1280"/>
      <point x="598" y="1199" type="curve" smooth="yes"/>
      <point x="598" y="1129"/>
      <point x="549" y="1073"/>
      <point x="457" y="1073" type="curve" smooth="yes"/>
      <point x="366" y="1073"/>
      <point x="307" y="1129"/>
      <point x="307" y="1204" type="curve"/>
      <point x="259" y="1189" type="line"/>
      <point x="265" y="1100"/>
      <point x="337" y="1026"/>
    </contour>
  </outline>
</glyph>
<glyph name="micro" format="2">
  <advance width="1469"/>
  <unicode hex="00B5"/>
  <outline>
    <contour>
      <point x="430" y="-320" type="line"/>
      <point x="430" y="123" type="line"/>
      <point x="490" y="20"/>
      <point x="598" y="-32"/>
      <point x="751" y="-32" type="curve" smooth="yes"/>
      <point x="894" y="-32"/>
      <point x="1031" y="44"/>
      <point x="1077" y="151" type="curve"/>
      <point x="1077" y="0" type="line" name=".hr01"/>
      <point x="1152" y="0" type="line"/>
      <point x="1152" y="1024" type="line"/>
      <point x="1077" y="1024" type="line"/>
      <point x="1077" y="329" type="line" smooth="yes"/>
      <point x="1077" y="164"/>
      <point x="935" y="32" name=".hr02"/>
      <point x="756" y="32" type="curve" smooth="yes"/>
      <point x="540" y="32"/>
      <point x="430" y="158"/>
      <point x="430" y="404" type="curve" smooth="yes"/>
      <point x="430" y="1024" type="line"/>
      <point x="355" y="1024" type="line"/>
      <point x="355" y="444" type="line" smooth="yes"/>
      <point x="355" y="159"/>
      <point x="323" y="28"/>
      <point x="323" y="-320" type="curve"/>
    </contour>
  </outline>
</glyph>
<glyph name="paragraph" format="2">
  <advance width="1469"/>
  <unicode hex="00B6"/>
  <outline>
    <contour>
      <point x="1003" y="0" type="line"/>
      <point x="1003" y="1592" type="line"/>
      <point x="1057" y="1592" type="line"/>
      <point x="1057" y="0" type="line"/>
      <point x="1123" y="0" type="line"/>
      <point x="1123" y="1650" type="line"/>
      <point x="743" y="1650" type="line" smooth="yes"/>
      <point x="421" y="1650"/>
      <point x="235" y="1469"/>
      <point x="235" y="1198" type="curve" smooth="yes"/>
      <point x="235" y="930"/>
      <point x="421" y="728"/>
      <point x="743" y="728" type="curve" smooth="yes"/>
      <point x="937" y="728" type="line"/>
      <point x="937" y="0" type="line"/>
    </contour>
  </outline>
</glyph>
<glyph name="ordmasculine" format="2">
  <advance width="1023"/>
  <unicode hex="00BA"/>
  <outline>
    <contour>
      <point x="512" y="1008" type="curve" smooth="yes"/>
      <point x="703" y="1008"/>
      <point x="852" y="1146"/>
      <point x="852" y="1344" type="curve" smooth="yes"/>
      <point x="852" y="1544"/>
      <point x="703" y="1680"/>
      <point x="512" y="1680" type="curve" smooth="yes"/>
      <point x="318" y="1680"/>
      <point x="171" y="1544"/>
      <point x="171" y="1344" type="curve" smooth="yes"/>
      <point x="171" y="1146"/>
      <point x="318" y="1008"/>
    </contour>
    <contour>
      <point x="511" y="1049" type="curve" smooth="yes"/>
      <point x="342" y="1049"/>
      <point x="216" y="1171"/>
      <point x="216" y="1344" type="curve" smooth="yes"/>
      <point x="216" y="1514"/>
      <point x="340" y="1638"/>
      <point x="512" y="1638" type="curve" smooth="yes"/>
      <point x="681" y="1638"/>
      <point x="807" y="1514"/>
      <point x="807" y="1344" type="curve" smooth="yes"/>
      <point x="807" y="1173"/>
      <point x="681" y="1049"/>
    </contour>
  </outline>
</glyph>
<glyph name="AE" format="2">
  <advance width="1797"/>
  <unicode hex="00C6"/>
  <outline>
    <contour>
      <point x="827" y="1555" type="line"/>
      <point x="827" y="661" type="line"/>
      <point x="485" y="661" type="line"/>
    </contour>
    <contour>
      <point x="792" y="1651" type="line"/>
      <point x="149" y="0" type="line"/>
      <point x="230" y="0" type="line"/>
      <point x="459" y="593" type="line"/>
      <point x="827" y="593" type="line"/>
      <point x="827" y="0" type="line"/>
      <point x="1621" y="0" type="line"/>
      <point x="1621" y="68" type="line" name=".hr01"/>
      <point x="903" y="68" type="line"/>
      <point x="903" y="793" type="line"/>
      <point x="1597" y="793" type="line"/>
      <point x="1597" y="861" type="line"/>
      <point x="903" y="861" type="line"/>
      <point x="903" y="1583" type="line"/>
      <point x="1621" y="1583" type="line"/>
      <point x="1621" y="1651" type="line"/>
    </contour>
  </outline>
</glyph>
<glyph name="Eth" format="2">
  <advance width="1680"/>
  <unicode hex="00D0"/>
  <outline>
    <component base="D" xOffset="30"/>
    <contour>
      <point x="154" y="856" type="line"/>
      <point x="154" y="794" type="line"/>
      <point x="912" y="794" type="line"/>
      <point x="912" y="856" type="line"/>
    </contour>
  </outline>
</glyph>
<glyph name="multiply" format="2">
  <advance width="1331"/>
  <unicode hex="00D7"/>
  <outline>
    <contour>
      <point x="666" y="785" type="line"/>
      <point x="1056" y="392" type="line"/>
      <point x="1101" y="438" type="line"/>
      <point x="709" y="828" type="line"/>
      <point x="1101" y="1220" type="line"/>
      <point x="1058" y="1264" type="line"/>
      <point x="666" y="872" type="line"/>
      <point x="275" y="1264" type="line"/>
      <point x="230" y="1220" type="line"/>
      <point x="622" y="828" type="line"/>
      <point x="230" y="438" type="line"/>
      <point x="273" y="392" type="line"/>
    </contour>
  </outline>
</glyph>
<glyph name="Oslash" format="2">
  <advance width="2055"/>
  <unicode hex="00D8"/>
  <outline>
    <component base="O"/>
    <contour>
      <point x="1684" y="1605" type="line"/>
      <point x="1626" y="1648" type="line"/>
      <point x="380" y="48" type="line"/>
      <point x="435" y="6" type="line"/>
    </contour>
  </outline>
</glyph>
<glyph name="Thorn" format="2">
  <advance width="1348"/>
  <unicode hex="00DE"/>
  <anchor x="675" y="0" name="bottom"/>
  <anchor x="675" y="1650" name="top"/>
  <outline>
    <contour>
      <point x="364" y="0" type="line"/>
      <point x="364" y="355" type="line"/>
      <point x="657" y="355" type="line" smooth="yes"/>
      <point x="981" y="355"/>
      <point x="1170" y="542"/>
      <point x="1170" y="816" type="curve" smooth="yes"/>
      <point x="1170" y="1089"/>
      <point x="981" y="1276"/>
      <point x="657" y="1276" type="curve" smooth="yes"/>
      <point x="364" y="1276" type="line"/>
      <point x="364" y="1650" type="line"/>
      <point x="288" y="1650" type="line"/>
      <point x="288" y="0" type="line"/>
    </contour>
    <contour>
      <point x="364" y="1211" type="line"/>
      <point x="650" y="1211" type="line" smooth="yes"/>
      <point x="931" y="1211"/>
      <point x="1097" y="1050"/>
      <point x="1097" y="816" type="curve" smooth="yes"/>
      <point x="1097" y="581"/>
      <point x="931" y="420"/>
      <point x="650" y="420" type="curve" smooth="yes"/>
      <point x="364" y="420" type="line"/>
    </contour>
  </outline>
</glyph>
<glyph name="germandbls" format="2">
  <advance width="1336"/>
  <unicode hex="00DF"/>
  <anchor x="669" y="0" name="bottom"/>
  <anchor x="669" y="1026" name="top"/>
  <outline>
    <contour>
      <point x="692" y="-32" type="line" smooth="yes"/>
      <point x="966" y="-32"/>
      <point x="1185" y="187"/>
      <point x="1185" y="459" type="curve" smooth="yes"/>
      <point x="1185" y="668"/>
      <point x="1055" y="851"/>
      <point x="859" y="920" type="curve"/>
      <point x="1021" y="984"/>
      <point x="1126" y="1140"/>
      <point x="1126" y="1316" type="curve" smooth="yes"/>
      <point x="1126" y="1557"/>
      <point x="933" y="1750"/>
      <point x="692" y="1750" type="curve" smooth="yes"/>
      <point x="451" y="1750"/>
      <point x="257" y="1556"/>
      <point x="257" y="1315" type="curve" smooth="yes"/>
      <point x="257" y="820" type="line"/>
      <point x="125" y="820" type="line"/>
      <point x="125" y="749" type="line"/>
      <point x="257" y="749" type="line"/>
      <point x="257" y="0" type="line" name=".hr01"/>
      <point x="332" y="0" type="line"/>
      <point x="332" y="1316" type="line" smooth="yes"/>
      <point x="332" y="1517"/>
      <point x="493" y="1679"/>
      <point x="692" y="1679" type="curve" smooth="yes"/>
      <point x="891" y="1679"/>
      <point x="1053" y="1516"/>
      <point x="1053" y="1316" type="curve" smooth="yes"/>
      <point x="1053" y="1115"/>
      <point x="891" y="952"/>
      <point x="692" y="952" type="curve" smooth="yes"/>
      <point x="485" y="952" type="line"/>
      <point x="485" y="883" type="line"/>
      <point x="692" y="883" type="line" smooth="yes"/>
      <point x="922" y="883"/>
      <point x="1109" y="695"/>
      <point x="1109" y="461" type="curve" smooth="yes"/>
      <point x="1109" y="229"/>
      <point x="922" y="41" name=".hr02"/>
      <point x="692" y="41" type="curve" smooth="yes"/>
      <point x="485" y="41" type="line"/>
      <point x="485" y="-32" type="line"/>
    </contour>
  </outline>
</glyph>
<glyph name="ae" format="2">
  <advance width="2108"/>
  <unicode hex="00E6"/>
  <outline>
    <contour>
      <point x="564" y="-32" type="curve" smooth="yes"/>
      <point x="769" y="-32"/>
      <point x="926" y="77"/>
      <point x="976" y="249" type="curve"/>
      <point x="1067" y="73"/>
      <point x="1246" y="-32"/>
      <point x="1459" y="-32" type="curve" smooth="yes"/>
      <point x="1657" y="-32"/>
      <point x="1828" y="57"/>
      <point x="1926" y="213" type="curve"/>
      <point x="1869" y="248" type="line"/>
      <point x="1784" y="112"/>
      <point x="1635" y="34" name=".hr01"/>
      <point x="1461" y="34" type="curve" smooth="yes"/>
      <point x="1182" y="34"/>
      <point x="982" y="234"/>
      <point x="982" y="509" type="curve"/>
      <point x="1967" y="509" type="line"/>
      <point x="1967" y="513"/>
      <point x="1967" y="515"/>
      <point x="1967" y="519" type="curve" smooth="yes"/>
      <point x="1967" y="818"/>
      <point x="1730" y="1056"/>
      <point x="1440" y="1056" type="curve" smooth="yes"/>
      <point x="1232" y="1056"/>
      <point x="1055" y="931"/>
      <point x="968" y="752" type="curve"/>
      <point x="936" y="923"/>
      <point x="807" y="1056"/>
      <point x="579" y="1056" type="curve" smooth="yes"/>
      <point x="443" y="1056"/>
      <point x="318" y="1009"/>
      <point x="222" y="896" type="curve"/>
      <point x="270" y="853" type="line"/>
      <point x="348" y="935"/>
      <point x="439" y="992"/>
      <point x="574" y="992" type="curve" smooth="yes"/>
      <point x="784" y="992"/>
      <point x="913" y="856"/>
      <point x="913" y="621" type="curve" smooth="yes"/>
      <point x="913" y="481" type="line"/>
      <point x="843" y="574"/>
      <point x="715" y="632"/>
      <point x="567" y="632" type="curve" smooth="yes"/>
      <point x="337" y="632"/>
      <point x="160" y="496"/>
      <point x="160" y="299" type="curve" smooth="yes"/>
      <point x="160" y="98"/>
      <point x="340" y="-32"/>
    </contour>
    <contour>
      <point x="575" y="30" type="curve" smooth="yes"/>
      <point x="386" y="30"/>
      <point x="231" y="138"/>
      <point x="231" y="302" type="curve" smooth="yes"/>
      <point x="231" y="466"/>
      <point x="385" y="571"/>
      <point x="575" y="571" type="curve" smooth="yes"/>
      <point x="765" y="571"/>
      <point x="920" y="465"/>
      <point x="920" y="302" type="curve" smooth="yes"/>
      <point x="920" y="138"/>
      <point x="765" y="30"/>
    </contour>
    <contour>
      <point x="985" y="568" type="line"/>
      <point x="1008" y="808"/>
      <point x="1203" y="992"/>
      <point x="1440" y="992" type="curve" smooth="yes"/>
      <point x="1676" y="992"/>
      <point x="1869" y="808"/>
      <point x="1892" y="568" type="curve"/>
    </contour>
  </outline>
</glyph>
<glyph name="eth" format="2">
  <advance width="1444"/>
  <unicode hex="00F0"/>
  <outline>
    <contour>
      <point x="710" y="-32" type="curve" smooth="yes"/>
      <point x="1023" y="-32"/>
      <point x="1262" y="192"/>
      <point x="1262" y="512" type="curve" smooth="yes"/>
      <point x="1262" y="969"/>
      <point x="1113" y="1327"/>
      <point x="833" y="1557" type="curve"/>
      <point x="980" y="1702" type="line"/>
      <point x="933" y="1749" type="line"/>
      <point x="780" y="1596" type="line"/>
      <point x="691" y="1660"/>
      <point x="593" y="1710"/>
      <point x="485" y="1749" type="curve"/>
      <point x="460" y="1682" type="line"/>
      <point x="556" y="1647"/>
      <point x="647" y="1602"/>
      <point x="728" y="1543" type="curve"/>
      <point x="581" y="1397" type="line"/>
      <point x="628" y="1350" type="line"/>
      <point x="783" y="1504" type="line"/>
      <point x="974" y="1351"/>
      <point x="1108" y="1121"/>
      <point x="1159" y="812" type="curve"/>
      <point x="1070" y="964"/>
      <point x="904" y="1056"/>
      <point x="709" y="1056" type="curve" smooth="yes"/>
      <point x="402" y="1056"/>
      <point x="158" y="837"/>
      <point x="158" y="512" type="curve" smooth="yes"/>
      <point x="158" y="192"/>
      <point x="396" y="-32"/>
    </contour>
    <contour>
      <point x="710" y="36" type="curve" smooth="yes"/>
      <point x="431" y="36"/>
      <point x="230" y="235"/>
      <point x="230" y="512" type="curve" smooth="yes"/>
      <point x="230" y="789"/>
      <point x="432" y="988"/>
      <point x="710" y="988" type="curve" smooth="yes"/>
      <point x="986" y="988"/>
      <point x="1190" y="789"/>
      <point x="1190" y="512" type="curve" smooth="yes"/>
      <point x="1190" y="235"/>
      <point x="987" y="36"/>
    </contour>
  </outline>
</glyph>
<glyph name="divide" format="2">
  <advance width="1485"/>
  <unicode hex="00F7"/>
  <outline>
    <contour>
      <point x="1089" y="798" type="line"/>
      <point x="1228" y="840" type="line"/>
      <point x="343" y="862" type="line"/>
      <point x="204" y="821" type="line"/>
    </contour>
    <contour>
      <point x="716" y="272" type="curve" smooth="yes"/>
      <point x="746" y="272"/>
      <point x="771" y="297"/>
      <point x="771" y="328" type="curve" smooth="yes"/>
      <point x="771" y="358"/>
      <point x="746" y="383"/>
      <point x="716" y="383" type="curve" smooth="yes"/>
      <point x="686" y="383"/>
      <point x="661" y="358"/>
      <point x="661" y="328" type="curve" smooth="yes"/>
      <point x="661" y="297"/>
      <point x="686" y="272"/>
    </contour>
    <contour>
      <point x="716" y="1277" type="curve" smooth="yes"/>
      <point x="746" y="1277"/>
      <point x="771" y="1302"/>
      <point x="771" y="1333" type="curve" smooth="yes"/>
      <point x="771" y="1363"/>
      <point x="746" y="1388"/>
      <point x="716" y="1388" type="curve" smooth="yes"/>
      <point x="686" y="1388"/>
      <point x="661" y="1363"/>
      <point x="661" y="1333" type="curve" smooth="yes"/>
      <point x="661" y="1302"/>
      <point x="686" y="1277"/>
    </contour>
  </outline>
</glyph>
<glyph name="oslash" format="2">
  <advance width="1419"/>
  <unicode hex="00F8"/>
  <outline>
    <component base="o"/>
    <contour>
      <point x="302" y="-32" type="line"/>
      <point x="1194" y="1056" type="line"/>
      <point x="1117" y="1056" type="line"/>
      <point x="225" y="-32" type="line"/>
    </contour>
  </outline>
</glyph>
<glyph name="dcroat" format="2">
  <advance width="1485"/>
  <unicode hex="0111"/>
  <outline>
    <component base="d"/>
    <contour>
      <point x="670" y="1399" type="line"/>
      <point x="670" y="1342" type="line"/>
      <point x="1394" y="1342" type="line"/>
      <point x="1394" y="1399" type="line"/>
    </contour>
  </outline>
</glyph>
<glyph name="eogonek" format="2">
  <advance width="1353"/>
  <unicode hex="0119"/>
  <anchor x="707" y="0" name="bottom"/>
  <anchor x="718" y="0" name="ogonek"/>
  <anchor x="685" y="1026" name="top"/>
  <anchor x="718" y="0" name="_ogonek"/>
  <outline>
    <contour>
      <point x="705" y="-32" type="curve" smooth="yes"/>
      <point x="805" y="-32"/>
      <point x="898" y="-9"/>
      <point x="978" y="34" type="curve"/>
      <point x="949" y="34" type="line"/>
      <point x="809" y="-103"/>
      <point x="729" y="-233"/>
      <point x="729" y="-335" type="curve" smooth="yes"/>
      <point x="729" y="-458"/>
      <point x="833" y="-559"/>
      <point x="980" y="-559" type="curve" smooth="yes"/>
      <point x="1088" y="-559"/>
      <point x="1194" y="-504"/>
      <point x="1255" y="-415" type="curve"/>
      <point x="1214" y="-386" type="line"/>
      <point x="1143" y="-464"/>
      <point x="1072" y="-498"/>
      <point x="987" y="-498" type="curve" smooth="yes"/>
      <point x="857" y="-498"/>
      <point x="791" y="-419"/>
      <point x="791" y="-331" type="curve" smooth="yes"/>
      <point x="791" y="-233"/>
      <point x="878" y="-84"/>
      <point x="1089" y="112" type="curve" smooth="yes"/>
      <point x="1120" y="141"/>
      <point x="1148" y="176"/>
      <point x="1171" y="213" type="curve"/>
      <point x="1114" y="248" type="line"/>
      <point x="1029" y="112"/>
      <point x="881" y="34"/>
      <point x="706" y="34" type="curve" smooth="yes"/>
      <point x="428" y="34"/>
      <point x="228" y="233"/>
      <point x="228" y="509" type="curve"/>
      <point x="1211" y="509" type="line"/>
      <point x="1212" y="517"/>
      <point x="1212" y="523"/>
      <point x="1212" y="530" type="curve"/>
      <point x="1209" y="801"/>
      <point x="991" y="1056"/>
      <point x="685" y="1056" type="curve" smooth="yes"/>
      <point x="397" y="1056"/>
      <point x="155" y="818"/>
      <point x="155" y="505" type="curve" smooth="yes"/>
      <point x="155" y="203"/>
      <point x="383" y="-32"/>
    </contour>
    <contour>
      <point x="231" y="567" type="line"/>
      <point x="253" y="809"/>
      <point x="449" y="992"/>
      <point x="685" y="992" type="curve" smooth="yes"/>
      <point x="920" y="992"/>
      <point x="1115" y="810"/>
      <point x="1138" y="567" type="curve"/>
    </contour>
  </outline>
</glyph>
<glyph name="Hbar" format="2">
  <advance width="1755"/>
  <unicode hex="0126"/>
  <outline>
    <contour>
      <point x="364" y="0" type="line"/>
      <point x="364" y="762" type="line"/>
      <point x="1391" y="762" type="line"/>
      <point x="1391" y="0" type="line"/>
      <point x="1467" y="0" type="line"/>
      <point x="1467" y="1651" type="line"/>
      <point x="1391" y="1651" type="line"/>
      <point x="1391" y="825" type="line"/>
      <point x="364" y="825" type="line"/>
      <point x="364" y="1651" type="line"/>
      <point x="288" y="1651" type="line"/>
      <point x="288" y="0" type="line"/>
    </contour>
    <contour>
      <point x="1602" y="1070" type="line"/>
      <point x="1602" y="1133" type="line"/>
      <point x="153" y="1133" type="line"/>
      <point x="153" y="1070" type="line"/>
    </contour>
  </outline>
</glyph>
<glyph name="hbar" format="2">
  <advance width="1240"/>
  <unicode hex="0127"/>
  <outline>
    <component base="h"/>
    <contour>
      <point x="521" y="1332" type="line"/>
      <point x="521" y="1394" type="line"/>
      <point x="88" y="1394" type="line"/>
      <point x="88" y="1332" type="line"/>
    </contour>
  </outline>
</glyph>
<glyph name="idotless" format="2">
  <advance width="537"/>
  <unicode hex="0131"/>
  <anchor x="268" y="0" name="bottom"/>
  <anchor x="306" y="0" name="ogonek"/>
  <anchor x="268" y="1026" name="top"/>
  <outline>
    <contour>
      <point x="306" y="0" type="line"/>
      <point x="306" y="1024" type="line"/>
      <point x="231" y="1024" type="line"/>
      <point x="231" y="0" type="line"/>
    </contour>
  </outline>
</glyph>
<glyph name="Lslash" format="2">
  <advance width="1272"/>
  <unicode hex="0141"/>
  <outline>
    <component base="L" xOffset="34"/>
    <contour>
      <point x="613" y="964" type="line"/>
      <point x="613" y="1026" type="line"/>
      <point x="155" y="665" type="line"/>
      <point x="155" y="603" type="line"/>
    </contour>
  </outline>
</glyph>
<glyph name="lslash" format="2">
  <advance width="769"/>
  <unicode hex="0142"/>
  <outline>
    <component base="l" xOffset="117"/>
    <contour>
      <point x="231" y="823" type="line"/>
      <point x="231" y="798" type="line"/>
      <point x="538" y="1040" type="line"/>
      <point x="538" y="1065" type="line"/>
    </contour>
  </outline>
</glyph>
<glyph name="Eng" format="2">
  <advance width="1674"/>
  <unicode hex="014A"/>
  <outline>
    <contour>
      <point x="288" y="1650" type="line"/>
      <point x="288" y="0" type="line"/>
      <point x="364" y="0" type="line"/>
      <point x="364" y="1513" type="line"/>
      <point x="1327" y="0" type="line"/>
      <point x="1327" y="-29" type="line" smooth="yes"/>
      <point x="1327" y="-308"/>
      <point x="1183" y="-480"/>
      <point x="913" y="-480" type="curve" smooth="yes"/>
      <point x="788" y="-480"/>
      <point x="677" y="-440"/>
      <point x="580" y="-336" type="curve"/>
      <point x="535" y="-394" type="line"/>
      <point x="639" y="-504"/>
      <point x="754" y="-551"/>
      <point x="911" y="-551" type="curve" smooth="yes"/>
      <point x="1220" y="-551"/>
      <point x="1403" y="-366"/>
      <point x="1403" y="-55" type="curve" smooth="yes"/>
      <point x="1403" y="1650" type="line"/>
      <point x="1327" y="1650" type="line"/>
      <point x="1327" y="135" type="line"/>
      <point x="364" y="1650" type="line"/>
    </contour>
  </outline>
</glyph>
<glyph name="eng" format="2">
  <advance width="1238"/>
  <unicode hex="014B"/>
  <outline>
    <contour>
      <point x="231" y="1025" type="line"/>
      <point x="231" y="0" type="line"/>
      <point x="306" y="0" type="line"/>
      <point x="306" y="685" type="line" smooth="yes"/>
      <point x="306" y="876"/>
      <point x="460" y="992" name=".hr01"/>
      <point x="633" y="992" type="curve" smooth="yes"/>
      <point x="841" y="992"/>
      <point x="953" y="822"/>
      <point x="953" y="619" type="curve" smooth="yes"/>
      <point x="953" y="-253" type="line" smooth="yes"/>
      <point x="953" y="-405"/>
      <point x="885" y="-485"/>
      <point x="783" y="-485" type="curve" smooth="yes"/>
      <point x="735" y="-485"/>
      <point x="683" y="-468"/>
      <point x="647" y="-417" type="curve"/>
      <point x="602" y="-456" type="line"/>
      <point x="654" y="-526"/>
      <point x="723" y="-550"/>
      <point x="792" y="-550" type="curve" smooth="yes"/>
      <point x="936" y="-550"/>
      <point x="1027" y="-449"/>
      <point x="1027" y="-248" type="curve" smooth="yes"/>
      <point x="1027" y="640" type="line" smooth="yes"/>
      <point x="1027" y="883"/>
      <point x="875" y="1056"/>
      <point x="640" y="1056" type="curve" smooth="yes"/>
      <point x="484" y="1056"/>
      <point x="352" y="980"/>
      <point x="306" y="872" type="curve"/>
      <point x="306" y="1025" type="line" name=".hr02"/>
    </contour>
  </outline>
</glyph>
<glyph name="OE" format="2">
  <advance width="1998"/>
  <unicode hex="0152"/>
  <outline>
    <contour>
      <point x="1822" y="0" type="line"/>
      <point x="1822" y="68" type="line"/>
      <point x="1104" y="68" type="line"/>
      <point x="1104" y="793" type="line"/>
      <point x="1798" y="793" type="line"/>
      <point x="1798" y="861" type="line"/>
      <point x="1104" y="861" type="line"/>
      <point x="1104" y="1583" type="line"/>
      <point x="1822" y="1583" type="line"/>
      <point x="1822" y="1650" type="line"/>
      <point x="1033" y="1650" type="line" smooth="yes"/>
      <point x="550" y="1650"/>
      <point x="196" y="1292"/>
      <point x="196" y="825" type="curve" smooth="yes"/>
      <point x="196" y="358"/>
      <point x="550" y="0"/>
      <point x="1033" y="0" type="curve" smooth="yes"/>
    </contour>
    <contour>
      <point x="1028" y="70" type="line"/>
      <point x="598" y="70"/>
      <point x="278" y="397"/>
      <point x="278" y="825" type="curve" smooth="yes"/>
      <point x="278" y="1254"/>
      <point x="599" y="1581"/>
      <point x="1028" y="1581" type="curve"/>
    </contour>
  </outline>
</glyph>
<glyph name="oe" format="2">
  <advance width="2378"/>
  <unicode hex="0153"/>
  <anchor x="1189" y="0" name="bottom"/>
  <anchor x="1189" y="1026" name="top"/>
  <outline>
    <contour>
      <point x="709" y="-32" type="curve" smooth="yes"/>
      <point x="948" y="-32"/>
      <point x="1146" y="101"/>
      <point x="1220" y="311" type="curve"/>
      <point x="1296" y="100"/>
      <point x="1493" y="-32"/>
      <point x="1729" y="-32" type="curve" smooth="yes"/>
      <point x="1927" y="-32"/>
      <point x="2098" y="58"/>
      <point x="2196" y="213" type="curve"/>
      <point x="2139" y="248" type="line"/>
      <point x="2054" y="112"/>
      <point x="1906" y="34" name=".hr01"/>
      <point x="1731" y="34" type="curve" smooth="yes"/>
      <point x="1453" y="34"/>
      <point x="1253" y="234"/>
      <point x="1253" y="509" type="curve"/>
      <point x="2237" y="509" type="line"/>
      <point x="2237" y="515"/>
      <point x="2237" y="517"/>
      <point x="2237" y="522" type="curve" smooth="yes"/>
      <point x="2237" y="818"/>
      <point x="1999" y="1056"/>
      <point x="1710" y="1056" type="curve" smooth="yes"/>
      <point x="1488" y="1056"/>
      <point x="1296" y="913"/>
      <point x="1221" y="709" type="curve"/>
      <point x="1148" y="923"/>
      <point x="948" y="1056"/>
      <point x="709" y="1056" type="curve" smooth="yes"/>
      <point x="396" y="1056"/>
      <point x="158" y="833"/>
      <point x="158" y="512" type="curve" smooth="yes"/>
      <point x="158" y="191"/>
      <point x="396" y="-32"/>
    </contour>
    <contour>
      <point x="710" y="36" type="curve" smooth="yes"/>
      <point x="432" y="36"/>
      <point x="230" y="235"/>
      <point x="230" y="512" type="curve" smooth="yes"/>
      <point x="230" y="789"/>
      <point x="432" y="988"/>
      <point x="710" y="988" type="curve" smooth="yes"/>
      <point x="987" y="988"/>
      <point x="1190" y="789"/>
      <point x="1190" y="512" type="curve" smooth="yes"/>
      <point x="1190" y="235"/>
      <point x="987" y="36"/>
    </contour>
    <contour>
      <point x="1255" y="568" type="line"/>
      <point x="1278" y="808"/>
      <point x="1473" y="992"/>
      <point x="1710" y="992" type="curve" smooth="yes"/>
      <point x="1947" y="992" name=".hr02"/>
      <point x="2140" y="808"/>
      <point x="2163" y="568" type="curve"/>
    </contour>
  </outline>
</glyph>
<glyph name="Tbar" format="2">
  <advance width="1447"/>
  <unicode hex="0166"/>
  <outline>
    <component base="T"/>
    <contour>
      <point x="1090" y="994" type="line"/>
      <point x="1090" y="1057" type="line"/>
      <point x="358" y="1057" type="line"/>
      <point x="358" y="994" type="line"/>
    </contour>
  </outline>
</glyph>
<glyph name="tbar" format="2">
  <advance width="695"/>
  <unicode hex="0167"/>
  <outline>
    <contour>
      <point x="440" y="-32" type="curve" smooth="yes"/>
      <point x="502" y="-32"/>
      <point x="561" y="-10"/>
      <point x="595" y="19" type="curve"/>
      <point x="561" y="66" type="line"/>
      <point x="534" y="45"/>
      <point x="492" y="33"/>
      <point x="454" y="33" type="curve" smooth="yes"/>
      <point x="362" y="33"/>
      <point x="311" y="104"/>
      <point x="311" y="232" type="curve" smooth="yes"/>
      <point x="311" y="773" type="line"/>
      <point x="579" y="773" type="line"/>
      <point x="579" y="824" type="line"/>
      <point x="311" y="824" type="line"/>
      <point x="311" y="979" type="line"/>
      <point x="579" y="979" type="line"/>
      <point x="579" y="1030" type="line"/>
      <point x="311" y="1030" type="line"/>
      <point x="311" y="1406" type="line"/>
      <point x="236" y="1406" type="line"/>
      <point x="236" y="1030" type="line"/>
      <point x="146" y="1030" type="line"/>
      <point x="146" y="979" type="line"/>
      <point x="236" y="979" type="line"/>
      <point x="236" y="824" type="line"/>
      <point x="146" y="824" type="line"/>
      <point x="146" y="773" type="line"/>
      <point x="236" y="773" type="line"/>
      <point x="236" y="231" type="line" smooth="yes"/>
      <point x="236" y="63"/>
      <point x="311" y="-32"/>
    </contour>
  </outline>
</glyph>
<glyph name="Uogonek" format="2">
  <advance width="1634"/>
  <unicode hex="0172"/>
  <outline>
    <contour>
      <point x="812" y="-32" type="curve" smooth="yes"/>
      <point x="909" y="-32"/>
      <point x="993" y="-15"/>
      <point x="1065" y="18" type="curve"/>
      <point x="1045" y="18" type="line"/>
      <point x="915" y="-115"/>
      <point x="842" y="-232"/>
      <point x="842" y="-335" type="curve" smooth="yes"/>
      <point x="842" y="-458"/>
      <point x="946" y="-559"/>
      <point x="1093" y="-559" type="curve" smooth="yes"/>
      <point x="1202" y="-559"/>
      <point x="1308" y="-504"/>
      <point x="1369" y="-415" type="curve"/>
      <point x="1328" y="-386" type="line"/>
      <point x="1257" y="-464"/>
      <point x="1185" y="-498"/>
      <point x="1100" y="-498" type="curve" smooth="yes"/>
      <point x="970" y="-498"/>
      <point x="904" y="-422"/>
      <point x="904" y="-329" type="curve" smooth="yes"/>
      <point x="904" y="-215"/>
      <point x="1003" y="-65"/>
      <point x="1177" y="88" type="curve" smooth="yes"/>
      <point x="1296" y="193"/>
      <point x="1359" y="363"/>
      <point x="1359" y="594" type="curve" smooth="yes"/>
      <point x="1359" y="1650" type="line"/>
      <point x="1283" y="1650" type="line"/>
      <point x="1283" y="601" type="line" smooth="yes"/>
      <point x="1283" y="235"/>
      <point x="1122" y="44"/>
      <point x="812" y="44" type="curve" smooth="yes"/>
      <point x="502" y="44"/>
      <point x="341" y="235"/>
      <point x="341" y="601" type="curve" smooth="yes"/>
      <point x="341" y="1650" type="line"/>
      <point x="265" y="1650" type="line"/>
      <point x="265" y="594" type="line" smooth="yes"/>
      <point x="265" y="190"/>
      <point x="458" y="-32"/>
    </contour>
  </outline>
</glyph>
<glyph name="uogonek" format="2">
  <advance width="1210"/>
  <unicode hex="0173"/>
  <outline>
    <contour>
      <point x="605" y="-32" type="curve" smooth="yes"/>
      <point x="680" y="-32"/>
      <point x="744" y="-22"/>
      <point x="796" y="0" type="curve"/>
      <point x="770" y="0" type="line"/>
      <point x="652" y="-125"/>
      <point x="585" y="-240"/>
      <point x="585" y="-334" type="curve" smooth="yes"/>
      <point x="585" y="-458"/>
      <point x="689" y="-559"/>
      <point x="835" y="-559" type="curve" smooth="yes"/>
      <point x="944" y="-559"/>
      <point x="1050" y="-504"/>
      <point x="1111" y="-415" type="curve"/>
      <point x="1070" y="-386" type="line"/>
      <point x="999" y="-464"/>
      <point x="927" y="-498"/>
      <point x="843" y="-498" type="curve" smooth="yes"/>
      <point x="713" y="-498"/>
      <point x="647" y="-419"/>
      <point x="647" y="-330" type="curve" smooth="yes"/>
      <point x="647" y="-232"/>
      <point x="733" y="-87"/>
      <point x="882" y="55" type="curve" smooth="yes"/>
      <point x="960" y="128"/>
      <point x="996" y="248"/>
      <point x="996" y="423" type="curve" smooth="yes"/>
      <point x="996" y="1024" type="line"/>
      <point x="921" y="1024" type="line"/>
      <point x="921" y="429" type="line" smooth="yes"/>
      <point x="921" y="147"/>
      <point x="832" y="35"/>
      <point x="605" y="35" type="curve" smooth="yes"/>
      <point x="378" y="35"/>
      <point x="289" y="147"/>
      <point x="289" y="429" type="curve" smooth="yes"/>
      <point x="289" y="1024" type="line"/>
      <point x="214" y="1024" type="line"/>
      <point x="214" y="423" type="line" smooth="yes"/>
      <point x="214" y="106"/>
      <point x="331" y="-32"/>
    </contour>
  </outline>
</glyph>
<glyph name="florin" format="2">
  <advance width="853"/>
  <unicode hex="0192"/>
  <outline>
    <contour>
      <point x="31" y="-551" type="curve" smooth="yes"/>
      <point x="189" y="-551"/>
      <point x="291" y="-439"/>
      <point x="311" y="-242" type="curve" smooth="yes"/>
      <point x="436" y="970" type="line"/>
      <point x="706" y="970" type="line"/>
      <point x="711" y="1026" type="line"/>
      <point x="441" y="1026" type="line"/>
      <point x="487" y="1449" type="line" smooth="yes"/>
      <point x="503" y="1600"/>
      <point x="579" y="1685"/>
      <point x="691" y="1685" type="curve" smooth="yes"/>
      <point x="734" y="1685"/>
      <point x="775" y="1672"/>
      <point x="801" y="1651" type="curve"/>
      <point x="839" y="1701" type="line"/>
      <point x="801" y="1734"/>
      <point x="750" y="1750"/>
      <point x="690" y="1750" type="curve" smooth="yes"/>
      <point x="532" y="1750"/>
      <point x="431" y="1638"/>
      <point x="410" y="1441" type="curve" smooth="yes"/>
      <point x="367" y="1026" type="line"/>
      <point x="279" y="1026" type="line"/>
      <point x="273" y="970" type="line"/>
      <point x="361" y="970" type="line"/>
      <point x="234" y="-250" type="line" smooth="yes"/>
      <point x="218" y="-401"/>
      <point x="141" y="-486"/>
      <point x="30" y="-486" type="curve" smooth="yes"/>
      <point x="-13" y="-486"/>
      <point x="-54" y="-473"/>
      <point x="-80" y="-452" type="curve"/>
      <point x="-119" y="-502" type="line"/>
      <point x="-81" y="-535"/>
      <point x="-29" y="-551"/>
    </contour>
  </outline>
</glyph>
<glyph name="gravecomb" format="2">
  <advance width="228"/>
  <unicode hex="0300"/>
  <anchor x="114" y="1024" name="_top"/>
  <anchor x="114" y="1658" name="top"/>
  <outline>
    <contour>
      <point x="310" y="1309" type="line"/>
      <point x="-26" y="1493" type="line"/>
      <point x="-66" y="1416" type="line"/>
      <point x="280" y="1258" type="line"/>
    </contour>
  </outline>
</glyph>
<glyph name="acutecomb" format="2">
  <advance width="226"/>
  <unicode hex="0301"/>
  <anchor x="44" y="1024" name="_top"/>
  <anchor x="49" y="1681" name="top"/>
  <outline>
    <contour>
      <point x="-84" y="1309" type="line"/>
      <point x="-54" y="1258" type="line"/>
      <point x="290" y="1415" type="line"/>
      <point x="252" y="1493" type="line"/>
    </contour>
  </outline>
</glyph>
<glyph name="circumflexcomb" format="2">
  <advance width="686"/>
  <unicode hex="0302"/>
  <anchor x="343" y="1024" name="_top"/>
  <anchor x="343" y="1680" name="top"/>
  <outline>
    <contour>
      <point x="343" y="1602" type="line"/>
      <point x="649" y="1378" type="line"/>
      <point x="686" y="1429" type="line"/>
      <point x="343" y="1680" type="line"/>
      <point x="0" y="1429" type="line"/>
      <point x="37" y="1378" type="line"/>
    </contour>
  </outline>
</glyph>
<glyph name="tildecomb" format="2">
  <advance width="964"/>
  <unicode hex="0303"/>
  <anchor x="482" y="1024" name="_top"/>
  <anchor x="482" y="1533" name="top"/>
  <outline>
    <contour>
      <point x="0" y="1355" type="curve"/>
      <point x="51" y="1323" type="line"/>
      <point x="99" y="1403"/>
      <point x="176" y="1469"/>
      <point x="282" y="1469" type="curve" smooth="yes"/>
      <point x="448" y="1469"/>
      <point x="498" y="1309"/>
      <point x="682" y="1309" type="curve" smooth="yes"/>
      <point x="811" y="1309"/>
      <point x="905" y="1386"/>
      <point x="964" y="1487" type="curve"/>
      <point x="913" y="1519" type="line"/>
      <point x="865" y="1439"/>
      <point x="788" y="1373"/>
      <point x="682" y="1373" type="curve" smooth="yes"/>
      <point x="516" y="1373"/>
      <point x="466" y="1533"/>
      <point x="282" y="1533" type="curve" smooth="yes"/>
      <point x="153" y="1533"/>
      <point x="59" y="1456"/>
    </contour>
  </outline>
</glyph>
<glyph name="brevecomb" format="2">
  <advance width="790"/>
  <unicode hex="0306"/>
  <anchor x="395" y="1024" name="_top"/>
  <anchor x="394" y="1680" name="top"/>
  <outline>
    <contour>
      <point x="395" y="1357" type="curve" smooth="yes"/>
      <point x="593" y="1357"/>
      <point x="751" y="1481"/>
      <point x="790" y="1665" type="curve"/>
      <point x="727" y="1680" type="line"/>
      <point x="695" y="1526"/>
      <point x="566" y="1420"/>
      <point x="395" y="1420" type="curve" smooth="yes"/>
      <point x="224" y="1420"/>
      <point x="95" y="1526"/>
      <point x="63" y="1680" type="curve"/>
      <point x="0" y="1665" type="line"/>
      <point x="39" y="1481"/>
      <point x="197" y="1357"/>
    </contour>
  </outline>
</glyph>
<glyph name="dotaccentcomb" format="2">
  <advance width="116"/>
  <unicode hex="0307"/>
  <anchor x="58" y="1024" name="_top"/>
  <anchor x="58" y="1530" name="top"/>
  <outline>
    <contour>
      <point x="58" y="1414" type="curve" smooth="yes"/>
      <point x="90" y="1414"/>
      <point x="116" y="1440"/>
      <point x="116" y="1472" type="curve" smooth="yes"/>
      <point x="116" y="1504"/>
      <point x="90" y="1530"/>
      <point x="58" y="1530" type="curve" smooth="yes"/>
      <point x="26" y="1530"/>
      <point x="0" y="1504"/>
      <point x="0" y="1472" type="curve" smooth="yes"/>
      <point x="0" y="1440"/>
      <point x="26" y="1414"/>
    </contour>
  </outline>
</glyph>
<glyph name="dieresiscomb" format="2">
  <advance width="586"/>
  <unicode hex="0308"/>
  <anchor x="293" y="1024" name="_top"/>
  <anchor x="293" y="1455" name="top"/>
  <outline>
    <contour>
      <point x="529" y="1341" type="curve" smooth="yes"/>
      <point x="560" y="1341"/>
      <point x="586" y="1367"/>
      <point x="586" y="1398" type="curve" smooth="yes"/>
      <point x="586" y="1429"/>
      <point x="560" y="1455"/>
      <point x="529" y="1455" type="curve" smooth="yes"/>
      <point x="498" y="1455"/>
      <point x="472" y="1429"/>
      <point x="472" y="1398" type="curve" smooth="yes"/>
      <point x="472" y="1367"/>
      <point x="498" y="1341"/>
    </contour>
    <contour>
      <point x="57" y="1341" type="curve" smooth="yes"/>
      <point x="88" y="1341"/>
      <point x="114" y="1367"/>
      <point x="114" y="1398" type="curve" smooth="yes"/>
      <point x="114" y="1429"/>
      <point x="88" y="1455"/>
      <point x="57" y="1455" type="curve" smooth="yes"/>
      <point x="26" y="1455"/>
      <point x="0" y="1429"/>
      <point x="0" y="1398" type="curve" smooth="yes"/>
      <point x="0" y="1367"/>
      <point x="26" y="1341"/>
    </contour>
  </outline>
</glyph>
<glyph name="ringcomb" format="2">
  <advance width="404"/>
  <unicode hex="030A"/>
  <anchor x="202" y="1024" name="_top"/>
  <anchor x="202" y="1643" name="top"/>
  <outline>
    <contour>
      <point x="202" y="1285" type="curve" smooth="yes"/>
      <point x="315" y="1285"/>
      <point x="404" y="1360"/>
      <point x="404" y="1464" type="curve" smooth="yes"/>
      <point x="404" y="1568"/>
      <point x="315" y="1643"/>
      <point x="202" y="1643" type="curve" smooth="yes"/>
      <point x="89" y="1643"/>
      <point x="0" y="1568"/>
      <point x="0" y="1464" type="curve" smooth="yes"/>
      <point x="0" y="1360"/>
      <point x="89" y="1285"/>
    </contour>
    <contour>
      <point x="202" y="1344" type="curve" smooth="yes"/>
      <point x="121" y="1344"/>
      <point x="61" y="1394"/>
      <point x="61" y="1464" type="curve" smooth="yes"/>
      <point x="61" y="1534"/>
      <point x="121" y="1584"/>
      <point x="202" y="1584" type="curve" smooth="yes"/>
      <point x="283" y="1584"/>
      <point x="343" y="1534"/>
      <point x="343" y="1464" type="curve" smooth="yes"/>
      <point x="343" y="1394"/>
      <point x="283" y="1344"/>
    </contour>
  </outline>
</glyph>
<glyph name="hungarumlautcomb" format="2">
  <advance width="542"/>
  <unicode hex="030B"/>
  <anchor x="219" y="1024" name="_top"/>
  <anchor x="219" y="1680" name="top"/>
  <outline>
    <contour>
      <point x="542" y="1607" type="line"/>
      <point x="467" y="1680" type="line"/>
      <point x="289" y="1499" type="line"/>
      <point x="338" y="1450" type="line"/>
    </contour>
    <contour>
      <point x="252" y="1607" type="line"/>
      <point x="179" y="1680" type="line"/>
      <point x="0" y="1499" type="line"/>
      <point x="48" y="1450" type="line"/>
    </contour>
  </outline>
</glyph>
<glyph name="caroncomb" format="2">
  <advance width="685"/>
  <unicode hex="030C"/>
  <anchor x="343" y="1024" name="_top"/>
  <anchor x="343" y="1680" name="top"/>
  <outline>
    <contour>
      <point x="686" y="1497" type="line"/>
      <point x="649" y="1547" type="line"/>
      <point x="343" y="1323" type="line"/>
      <point x="37" y="1547" type="line"/>
      <point x="0" y="1497" type="line"/>
      <point x="343" y="1246" type="line"/>
    </contour>
  </outline>
</glyph>
<glyph name="commaaccentcomb" format="2">
  <advance width="713"/>
  <unicode hex="0326"/>
  <anchor x="349" y="0" name="_bottom"/>
  <anchor x="349" y="-463" name="bottom"/>
  <outline>
    <contour>
      <point x="314" y="-449" type="line"/>
      <point x="364" y="-411"/>
      <point x="416" y="-303"/>
      <point x="416" y="-221" type="curve" smooth="yes"/>
      <point x="416" y="-162"/>
      <point x="388" y="-134"/>
      <point x="349" y="-134" type="curve" smooth="yes"/>
      <point x="311" y="-134"/>
      <point x="285" y="-161"/>
      <point x="285" y="-195" type="curve" smooth="yes"/>
      <point x="285" y="-230"/>
      <point x="313" y="-258"/>
      <point x="346" y="-259" type="curve"/>
      <point x="346" y="-334"/>
      <point x="330" y="-391"/>
      <point x="299" y="-436" type="curve"/>
    </contour>
  </outline>
</glyph>
<glyph name="cedillacomb" format="2">
  <advance width="478"/>
  <unicode hex="0327"/>
  <anchor x="265" y="28" name="_cedilla"/>
  <anchor x="238" y="-553" name="bottom"/>
  <outline>
    <contour>
      <point x="207" y="28" type="line"/>
      <point x="121" y="-239" type="line"/>
      <point x="125" y="-242" type="line"/>
      <point x="164" y="-218"/>
      <point x="228" y="-201"/>
      <point x="276" y="-201" type="curve" smooth="yes"/>
      <point x="361" y="-201"/>
      <point x="420" y="-254"/>
      <point x="420" y="-332" type="curve" smooth="yes"/>
      <point x="420" y="-417"/>
      <point x="349" y="-476"/>
      <point x="244" y="-476" type="curve" smooth="yes"/>
      <point x="157" y="-476"/>
      <point x="85" y="-436"/>
      <point x="47" y="-366" type="curve"/>
      <point x="0" y="-394" type="line"/>
      <point x="47" y="-481"/>
      <point x="135" y="-532"/>
      <point x="243" y="-532" type="curve" smooth="yes"/>
      <point x="380" y="-532"/>
      <point x="478" y="-449"/>
      <point x="478" y="-332" type="curve" smooth="yes"/>
      <point x="478" y="-222"/>
      <point x="390" y="-148"/>
      <point x="275" y="-148" type="curve" smooth="yes"/>
      <point x="250" y="-148"/>
      <point x="224" y="-152"/>
      <point x="195" y="-160" type="curve"/>
      <point x="202" y="-165" type="line"/>
      <point x="265" y="28" type="line"/>
    </contour>
  </outline>
</glyph>
<glyph name="ogonekcomb" format="2">
  <advance width="526"/>
  <unicode hex="0328"/>
  <anchor x="242" y="28" name="_ogonek"/>
  <outline>
    <contour>
      <point x="250" y="-531" type="curve" smooth="yes"/>
      <point x="359" y="-531"/>
      <point x="465" y="-476"/>
      <point x="526" y="-387" type="curve"/>
      <point x="485" y="-358" type="line"/>
      <point x="414" y="-436"/>
      <point x="343" y="-470"/>
      <point x="258" y="-470" type="curve" smooth="yes"/>
      <point x="128" y="-470"/>
      <point x="62" y="-395"/>
      <point x="62" y="-301" type="curve" smooth="yes"/>
      <point x="62" y="-209"/>
      <point x="126" y="-93"/>
      <point x="242" y="28" type="curve"/>
      <point x="185" y="28" type="line"/>
      <point x="67" y="-97"/>
      <point x="0" y="-208"/>
      <point x="0" y="-307" type="curve" smooth="yes"/>
      <point x="0" y="-430"/>
      <point x="103" y="-531"/>
    </contour>
  </outline>
</glyph>
<glyph name="Delta" format="2">
  <advance width="1628"/>
  <unicode hex="0394"/>
  <outline>
    <contour>
      <point x="795" y="1650" type="line"/>
      <point x="149" y="0" type="line"/>
      <point x="1480" y="0" type="line"/>
      <point x="834" y="1650" type="line"/>
    </contour>
    <contour>
      <point x="800" y="1608" type="line"/>
      <point x="1392" y="55" type="line"/>
      <point x="236" y="55" type="line"/>
      <point x="828" y="1608" type="line"/>
    </contour>
  </outline>
</glyph>
<glyph name="Omega" format="2">
  <advance width="1962"/>
  <unicode hex="03A9"/>
  <outline>
    <contour>
      <point x="981" y="1680" type="curve" smooth="yes"/>
      <point x="545" y="1680"/>
      <point x="196" y="1321"/>
      <point x="196" y="875" type="curve" smooth="yes"/>
      <point x="196" y="503"/>
      <point x="453" y="176"/>
      <point x="823" y="63" type="curve"/>
      <point x="300" y="58" type="line"/>
      <point x="300" y="0" type="line"/>
      <point x="937" y="0" type="line"/>
      <point x="937" y="70" type="line"/>
      <point x="907" y="78" type="line" smooth="yes"/>
      <point x="549" y="177"/>
      <point x="273" y="513"/>
      <point x="273" y="859" type="curve" smooth="yes"/>
      <point x="273" y="1270"/>
      <point x="584" y="1607"/>
      <point x="981" y="1607" type="curve" smooth="yes"/>
      <point x="1378" y="1607"/>
      <point x="1689" y="1270"/>
      <point x="1689" y="859" type="curve" smooth="yes"/>
      <point x="1689" y="513"/>
      <point x="1413" y="177"/>
      <point x="1055" y="78" type="curve" smooth="yes"/>
      <point x="1025" y="70" type="line"/>
      <point x="1025" y="0" type="line"/>
      <point x="1662" y="0" type="line"/>
      <point x="1662" y="58" type="line"/>
      <point x="1139" y="63" type="line"/>
      <point x="1509" y="176"/>
      <point x="1767" y="503"/>
      <point x="1767" y="875" type="curve" smooth="yes"/>
      <point x="1767" y="1321"/>
      <point x="1418" y="1680"/>
    </contour>
  </outline>
</glyph>
<glyph name="mu" format="2">
  <advance width="1469"/>
  <unicode hex="03BC"/>
  <outline>
    <contour>
      <point x="430" y="-320" type="line"/>
      <point x="430" y="124" type="line"/>
      <point x="486" y="27"/>
      <point x="587" y="-32"/>
      <point x="751" y="-32" type="curve" smooth="yes"/>
      <point x="865" y="-32"/>
      <point x="1022" y="22"/>
      <point x="1077" y="151" type="curve"/>
      <point x="1077" y="0" type="line"/>
      <point x="1152" y="0" type="line"/>
      <point x="1152" y="1024" type="line"/>
      <point x="1077" y="1024" type="line"/>
      <point x="1077" y="330" type="line" smooth="yes"/>
      <point x="1077" y="186"/>
      <point x="959" y="32"/>
      <point x="756" y="32" type="curve" smooth="yes"/>
      <point x="532" y="32"/>
      <point x="430" y="169"/>
      <point x="430" y="405" type="curve" smooth="yes"/>
      <point x="430" y="1024" type="line"/>
      <point x="355" y="1024" type="line"/>
      <point x="355" y="444" type="line" smooth="yes"/>
      <point x="355" y="159"/>
      <point x="323" y="28"/>
      <point x="323" y="-320" type="curve"/>
    </contour>
  </outline>
</glyph>
<glyph name="pi" format="2">
  <advance width="1263"/>
  <unicode hex="03C0"/>
  <outline>
    <contour>
      <point x="474" y="0" type="line"/>
      <point x="474" y="956" type="line"/>
      <point x="808" y="956" type="line"/>
      <point x="808" y="157" type="line" smooth="yes"/>
      <point x="808" y="44"/>
      <point x="850" y="0"/>
      <point x="962" y="0" type="curve"/>
      <point x="962" y="69" type="line"/>
      <point x="898" y="69"/>
      <point x="877" y="92"/>
      <point x="877" y="161" type="curve" smooth="yes"/>
      <point x="877" y="956" type="line"/>
      <point x="1051" y="956" type="line"/>
      <point x="1051" y="1024" type="line"/>
      <point x="231" y="1024" type="line"/>
      <point x="231" y="956" type="line"/>
      <point x="404" y="956" type="line"/>
      <point x="404" y="0" type="line"/>
    </contour>
  </outline>
</glyph>
<glyph name="Germandbls" format="2">
  <advance width="1500"/>
  <unicode hex="1E9E"/>
  <outline>
    <contour>
      <point x="887" y="-32" type="curve" smooth="yes"/>
      <point x="1141" y="-32"/>
      <point x="1319" y="142"/>
      <point x="1319" y="388" type="curve" smooth="yes"/>
      <point x="1319" y="766"/>
      <point x="895" y="747"/>
      <point x="895" y="912" type="curve" smooth="yes"/>
      <point x="895" y="1031"/>
      <point x="1115" y="1043"/>
      <point x="1115" y="1314" type="curve" smooth="yes"/>
      <point x="1115" y="1548"/>
      <point x="951" y="1681"/>
      <point x="734" y="1681" type="curve" smooth="yes"/>
      <point x="447" y="1681"/>
      <point x="288" y="1449"/>
      <point x="288" y="1109" type="curve" smooth="yes"/>
      <point x="288" y="0" type="line" name=".hr01"/>
      <point x="364" y="0" type="line"/>
      <point x="364" y="1106" type="line" smooth="yes"/>
      <point x="364" y="1413"/>
      <point x="494" y="1602"/>
      <point x="729" y="1602" type="curve" smooth="yes"/>
      <point x="904" y="1602"/>
      <point x="1035" y="1497"/>
      <point x="1035" y="1308" type="curve" smooth="yes"/>
      <point x="1035" y="1063"/>
      <point x="816" y="1070"/>
      <point x="816" y="911" type="curve" smooth="yes"/>
      <point x="816" y="691"/>
      <point x="1240" y="733"/>
      <point x="1240" y="387" type="curve" smooth="yes"/>
      <point x="1240" y="175"/>
      <point x="1084" y="41" name=".hr02"/>
      <point x="890" y="41" type="curve" smooth="yes"/>
      <point x="769" y="41"/>
      <point x="671" y="92"/>
      <point x="561" y="178" type="curve"/>
      <point x="520" y="113" type="line"/>
      <point x="653" y="14"/>
      <point x="758" y="-32"/>
    </contour>
  </outline>
</glyph>
<glyph name="endash" format="2">
  <advance width="1257"/>
  <unicode hex="2013"/>
  <outline>
    <contour>
      <point x="1026" y="548" type="line"/>
      <point x="1026" y="610" type="line"/>
      <point x="231" y="610" type="line"/>
      <point x="231" y="548" type="line"/>
    </contour>
  </outline>
</glyph>
<glyph name="emdash" format="2">
  <advance width="2005"/>
  <unicode hex="2014"/>
  <outline>
    <contour>
      <point x="1774" y="548" type="line"/>
      <point x="1774" y="610" type="line"/>
      <point x="231" y="610" type="line"/>
      <point x="231" y="548" type="line"/>
    </contour>
  </outline>
</glyph>
<glyph name="quotesinglbase" format="2">
  <advance width="713"/>
  <unicode hex="201A"/>
  <outline>
    <contour>
      <point x="273" y="-194" type="line"/>
      <point x="321" y="-158"/>
      <point x="371" y="-65"/>
      <point x="371" y="5" type="curve" smooth="yes"/>
      <point x="371" y="60"/>
      <point x="339" y="86"/>
      <point x="305" y="86" type="curve" smooth="yes"/>
      <point x="271" y="86"/>
      <point x="245" y="59"/>
      <point x="245" y="28" type="curve" smooth="yes"/>
      <point x="245" y="-3"/>
      <point x="269" y="-28"/>
      <point x="300" y="-30" type="curve"/>
      <point x="299" y="-93"/>
      <point x="284" y="-143"/>
      <point x="257" y="-180" type="curve"/>
    </contour>
  </outline>
</glyph>
<glyph name="dagger" format="2">
  <advance width="1224"/>
  <unicode hex="2020"/>
  <outline>
    <contour>
      <point x="648" y="0" type="line"/>
      <point x="648" y="1129" type="line"/>
      <point x="1014" y="1129" type="line"/>
      <point x="1014" y="1199" type="line"/>
      <point x="648" y="1199" type="line"/>
      <point x="648" y="1720" type="line"/>
      <point x="576" y="1720" type="line"/>
      <point x="576" y="1199" type="line"/>
      <point x="210" y="1199" type="line"/>
      <point x="210" y="1129" type="line"/>
      <point x="576" y="1129" type="line"/>
      <point x="576" y="0" type="line"/>
    </contour>
  </outline>
</glyph>
<glyph name="daggerdbl" format="2">
  <advance width="1264"/>
  <unicode hex="2021"/>
  <outline>
    <contour>
      <point x="668" y="0" type="line"/>
      <point x="668" y="561" type="line"/>
      <point x="1034" y="561" type="line"/>
      <point x="1034" y="631" type="line"/>
      <point x="668" y="631" type="line"/>
      <point x="668" y="1127" type="line"/>
      <point x="1034" y="1127" type="line"/>
      <point x="1034" y="1196" type="line"/>
      <point x="668" y="1196" type="line"/>
      <point x="668" y="1720" type="line"/>
      <point x="596" y="1720" type="line"/>
      <point x="596" y="1196" type="line"/>
      <point x="230" y="1196" type="line"/>
      <point x="230" y="1127" type="line"/>
      <point x="596" y="1127" type="line"/>
      <point x="596" y="631" type="line"/>
      <point x="230" y="631" type="line"/>
      <point x="230" y="561" type="line"/>
      <point x="596" y="561" type="line"/>
      <point x="596" y="0" type="line"/>
    </contour>
  </outline>
</glyph>
<glyph name="bullet" format="2">
  <advance width="773"/>
  <unicode hex="2022"/>
  <outline>
    <contour>
      <point x="387" y="635" type="curve" smooth="yes"/>
      <point x="431" y="635"/>
      <point x="466" y="670"/>
      <point x="466" y="714" type="curve" smooth="yes"/>
      <point x="466" y="758"/>
      <point x="431" y="793"/>
      <point x="387" y="793" type="curve" smooth="yes"/>
      <point x="344" y="793"/>
      <point x="307" y="758"/>
      <point x="307" y="714" type="curve" smooth="yes"/>
      <point x="307" y="670"/>
      <point x="344" y="635"/>
    </contour>
  </outline>
</glyph>
<glyph name="perthousand" format="2">
  <advance width="3215"/>
  <unicode hex="2030"/>
  <outline>
    <component base="percent"/>
    <contour>
      <point x="2588" y="-32" type="curve" smooth="yes"/>
      <point x="2813" y="-32"/>
      <point x="2987" y="130"/>
      <point x="2987" y="362" type="curve" smooth="yes"/>
      <point x="2987" y="594"/>
      <point x="2813" y="756"/>
      <point x="2588" y="756" type="curve" smooth="yes"/>
      <point x="2364" y="756"/>
      <point x="2188" y="594"/>
      <point x="2188" y="362" type="curve" smooth="yes"/>
      <point x="2188" y="130"/>
      <point x="2364" y="-32"/>
    </contour>
    <contour>
      <point x="2588" y="31" type="curve" smooth="yes"/>
      <point x="2399" y="31"/>
      <point x="2260" y="168"/>
      <point x="2260" y="362" type="curve" smooth="yes"/>
      <point x="2260" y="556"/>
      <point x="2399" y="693"/>
      <point x="2588" y="693" type="curve" smooth="yes"/>
      <point x="2778" y="693"/>
      <point x="2915" y="556"/>
      <point x="2915" y="362" type="curve" smooth="yes"/>
      <point x="2915" y="168"/>
      <point x="2778" y="31"/>
    </contour>
  </outline>
</glyph>
<glyph name="guilsinglleft" format="2">
  <advance width="761"/>
  <unicode hex="2039"/>
  <outline>
    <contour>
      <point x="597" y="99" type="line"/>
      <point x="240" y="556" type="line"/>
      <point x="597" y="1013" type="line"/>
      <point x="542" y="1056" type="line"/>
      <point x="152" y="556" type="line"/>
      <point x="542" y="56" type="line"/>
    </contour>
  </outline>
</glyph>
<glyph name="guilsinglright" format="2">
  <advance width="761"/>
  <unicode hex="203A"/>
  <outline>
    <contour>
      <point x="609" y="556" type="line"/>
      <point x="219" y="1056" type="line"/>
      <point x="164" y="1013" type="line"/>
      <point x="521" y="556" type="line"/>
      <point x="164" y="99" type="line"/>
      <point x="219" y="56" type="line"/>
    </contour>
  </outline>
</glyph>
<glyph name="foursuperior" format="2">
  <advance width="980"/>
  <unicode hex="2074"/>
  <outline>
    <contour>
      <point x="640" y="1040" type="line"/>
      <point x="640" y="1154" type="line"/>
      <point x="719" y="1154" type="line"/>
      <point x="719" y="1193" type="line"/>
      <point x="640" y="1193" type="line"/>
      <point x="640" y="1650" type="line"/>
      <point x="600" y="1650" type="line"/>
      <point x="259" y="1181" type="line"/>
      <point x="259" y="1154" type="line"/>
      <point x="598" y="1154" type="line"/>
      <point x="598" y="1040" type="line"/>
    </contour>
    <contour>
      <point x="598" y="1585" type="line"/>
      <point x="598" y="1193" type="line"/>
      <point x="316" y="1193" type="line"/>
    </contour>
  </outline>
</glyph>
<glyph name="euro" format="2">
  <advance width="2023"/>
  <unicode hex="20AC"/>
  <outline>
    <component base="C" xOffset="245" yOffset="-2"/>
    <contour>
      <point x="251" y="1020" type="line"/>
      <point x="251" y="963" type="line"/>
      <point x="1495" y="963" type="line"/>
      <point x="1495" y="1020" type="line"/>
    </contour>
    <contour>
      <point x="251" y="684" type="line"/>
      <point x="251" y="627" type="line"/>
      <point x="1495" y="627" type="line"/>
      <point x="1495" y="684" type="line"/>
    </contour>
  </outline>
</glyph>
<glyph name="arrowup" format="2">
  <advance width="2112"/>
  <unicode hex="2191"/>
  <outline>
    <contour>
      <point x="1094" y="1622" type="line"/>
      <point x="1018" y="1622" type="line"/>
      <point x="1018" y="0" type="line"/>
      <point x="1094" y="0" type="line"/>
    </contour>
    <contour>
      <point x="1056" y="1680" type="line"/>
      <point x="231" y="855" type="line"/>
      <point x="231" y="747" type="line"/>
      <point x="1075" y="1595" type="line"/>
      <point x="1037" y="1595" type="line"/>
      <point x="1881" y="747" type="line"/>
      <point x="1881" y="855" type="line"/>
    </contour>
  </outline>
</glyph>
<glyph name="arrowboth" format="2">
  <advance width="2441"/>
  <unicode hex="2194"/>
  <outline>
    <contour>
      <point x="281" y="863" type="line"/>
      <point x="281" y="787" type="line"/>
      <point x="2161" y="787" type="line"/>
      <point x="2161" y="863" type="line"/>
    </contour>
    <contour>
      <point x="899" y="1650" type="line"/>
      <point x="231" y="825" type="line"/>
      <point x="899" y="0" type="line"/>
      <point x="1002" y="0" type="line"/>
      <point x="315" y="844" type="line"/>
      <point x="315" y="806" type="line"/>
      <point x="1002" y="1650" type="line"/>
    </contour>
    <contour>
      <point x="1439" y="1650" type="line"/>
      <point x="2126" y="806" type="line"/>
      <point x="2126" y="844" type="line"/>
      <point x="1439" y="0" type="line"/>
      <point x="1542" y="0" type="line"/>
      <point x="2210" y="825" type="line"/>
      <point x="1542" y="1650" type="line"/>
    </contour>
  </outline>
</glyph>
<glyph name="arrowupdn" format="2">
  <advance width="1592"/>
  <unicode hex="2195"/>
  <outline>
    <contour>
      <point x="834" y="1622" type="line"/>
      <point x="758" y="1622" type="line"/>
      <point x="758" y="13" type="line"/>
      <point x="834" y="13" type="line"/>
    </contour>
    <contour>
      <point x="796" y="1680" type="line"/>
      <point x="231" y="1125" type="line"/>
      <point x="231" y="1027" type="line"/>
      <point x="815" y="1602" type="line"/>
      <point x="777" y="1602" type="line"/>
      <point x="1361" y="1027" type="line"/>
      <point x="1361" y="1125" type="line"/>
    </contour>
    <contour>
      <point x="231" y="623" type="line"/>
      <point x="231" y="525" type="line"/>
      <point x="796" y="-30" type="line"/>
      <point x="1361" y="525" type="line"/>
      <point x="1361" y="623" type="line"/>
      <point x="777" y="48" type="line"/>
      <point x="815" y="48" type="line"/>
    </contour>
  </outline>
</glyph>
<glyph name="arrowNW" format="2">
  <advance width="1990"/>
  <unicode hex="2196"/>
  <outline>
    <contour>
      <point x="298" y="1636" type="line"/>
      <point x="245" y="1583" type="line"/>
      <point x="1684" y="143" type="line"/>
      <point x="1738" y="197" type="line"/>
    </contour>
    <contour>
      <point x="231" y="1650" type="line"/>
      <point x="231" y="198" type="line"/>
      <point x="307" y="122" type="line"/>
      <point x="304" y="1603" type="line"/>
      <point x="277" y="1576" type="line"/>
      <point x="1759" y="1573" type="line"/>
      <point x="1683" y="1650" type="line"/>
    </contour>
  </outline>
</glyph>
<glyph name="arrowNE" format="2">
  <advance width="1990"/>
  <unicode hex="2197"/>
  <outline>
    <contour>
      <point x="1745" y="1583" type="line"/>
      <point x="1692" y="1636" type="line"/>
      <point x="252" y="197" type="line"/>
      <point x="306" y="143" type="line"/>
    </contour>
    <contour>
      <point x="1759" y="1650" type="line"/>
      <point x="307" y="1650" type="line"/>
      <point x="231" y="1574" type="line"/>
      <point x="1712" y="1577" type="line"/>
      <point x="1685" y="1604" type="line"/>
      <point x="1682" y="122" type="line"/>
      <point x="1759" y="198" type="line"/>
    </contour>
  </outline>
</glyph>
<glyph name="arrowSE" format="2">
  <advance width="1990"/>
  <unicode hex="2198"/>
  <outline>
    <contour>
      <point x="1692" y="14" type="line"/>
      <point x="1745" y="67" type="line"/>
      <point x="306" y="1507" type="line"/>
      <point x="252" y="1453" type="line"/>
    </contour>
    <contour>
      <point x="1759" y="0" type="line"/>
      <point x="1759" y="1452" type="line"/>
      <point x="1683" y="1528" type="line"/>
      <point x="1686" y="47" type="line"/>
      <point x="1713" y="74" type="line"/>
      <point x="231" y="77" type="line"/>
      <point x="307" y="0" type="line"/>
    </contour>
  </outline>
</glyph>
<glyph name="arrowSW" format="2">
  <advance width="1990"/>
  <unicode hex="2199"/>
  <outline>
    <contour>
      <point x="245" y="67" type="line"/>
      <point x="298" y="14" type="line"/>
      <point x="1738" y="1453" type="line"/>
      <point x="1684" y="1507" type="line"/>
    </contour>
    <contour>
      <point x="231" y="0" type="line"/>
      <point x="1683" y="0" type="line"/>
      <point x="1759" y="76" type="line"/>
      <point x="278" y="73" type="line"/>
      <point x="305" y="46" type="line"/>
      <point x="308" y="1528" type="line"/>
      <point x="231" y="1452" type="line"/>
    </contour>
  </outline>
</glyph>
<glyph name="partialdiff" format="2">
  <advance width="1496"/>
  <unicode hex="2202"/>
  <outline>
    <contour>
      <point x="759" y="-31" type="curve" smooth="yes"/>
      <point x="1155" y="-31"/>
      <point x="1312" y="273"/>
      <point x="1312" y="700" type="curve" smooth="yes"/>
      <point x="1312" y="1171"/>
      <point x="1120" y="1548"/>
      <point x="737" y="1774" type="curve"/>
      <point x="700" y="1713" type="line"/>
      <point x="1071" y="1498"/>
      <point x="1230" y="1169"/>
      <point x="1235" y="732" type="curve"/>
      <point x="1157" y="938"/>
      <point x="947" y="1062"/>
      <point x="724" y="1062" type="curve" smooth="yes"/>
      <point x="400" y="1062"/>
      <point x="185" y="805"/>
      <point x="185" y="511" type="curve" smooth="yes"/>
      <point x="185" y="195"/>
      <point x="431" y="-31"/>
    </contour>
    <contour>
      <point x="746" y="38" type="curve" smooth="yes"/>
      <point x="486" y="38"/>
      <point x="257" y="219"/>
      <point x="257" y="508" type="curve" smooth="yes"/>
      <point x="257" y="764"/>
      <point x="438" y="992"/>
      <point x="729" y="992" type="curve" smooth="yes"/>
      <point x="988" y="992"/>
      <point x="1219" y="810"/>
      <point x="1219" y="522" type="curve" smooth="yes"/>
      <point x="1219" y="265"/>
      <point x="1036" y="38"/>
    </contour>
  </outline>
</glyph>
<glyph name="emptyset" format="2">
  <advance width="1200"/>
  <unicode hex="2205"/>
  <outline>
    <contour>
      <point x="1081" y="1094" type="line"/>
      <point x="1045" y="1130" type="line"/>
      <point x="140" y="225" type="line"/>
      <point x="176" y="190" type="line"/>
    </contour>
    <contour>
      <point x="610" y="208" type="curve" smooth="yes"/>
      <point x="860" y="208"/>
      <point x="1062" y="409"/>
      <point x="1062" y="660" type="curve" smooth="yes"/>
      <point x="1062" y="907"/>
      <point x="863" y="1111"/>
      <point x="611" y="1111" type="curve" smooth="yes"/>
      <point x="359" y="1111"/>
      <point x="159" y="908"/>
      <point x="159" y="659" type="curve" smooth="yes"/>
      <point x="159" y="410"/>
      <point x="359" y="208"/>
    </contour>
    <contour>
      <point x="611" y="262" type="curve" smooth="yes"/>
      <point x="390" y="262"/>
      <point x="213" y="439"/>
      <point x="213" y="660" type="curve" smooth="yes"/>
      <point x="213" y="881"/>
      <point x="390" y="1057"/>
      <point x="611" y="1057" type="curve" smooth="yes"/>
      <point x="831" y="1057"/>
      <point x="1009" y="881"/>
      <point x="1009" y="660" type="curve" smooth="yes"/>
      <point x="1009" y="439"/>
      <point x="831" y="262"/>
    </contour>
  </outline>
</glyph>
<glyph name="product" format="2">
  <advance width="1866"/>
  <unicode hex="220F"/>
  <outline>
    <contour>
      <point x="531" y="0" type="line"/>
      <point x="531" y="1652" type="line"/>
      <point x="1335" y="1652" type="line"/>
      <point x="1335" y="0" type="line"/>
      <point x="1405" y="0" type="line"/>
      <point x="1405" y="1652" type="line"/>
      <point x="1578" y="1652" type="line"/>
      <point x="1578" y="1720" type="line"/>
      <point x="288" y="1720" type="line"/>
      <point x="288" y="1652" type="line"/>
      <point x="461" y="1652" type="line"/>
      <point x="461" y="0" type="line"/>
    </contour>
  </outline>
</glyph>
<glyph name="summation" format="2">
  <advance width="1574"/>
  <unicode hex="2211"/>
  <outline>
    <contour>
      <point x="1286" y="0" type="line"/>
      <point x="1286" y="68" type="line"/>
      <point x="414" y="68" type="line"/>
      <point x="931" y="860" type="line"/>
      <point x="414" y="1652" type="line"/>
      <point x="1286" y="1652" type="line"/>
      <point x="1286" y="1720" type="line"/>
      <point x="288" y="1720" type="line"/>
      <point x="850" y="860" type="line"/>
      <point x="288" y="0" type="line"/>
    </contour>
  </outline>
</glyph>
<glyph name="minus" format="2">
  <advance width="1716"/>
  <unicode hex="2212"/>
  <outline>
    <contour>
      <point x="1370" y="796" type="line"/>
      <point x="1370" y="860" type="line"/>
      <point x="346" y="860" type="line"/>
      <point x="346" y="796" type="line"/>
    </contour>
  </outline>
</glyph>
<glyph name="radical" format="2">
  <advance width="1620"/>
  <unicode hex="221A"/>
  <outline>
    <contour>
      <point x="588" y="-32" type="line"/>
      <point x="990" y="1652" type="line"/>
      <point x="1332" y="1652" type="line"/>
      <point x="1332" y="1720" type="line"/>
      <point x="934" y="1720" type="line"/>
      <point x="546" y="76" type="line"/>
      <point x="359" y="609" type="line"/>
      <point x="288" y="609" type="line"/>
      <point x="515" y="-32" type="line"/>
    </contour>
  </outline>
</glyph>
<glyph name="infinity" format="2">
  <advance width="2159"/>
  <unicode hex="221E"/>
  <outline>
    <contour>
      <point x="566" y="129" type="curve" smooth="yes"/>
      <point x="763" y="129"/>
      <point x="916" y="289"/>
      <point x="1080" y="496" type="curve"/>
      <point x="1244" y="289"/>
      <point x="1397" y="129"/>
      <point x="1594" y="129" type="curve" smooth="yes"/>
      <point x="1801" y="129"/>
      <point x="2002" y="302"/>
      <point x="2002" y="545" type="curve" smooth="yes"/>
      <point x="2002" y="788"/>
      <point x="1800" y="960"/>
      <point x="1594" y="960" type="curve" smooth="yes"/>
      <point x="1397" y="960"/>
      <point x="1244" y="800"/>
      <point x="1080" y="594" type="curve"/>
      <point x="916" y="800"/>
      <point x="763" y="960"/>
      <point x="566" y="960" type="curve" smooth="yes"/>
      <point x="360" y="960"/>
      <point x="158" y="788"/>
      <point x="158" y="545" type="curve" smooth="yes"/>
      <point x="158" y="302"/>
      <point x="359" y="129"/>
    </contour>
    <contour>
      <point x="568" y="196" type="curve" smooth="yes"/>
      <point x="398" y="196"/>
      <point x="227" y="337"/>
      <point x="227" y="545" type="curve" smooth="yes"/>
      <point x="227" y="753"/>
      <point x="399" y="893"/>
      <point x="568" y="893" type="curve" smooth="yes"/>
      <point x="746" y="893"/>
      <point x="875" y="738"/>
      <point x="1041" y="545" type="curve"/>
      <point x="875" y="351"/>
      <point x="745" y="196"/>
    </contour>
    <contour>
      <point x="1592" y="196" type="curve" smooth="yes"/>
      <point x="1415" y="196"/>
      <point x="1285" y="351"/>
      <point x="1119" y="545" type="curve"/>
      <point x="1285" y="738"/>
      <point x="1414" y="893"/>
      <point x="1592" y="893" type="curve" smooth="yes"/>
      <point x="1761" y="893"/>
      <point x="1933" y="753"/>
      <point x="1933" y="545" type="curve" smooth="yes"/>
      <point x="1933" y="337"/>
      <point x="1762" y="196"/>
    </contour>
  </outline>
</glyph>
<glyph name="integral" format="2">
  <advance width="853"/>
  <unicode hex="222B"/>
  <outline>
    <contour>
      <point x="35" y="-551" type="curve" smooth="yes"/>
      <point x="197" y="-551"/>
      <point x="289" y="-446"/>
      <point x="311" y="-242" type="curve"/>
      <point x="487" y="1450" type="line"/>
      <point x="502" y="1601"/>
      <point x="574" y="1685"/>
      <point x="690" y="1685" type="curve" smooth="yes"/>
      <point x="738" y="1685"/>
      <point x="781" y="1671"/>
      <point x="807" y="1646" type="curve"/>
      <point x="839" y="1701" type="line"/>
      <point x="801" y="1734"/>
      <point x="750" y="1750"/>
      <point x="686" y="1750" type="curve" smooth="yes"/>
      <point x="524" y="1750"/>
      <point x="432" y="1645"/>
      <point x="410" y="1441" type="curve"/>
      <point x="234" y="-251" type="line" smooth="yes"/>
      <point x="218" y="-402"/>
      <point x="147" y="-486"/>
      <point x="31" y="-486" type="curve" smooth="yes"/>
      <point x="-17" y="-486"/>
      <point x="-60" y="-472"/>
      <point x="-86" y="-447" type="curve"/>
      <point x="-119" y="-502" type="line"/>
      <point x="-81" y="-535"/>
      <point x="-29" y="-551"/>
    </contour>
  </outline>
</glyph>
<glyph name="notequal" format="2">
  <advance width="1534"/>
  <unicode hex="2260"/>
  <outline>
    <component base="equal" xOffset="-98"/>
    <contour>
      <point x="430" y="297" type="line"/>
      <point x="1044" y="1353" type="line"/>
      <point x="984" y="1353" type="line"/>
      <point x="370" y="297" type="line"/>
    </contour>
  </outline>
</glyph>
<glyph name="lessequal" format="2">
  <advance width="1572"/>
  <unicode hex="2264"/>
  <outline>
    <contour>
      <point x="1324" y="478" type="line"/>
      <point x="302" y="979" type="line"/>
      <point x="1324" y="1480" type="line"/>
      <point x="1324" y="1541" type="line"/>
      <point x="229" y="1003" type="line"/>
      <point x="229" y="955" type="line"/>
      <point x="1324" y="417" type="line"/>
    </contour>
    <contour>
      <point x="1324" y="184" type="line"/>
      <point x="1324" y="248" type="line"/>
      <point x="229" y="248" type="line"/>
      <point x="229" y="184" type="line"/>
    </contour>
  </outline>
</glyph>
<glyph name="greaterequal" format="2">
  <advance width="1572"/>
  <unicode hex="2265"/>
  <outline>
    <contour>
      <point x="1343" y="955" type="line"/>
      <point x="1343" y="1003" type="line"/>
      <point x="249" y="1541" type="line"/>
      <point x="249" y="1480" type="line"/>
      <point x="1270" y="979" type="line"/>
      <point x="249" y="478" type="line"/>
      <point x="249" y="417" type="line"/>
    </contour>
    <contour>
      <point x="1343" y="184" type="line"/>
      <point x="1343" y="248" type="line"/>
      <point x="249" y="248" type="line"/>
      <point x="249" y="184" type="line"/>
    </contour>
  </outline>
</glyph>
<glyph name="lozenge" format="2">
  <advance width="1200"/>
  <unicode hex="25CA"/>
  <outline>
    <contour>
      <point x="658" y="-80" type="line"/>
      <point x="1078" y="795" type="line"/>
      <point x="658" y="1670" type="line"/>
      <point x="542" y="1670" type="line"/>
      <point x="122" y="795" type="line"/>
      <point x="542" y="-80" type="line"/>
    </contour>
    <contour>
      <point x="214" y="795" type="line"/>
      <point x="600" y="1596" type="line"/>
      <point x="986" y="795" type="line"/>
      <point x="600" y="-6" type="line"/>
    </contour>
  </outline>
</glyph>
<glyph name="f_f" format="2">
  <advance width="1248"/>
  <unicode hex="FB00"/>
  <anchor x="620" y="0" name="caret_1"/>
  <outline>
    <contour>
      <point x="363" y="0" type="line"/>
      <point x="363" y="968" type="line"/>
      <point x="696" y="968" type="line"/>
      <point x="696" y="0" type="line"/>
      <point x="771" y="0" type="line"/>
      <point x="771" y="968" type="line"/>
      <point x="1041" y="968" type="line"/>
      <point x="1041" y="1024" type="line"/>
      <point x="771" y="1024" type="line"/>
      <point x="771" y="1450" type="line" smooth="yes"/>
      <point x="771" y="1620"/>
      <point x="834" y="1685"/>
      <point x="947" y="1685" type="curve" smooth="yes"/>
      <point x="1004" y="1685"/>
      <point x="1044" y="1670"/>
      <point x="1071" y="1646" type="curve"/>
      <point x="1098" y="1701" type="line"/>
      <point x="1068" y="1724"/>
      <point x="1020" y="1750"/>
      <point x="939" y="1750" type="curve" smooth="yes"/>
      <point x="795" y="1750"/>
      <point x="696" y="1666"/>
      <point x="696" y="1441" type="curve" smooth="yes"/>
      <point x="696" y="1024" type="line"/>
      <point x="363" y="1024" type="line"/>
      <point x="363" y="1450" type="line" smooth="yes"/>
      <point x="363" y="1620"/>
      <point x="426" y="1685"/>
      <point x="538" y="1685" type="curve" smooth="yes"/>
      <point x="579" y="1685"/>
      <point x="611" y="1677"/>
      <point x="637" y="1663" type="curve"/>
      <point x="667" y="1716" type="line"/>
      <point x="637" y="1734"/>
      <point x="593" y="1750"/>
      <point x="531" y="1750" type="curve" smooth="yes"/>
      <point x="387" y="1750"/>
      <point x="288" y="1666"/>
      <point x="288" y="1441" type="curve" smooth="yes"/>
      <point x="288" y="1024" type="line"/>
      <point x="200" y="1024" type="line"/>
      <point x="200" y="968" type="line"/>
      <point x="288" y="968" type="line"/>
      <point x="288" y="0" type="line"/>
    </contour>
  </outline>
</glyph>
<glyph name="fi" format="2">
  <advance width="890"/>
  <unicode hex="FB01"/>
  <anchor x="445" y="0" name="caret_1"/>
  <outline>
    <contour>
      <point x="310" y="0" type="line"/>
      <point x="310" y="968" type="line"/>
      <point x="629" y="968" type="line"/>
      <point x="629" y="0" type="line"/>
      <point x="704" y="0" type="line"/>
      <point x="704" y="1024" type="line"/>
      <point x="310" y="1024" type="line"/>
      <point x="310" y="1450" type="line" smooth="yes"/>
      <point x="310" y="1620"/>
      <point x="374" y="1686"/>
      <point x="488" y="1686" type="curve" smooth="yes"/>
      <point x="548" y="1686"/>
      <point x="618" y="1648"/>
      <point x="641" y="1591" type="curve"/>
      <point x="692" y="1623" type="line"/>
      <point x="652" y="1703"/>
      <point x="564" y="1750"/>
      <point x="478" y="1750" type="curve" smooth="yes"/>
      <point x="334" y="1750"/>
      <point x="235" y="1666"/>
      <point x="235" y="1441" type="curve" smooth="yes"/>
      <point x="235" y="1024" type="line"/>
      <point x="147" y="1024" type="line"/>
      <point x="147" y="968" type="line"/>
      <point x="235" y="968" type="line"/>
      <point x="235" y="0" type="line"/>
    </contour>
  </outline>
</glyph>
<glyph name="fl" format="2">
  <advance width="1071"/>
  <unicode hex="FB02"/>
  <anchor x="534" y="0" name="caret_1"/>
  <outline>
    <contour>
      <point x="350" y="0" type="line"/>
      <point x="350" y="968" type="line"/>
      <point x="620" y="968" type="line"/>
      <point x="620" y="1024" type="line"/>
      <point x="350" y="1024" type="line"/>
      <point x="350" y="1450" type="line" smooth="yes"/>
      <point x="350" y="1620"/>
      <point x="414" y="1685"/>
      <point x="526" y="1685" type="curve" smooth="yes"/>
      <point x="565" y="1685"/>
      <point x="597" y="1678"/>
      <point x="623" y="1664" type="curve"/>
      <point x="650" y="1719" type="line"/>
      <point x="622" y="1735"/>
      <point x="579" y="1750"/>
      <point x="518" y="1750" type="curve" smooth="yes"/>
      <point x="375" y="1750"/>
      <point x="278" y="1666"/>
      <point x="278" y="1441" type="curve" smooth="yes"/>
      <point x="278" y="1024" type="line"/>
      <point x="188" y="1024" type="line"/>
      <point x="188" y="968" type="line"/>
      <point x="278" y="968" type="line"/>
      <point x="278" y="0" type="line"/>
    </contour>
    <contour>
      <point x="797" y="0" type="line"/>
      <point x="797" y="1720" type="line" name=".hr01"/>
      <point x="726" y="1720" type="line"/>
      <point x="726" y="0" type="line"/>
    </contour>
  </outline>
</glyph>
<glyph name="f_f_i" format="2">
  <advance width="1386"/>
  <unicode hex="FB03"/>
  <anchor x="462" y="0" name="caret_1"/>
  <anchor x="924" y="0" name="caret_2"/>
  <outline>
    <contour>
      <point x="354" y="0" type="line"/>
      <point x="354" y="968" type="line"/>
      <point x="688" y="968" type="line"/>
      <point x="688" y="0" type="line"/>
      <point x="763" y="0" type="line"/>
      <point x="763" y="968" type="line"/>
      <point x="1080" y="968" type="line"/>
      <point x="1080" y="0" type="line"/>
      <point x="1154" y="0" type="line"/>
      <point x="1154" y="1024" type="line"/>
      <point x="763" y="1024" type="line"/>
      <point x="763" y="1450" type="line" smooth="yes"/>
      <point x="763" y="1620"/>
      <point x="827" y="1686"/>
      <point x="941" y="1686" type="curve" smooth="yes"/>
      <point x="1001" y="1686"/>
      <point x="1071" y="1648"/>
      <point x="1094" y="1591" type="curve"/>
      <point x="1144" y="1623" type="line"/>
      <point x="1105" y="1703"/>
      <point x="1017" y="1750"/>
      <point x="931" y="1750" type="curve" smooth="yes"/>
      <point x="787" y="1750"/>
      <point x="688" y="1666"/>
      <point x="688" y="1441" type="curve" smooth="yes"/>
      <point x="688" y="1024" type="line"/>
      <point x="354" y="1024" type="line"/>
      <point x="354" y="1450" type="line" smooth="yes"/>
      <point x="354" y="1620"/>
      <point x="417" y="1685"/>
      <point x="530" y="1685" type="curve" smooth="yes"/>
      <point x="570" y="1685"/>
      <point x="603" y="1677"/>
      <point x="628" y="1663" type="curve"/>
      <point x="659" y="1716" type="line"/>
      <point x="629" y="1734"/>
      <point x="585" y="1750"/>
      <point x="522" y="1750" type="curve" smooth="yes"/>
      <point x="379" y="1750"/>
      <point x="280" y="1666"/>
      <point x="280" y="1441" type="curve" smooth="yes"/>
      <point x="280" y="1024" type="line"/>
      <point x="192" y="1024" type="line"/>
      <point x="192" y="968" type="line"/>
      <point x="280" y="968" type="line"/>
      <point x="280" y="0" type="line"/>
    </contour>
  </outline>
</glyph>
<glyph name="f_f_l" format="2">
  <advance width="1483"/>
  <unicode hex="FB04"/>
  <anchor x="492" y="0" name="caret_1"/>
  <anchor x="986" y="0" name="caret_2"/>
  <outline>
    <contour>
      <point x="352" y="0" type="line"/>
      <point x="352" y="968" type="line"/>
      <point x="686" y="968" type="line"/>
      <point x="686" y="0" type="line"/>
      <point x="760" y="0" type="line"/>
      <point x="760" y="968" type="line"/>
      <point x="1030" y="968" type="line"/>
      <point x="1030" y="1024" type="line"/>
      <point x="760" y="1024" type="line"/>
      <point x="760" y="1450" type="line" smooth="yes"/>
      <point x="760" y="1620"/>
      <point x="824" y="1685"/>
      <point x="936" y="1685" type="curve" smooth="yes"/>
      <point x="975" y="1685"/>
      <point x="1007" y="1678"/>
      <point x="1033" y="1664" type="curve"/>
      <point x="1060" y="1719" type="line"/>
      <point x="1032" y="1735"/>
      <point x="989" y="1750"/>
      <point x="928" y="1750" type="curve" smooth="yes"/>
      <point x="785" y="1750"/>
      <point x="686" y="1666"/>
      <point x="686" y="1441" type="curve" smooth="yes"/>
      <point x="686" y="1024" type="line"/>
      <point x="352" y="1024" type="line"/>
      <point x="352" y="1450" type="line" smooth="yes"/>
      <point x="352" y="1620"/>
      <point x="415" y="1685"/>
      <point x="528" y="1685" type="curve" smooth="yes"/>
      <point x="568" y="1685"/>
      <point x="601" y="1677"/>
      <point x="626" y="1663" type="curve"/>
      <point x="657" y="1716" type="line"/>
      <point x="627" y="1734"/>
      <point x="583" y="1750"/>
      <point x="520" y="1750" type="curve" smooth="yes"/>
      <point x="377" y="1750"/>
      <point x="278" y="1666"/>
      <point x="278" y="1441" type="curve" smooth="yes"/>
      <point x="278" y="1024" type="line"/>
      <point x="190" y="1024" type="line"/>
      <point x="190" y="968" type="line"/>
      <point x="278" y="968" type="line"/>
      <point x="278" y="0" type="line"/>
    </contour>
    <contour>
      <point x="1209" y="0" type="line"/>
      <point x="1209" y="1720" type="line" name=".hr01"/>
      <point x="1134" y="1720" type="line"/>
      <point x="1134" y="0" type="line"/>
    </contour>
  </outline>
</glyph>
<glyph name="A.tnum" format="2">
  <advance width="1500"/>
  <anchor x="750" y="0" name="bottom"/>
  <anchor x="1428" y="0" name="ogonek"/>
  <anchor x="750" y="1650" name="top"/>
  <outline>
    <contour>
      <point x="152" y="0" type="line"/>
      <point x="382" y="592" type="line"/>
      <point x="1118" y="592" type="line"/>
      <point x="1348" y="0" type="line"/>
      <point x="1428" y="0" type="line"/>
      <point x="785" y="1650" type="line"/>
      <point x="715" y="1650" type="line"/>
      <point x="72" y="0" type="line"/>
    </contour>
    <contour>
      <point x="750" y="1554" type="line"/>
      <point x="1092" y="660" type="line"/>
      <point x="408" y="660" type="line"/>
    </contour>
  </outline>
</glyph>
<glyph name="M.ss01" format="2">
  <advance width="2058"/>
  <anchor x="1029" y="127" name="bottom"/>
  <anchor x="1029" y="1650" name="top"/>
  <outline>
    <contour>
      <point x="262" y="0" type="line"/>
      <point x="480" y="1499" type="line"/>
      <point x="993" y="127" type="line"/>
      <point x="1065" y="127" type="line"/>
      <point x="1578" y="1499" type="line"/>
      <point x="1796" y="0" type="line"/>
      <point x="1872" y="0" type="line"/>
      <point x="1636" y="1650" type="line"/>
      <point x="1555" y="1650" type="line"/>
      <point x="1029" y="244" type="line"/>
      <point x="503" y="1650" type="line"/>
      <point x="422" y="1650" type="line"/>
      <point x="186" y="0" type="line"/>
    </contour>
  </outline>
</glyph>
<glyph name="P.tnum" format="2">
  <advance width="1500"/>
  <outline>
    <contour>
      <point x="440" y="0" type="line"/>
      <point x="440" y="728" type="line"/>
      <point x="733" y="728" type="line" smooth="yes"/>
      <point x="1057" y="728"/>
      <point x="1246" y="915"/>
      <point x="1246" y="1189" type="curve" smooth="yes"/>
      <point x="1246" y="1463"/>
      <point x="1057" y="1650"/>
      <point x="733" y="1650" type="curve" smooth="yes"/>
      <point x="364" y="1650" type="line"/>
      <point x="364" y="0" type="line"/>
    </contour>
    <contour>
      <point x="440" y="1585" type="line"/>
      <point x="726" y="1585" type="line" smooth="yes"/>
      <point x="1007" y="1585"/>
      <point x="1173" y="1424"/>
      <point x="1173" y="1189" type="curve" smooth="yes"/>
      <point x="1173" y="954"/>
      <point x="1007" y="793"/>
      <point x="726" y="793" type="curve" smooth="yes"/>
      <point x="440" y="793" type="line"/>
    </contour>
  </outline>
</glyph>
<glyph name="a.ss01" format="2">
  <advance width="1430"/>
  <anchor x="672" y="0" name="bottom"/>
  <anchor x="1199" y="0" name="ogonek"/>
  <anchor x="706" y="1024" name="top"/>
  <outline>
    <contour>
      <point x="234" y="512" type="curve" smooth="yes"/>
      <point x="234" y="790"/>
      <point x="422" y="988"/>
      <point x="682" y="988" type="curve" smooth="yes"/>
      <point x="943" y="988"/>
      <point x="1130" y="791"/>
      <point x="1130" y="512" type="curve" smooth="yes"/>
      <point x="1130" y="234"/>
      <point x="943" y="36"/>
      <point x="682" y="36" type="curve" smooth="yes"/>
      <point x="422" y="36"/>
      <point x="234" y="234"/>
    </contour>
    <contour>
      <point x="160" y="512" type="curve" smooth="yes"/>
      <point x="160" y="198"/>
      <point x="380" y="-32"/>
      <point x="672" y="-32" type="curve" smooth="yes"/>
      <point x="871" y="-32"/>
      <point x="1039" y="75"/>
      <point x="1124" y="253" type="curve"/>
      <point x="1124" y="0" type="line"/>
      <point x="1199" y="0" type="line" name=".hr01"/>
      <point x="1199" y="1024" type="line"/>
      <point x="1124" y="1024" type="line"/>
      <point x="1124" y="771" type="line"/>
      <point x="1039" y="949"/>
      <point x="871" y="1056"/>
      <point x="672" y="1056" type="curve" smooth="yes" name=".hr02"/>
      <point x="380" y="1056"/>
      <point x="160" y="826"/>
    </contour>
  </outline>
</glyph>
<glyph name="eight.pnum" format="2">
  <advance width="1360"/>
  <outline>
    <contour>
      <point x="680" y="-32" type="curve" smooth="yes"/>
      <point x="967" y="-32"/>
      <point x="1172" y="171"/>
      <point x="1172" y="433" type="curve" smooth="yes"/>
      <point x="1172" y="635"/>
      <point x="1049" y="804"/>
      <point x="854" y="873" type="curve"/>
      <point x="1012" y="940"/>
      <point x="1112" y="1089" name=".hr01"/>
      <point x="1112" y="1262" type="curve" smooth="yes"/>
      <point x="1112" y="1498"/>
      <point x="927" y="1680"/>
      <point x="680" y="1680" type="curve" smooth="yes"/>
      <point x="431" y="1680"/>
      <point x="248" y="1496"/>
      <point x="248" y="1262" type="curve" smooth="yes"/>
      <point x="248" y="1089"/>
      <point x="348" y="940"/>
      <point x="506" y="873" type="curve"/>
      <point x="311" y="804"/>
      <point x="188" y="635" name=".hr02"/>
      <point x="188" y="433" type="curve" smooth="yes"/>
      <point x="188" y="171"/>
      <point x="393" y="-32"/>
    </contour>
    <contour>
      <point x="680" y="37" type="curve" smooth="yes"/>
      <point x="439" y="37"/>
      <point x="268" y="209"/>
      <point x="268" y="435" type="curve" smooth="yes"/>
      <point x="268" y="667"/>
      <point x="447" y="834"/>
      <point x="680" y="834" type="curve" smooth="yes"/>
      <point x="916" y="834"/>
      <point x="1092" y="664"/>
      <point x="1092" y="435" type="curve" smooth="yes"/>
      <point x="1092" y="209"/>
      <point x="921" y="37"/>
    </contour>
    <contour>
      <point x="680" y="907" type="curve" smooth="yes"/>
      <point x="475" y="907"/>
      <point x="323" y="1057"/>
      <point x="323" y="1261" type="curve" smooth="yes"/>
      <point x="323" y="1463" name=".hr03"/>
      <point x="476" y="1616"/>
      <point x="680" y="1616" type="curve" smooth="yes"/>
      <point x="884" y="1616"/>
      <point x="1038" y="1463"/>
      <point x="1038" y="1261" type="curve" smooth="yes"/>
      <point x="1038" y="1057"/>
      <point x="885" y="907"/>
    </contour>
  </outline>
</glyph>
<glyph name="f_f_j" format="2">
  <advance width="1282"/>
  <outline>
    <contour>
      <point x="850" y="-550" type="curve" smooth="yes"/>
      <point x="995" y="-550"/>
      <point x="1091" y="-466"/>
      <point x="1091" y="-248" type="curve" smooth="yes"/>
      <point x="1091" y="1024" type="line"/>
      <point x="699" y="1024" type="line"/>
      <point x="699" y="1450" type="line" smooth="yes"/>
      <point x="699" y="1620"/>
      <point x="763" y="1686"/>
      <point x="878" y="1686" type="curve" smooth="yes"/>
      <point x="937" y="1686"/>
      <point x="1008" y="1648"/>
      <point x="1030" y="1591" type="curve"/>
      <point x="1081" y="1623" type="line"/>
      <point x="1041" y="1703"/>
      <point x="954" y="1750"/>
      <point x="867" y="1750" type="curve" smooth="yes"/>
      <point x="724" y="1750"/>
      <point x="624" y="1666"/>
      <point x="624" y="1441" type="curve" smooth="yes"/>
      <point x="624" y="1024" type="line"/>
      <point x="291" y="1024" type="line"/>
      <point x="291" y="1450" type="line" smooth="yes"/>
      <point x="291" y="1620"/>
      <point x="354" y="1685"/>
      <point x="466" y="1685" type="curve" smooth="yes"/>
      <point x="507" y="1685"/>
      <point x="539" y="1677"/>
      <point x="565" y="1663" type="curve"/>
      <point x="595" y="1716" type="line"/>
      <point x="565" y="1734"/>
      <point x="521" y="1750"/>
      <point x="459" y="1750" type="curve" smooth="yes"/>
      <point x="315" y="1750"/>
      <point x="216" y="1666"/>
      <point x="216" y="1441" type="curve" smooth="yes"/>
      <point x="216" y="1024" type="line"/>
      <point x="128" y="1024" type="line"/>
      <point x="128" y="968" type="line"/>
      <point x="216" y="968" type="line"/>
      <point x="216" y="0" type="line"/>
      <point x="291" y="0" type="line"/>
      <point x="291" y="968" type="line"/>
      <point x="624" y="968" type="line"/>
      <point x="624" y="0" type="line"/>
      <point x="699" y="0" type="line"/>
      <point x="699" y="968" type="line"/>
      <point x="1016" y="968" type="line"/>
      <point x="1016" y="-253" type="line" smooth="yes"/>
      <point x="1016" y="-413"/>
      <point x="952" y="-485"/>
      <point x="841" y="-485" type="curve" smooth="yes"/>
      <point x="783" y="-485"/>
      <point x="741" y="-469"/>
      <point x="714" y="-444" type="curve"/>
      <point x="692" y="-503" type="line"/>
      <point x="721" y="-527"/>
      <point x="768" y="-550"/>
    </contour>
  </outline>
</glyph>
<glyph name="f_f_t" format="2">
  <advance width="1654"/>
  <outline>
    <contour>
      <point x="1350" y="-32" type="curve" smooth="yes"/>
      <point x="1419" y="-32"/>
      <point x="1468" y="-11"/>
      <point x="1492" y="8" type="curve"/>
      <point x="1473" y="67" type="line"/>
      <point x="1453" y="52"/>
      <point x="1414" y="33"/>
      <point x="1363" y="33" type="curve" smooth="yes"/>
      <point x="1258" y="33"/>
      <point x="1221" y="103"/>
      <point x="1221" y="235" type="curve" smooth="yes"/>
      <point x="1221" y="968" type="line"/>
      <point x="1490" y="968" type="line"/>
      <point x="1490" y="1024" type="line"/>
      <point x="1221" y="1024" type="line"/>
      <point x="1221" y="1406" type="line"/>
      <point x="1146" y="1406" type="line"/>
      <point x="1146" y="1024" type="line"/>
      <point x="773" y="1024" type="line"/>
      <point x="773" y="1450" type="line" smooth="yes"/>
      <point x="773" y="1620"/>
      <point x="836" y="1685"/>
      <point x="949" y="1685" type="curve" smooth="yes"/>
      <point x="989" y="1685"/>
      <point x="1021" y="1677"/>
      <point x="1047" y="1663" type="curve"/>
      <point x="1077" y="1716" type="line"/>
      <point x="1047" y="1734"/>
      <point x="1003" y="1750"/>
      <point x="941" y="1750" type="curve" smooth="yes"/>
      <point x="797" y="1750"/>
      <point x="698" y="1666"/>
      <point x="698" y="1441" type="curve" smooth="yes"/>
      <point x="698" y="1024" type="line"/>
      <point x="365" y="1024" type="line"/>
      <point x="365" y="1450" type="line" smooth="yes"/>
      <point x="365" y="1620"/>
      <point x="428" y="1685"/>
      <point x="540" y="1685" type="curve" smooth="yes"/>
      <point x="581" y="1685"/>
      <point x="613" y="1677"/>
      <point x="639" y="1663" type="curve"/>
      <point x="669" y="1716" type="line"/>
      <point x="639" y="1734"/>
      <point x="595" y="1750"/>
      <point x="533" y="1750" type="curve" smooth="yes"/>
      <point x="389" y="1750"/>
      <point x="290" y="1666"/>
      <point x="290" y="1441" type="curve" smooth="yes"/>
      <point x="290" y="1024" type="line"/>
      <point x="202" y="1024" type="line"/>
      <point x="202" y="968" type="line"/>
      <point x="290" y="968" type="line"/>
      <point x="290" y="0" type="line" name=".hr01"/>
      <point x="365" y="0" type="line"/>
      <point x="365" y="968" type="line"/>
      <point x="698" y="968" type="line"/>
      <point x="698" y="0" type="line"/>
      <point x="773" y="0" type="line"/>
      <point x="773" y="968" type="line"/>
      <point x="1146" y="968" type="line"/>
      <point x="1146" y="231" type="line" smooth="yes"/>
      <point x="1146" y="101"/>
      <point x="1173" y="-32" name=".hr02"/>
    </contour>
  </outline>
</glyph>
<glyph name="f_j" format="2">
  <advance width="873"/>
  <outline>
    <contour>
      <point x="442" y="-550" type="curve" smooth="yes"/>
      <point x="587" y="-550"/>
      <point x="683" y="-466"/>
      <point x="683" y="-248" type="curve" smooth="yes"/>
      <point x="683" y="1024" type="line"/>
      <point x="291" y="1024" type="line"/>
      <point x="291" y="1450" type="line" smooth="yes"/>
      <point x="291" y="1620"/>
      <point x="355" y="1686"/>
      <point x="469" y="1686" type="curve" smooth="yes"/>
      <point x="529" y="1686"/>
      <point x="599" y="1648"/>
      <point x="622" y="1591" type="curve"/>
      <point x="673" y="1623" type="line"/>
      <point x="633" y="1703"/>
      <point x="545" y="1750"/>
      <point x="459" y="1750" type="curve" smooth="yes"/>
      <point x="315" y="1750"/>
      <point x="216" y="1666"/>
      <point x="216" y="1441" type="curve" smooth="yes"/>
      <point x="216" y="1024" type="line"/>
      <point x="128" y="1024" type="line"/>
      <point x="128" y="968" type="line"/>
      <point x="216" y="968" type="line"/>
      <point x="216" y="0" type="line"/>
      <point x="291" y="0" type="line"/>
      <point x="291" y="968" type="line"/>
      <point x="608" y="968" type="line"/>
      <point x="608" y="-253" type="line" smooth="yes"/>
      <point x="608" y="-413"/>
      <point x="544" y="-485"/>
      <point x="433" y="-485" type="curve" smooth="yes"/>
      <point x="375" y="-485"/>
      <point x="333" y="-469"/>
      <point x="306" y="-444" type="curve"/>
      <point x="284" y="-503" type="line"/>
      <point x="313" y="-527"/>
      <point x="360" y="-550"/>
    </contour>
  </outline>
</glyph>
